<?xml version="1.0" standalone="no"?>
<!DOCTYPE svg PUBLIC "-//W3C//DTD SVG 20010904//EN"
 "http://www.w3.org/TR/2001/REC-SVG-20010904/DTD/svg10.dtd">
<svg version="1.0" xmlns="http://www.w3.org/2000/svg"
 width="500.000000pt" height="500.000000pt" viewBox="0 0 500.000000 500.000000"
 preserveAspectRatio="xMidYMid meet">

<g transform="translate(0.000000,500.000000) scale(0.100000,-0.100000)"
fill="#000000" stroke="none">
<path d="M0 2500 l0 -2500 2500 0 2500 0 0 2500 0 2500 -2500 0 -2500 0 0
-2500z m2772 1483 c35 -27 74 -55 88 -64 25 -17 25 -17 8 -47 -23 -39 -22 -60
2 -97 11 -16 20 -40 20 -53 0 -13 5 -33 11 -45 11 -20 10 -20 -16 3 -15 14
-36 42 -46 62 -11 21 -39 60 -64 88 -25 28 -43 56 -39 62 4 5 3 13 -2 17 -14
10 -74 100 -74 111 0 24 54 6 112 -37z m206 -183 c8 -25 23 -56 33 -69 21 -26
24 -41 10 -41 -5 0 -13 9 -16 20 -4 11 -18 31 -33 45 -14 13 -27 30 -28 38 -1
8 -5 24 -9 37 -6 17 -3 21 11 18 10 -2 23 -21 32 -48z m122 -245 c48 -30 83
-80 109 -157 l20 -58 -32 13 c-27 12 -32 18 -29 43 3 26 2 27 -10 11 -11 -15
-13 -12 -13 25 -1 59 -23 98 -70 125 -22 12 -34 23 -27 23 7 0 30 -11 52 -25z
m-1714 -37 c-14 -19 -16 -20 -16 -5 0 10 5 28 12 40 11 19 13 20 16 5 2 -10
-4 -28 -12 -40z m1881 -253 c9 -24 -1 -27 -15 -5 -8 13 -8 20 -2 20 6 0 13 -7
17 -15z m60 -161 c-3 -3 -16 6 -30 20 -15 14 -22 26 -17 26 6 0 10 10 10 23 1
17 6 12 22 -21 11 -23 18 -45 15 -48z m33 -131 c0 -2 -11 -3 -24 -3 -20 0 -24
5 -22 23 2 12 7 30 11 40 7 16 10 12 21 -20 8 -21 14 -39 14 -40z m20 -23 c0
-5 -9 -10 -21 -10 -11 0 -17 5 -14 10 3 6 13 10 21 10 8 0 14 -4 14 -10z"/>
</g>
</svg>
