<?xml version="1.0" standalone="no"?>
<!DOCTYPE svg PUBLIC "-//W3C//DTD SVG 20010904//EN"
 "http://www.w3.org/TR/2001/REC-SVG-20010904/DTD/svg10.dtd">
<svg version="1.0" xmlns="http://www.w3.org/2000/svg"
 width="1006.000000pt" height="780.000000pt" viewBox="0 0 1006.000000 780.000000"
 preserveAspectRatio="xMidYMid meet">

<g transform="translate(0.000000,780.000000) scale(0.100000,-0.100000)"
fill="#000000" stroke="none">
<path d="M0 3900 l0 -3900 200 0 200 0 0 26 c0 14 -16 101 -35 194 -46 222
-80 446 -102 660 -26 250 -26 909 0 1165 61 612 176 1150 372 1740 31 94 68
199 82 235 13 36 38 101 55 145 200 518 513 1118 827 1585 323 480 609 829
1001 1220 261 262 504 473 788 687 96 73 177 135 180 138 3 3 -799 5 -1781 5
l-1787 0 0 -3900z"/>
<path d="M4699 7796 c-2 -2 -33 -6 -68 -10 -68 -6 -93 -15 -45 -17 l29 -1 -30
-7 c-23 -5 -32 -3 -37 11 -10 25 -21 23 -13 -2 5 -17 2 -20 -22 -20 -57 1 -62
-2 -50 -22 14 -22 23 -23 31 -3 3 8 12 15 21 15 22 0 19 -18 -5 -25 -11 -3
-20 -13 -20 -21 0 -8 -5 -14 -11 -14 -5 0 -8 4 -5 9 3 5 -1 14 -9 21 -12 10
-15 10 -15 -3 0 -14 -26 -23 -87 -30 -13 -2 -28 -8 -35 -15 -11 -11 -8 -13 12
-10 14 2 30 7 36 11 7 4 15 -1 18 -10 4 -10 4 -14 0 -10 -4 3 -20 -1 -36 -11
-25 -15 -30 -15 -38 -2 -8 13 -10 12 -10 -3 0 -10 -5 -15 -10 -12 -6 4 -17 1
-25 -5 -8 -6 -18 -9 -24 -6 -5 3 -12 -1 -15 -10 -3 -8 -14 -14 -23 -13 -39 3
-74 -1 -69 -10 3 -5 -5 -11 -19 -13 -22 -5 -23 -3 -13 11 9 10 2 9 -24 -6 -20
-12 -48 -20 -63 -19 -15 2 -24 -1 -22 -8 6 -17 -27 -46 -56 -48 -16 -1 -29
-10 -33 -21 -4 -13 -13 -17 -35 -13 -16 2 -27 0 -24 -4 3 -5 1 -11 -5 -15 -6
-4 -8 -11 -5 -16 4 -5 1 -9 -5 -9 -6 0 -8 -5 -4 -12 5 -8 0 -9 -14 -6 -14 4
-22 2 -22 -7 0 -7 -13 -18 -30 -24 -16 -5 -30 -8 -30 -5 0 3 -9 -4 -21 -15
-13 -11 -18 -24 -14 -32 5 -8 4 -10 -3 -5 -12 7 -50 -11 -68 -33 -6 -8 -16
-11 -24 -6 -9 5 -10 2 -5 -15 6 -18 4 -21 -17 -18 -15 2 -22 -2 -20 -10 1 -7
-5 -15 -13 -18 -8 -4 -15 -13 -15 -22 0 -8 -3 -12 -6 -9 -11 10 -45 -13 -38
-25 5 -8 1 -9 -10 -5 -14 6 -17 3 -12 -9 4 -12 2 -15 -9 -10 -18 7 -19 -5 -2
-25 10 -12 10 -12 -3 -1 -20 17 -30 15 -30 -7 0 -29 -29 -54 -45 -41 -10 8
-15 8 -21 -1 -4 -7 -2 -15 4 -17 19 -6 14 -23 -5 -20 -12 2 -17 -3 -15 -14 2
-13 -2 -16 -14 -11 -11 4 -15 3 -11 -4 4 -7 -5 -14 -22 -18 -17 -4 -33 -15
-36 -26 -4 -11 -11 -17 -16 -14 -8 6 -13 -8 -10 -27 0 -4 -8 -5 -19 -3 -13 2
-20 -2 -20 -11 0 -8 -11 -19 -24 -24 -29 -11 -68 -58 -60 -74 3 -6 -1 -3 -9 7
-13 15 -16 15 -27 3 -6 -9 -9 -20 -6 -25 5 -8 -25 -32 -44 -35 -3 -1 -4 -5 -2
-9 1 -5 -7 -11 -18 -14 -12 -3 -19 -11 -16 -19 7 -17 -10 -28 -20 -13 -4 8 -3
9 4 5 8 -5 10 -2 6 9 -6 14 -8 14 -19 -2 -7 -9 -10 -24 -7 -32 4 -11 -1 -13
-24 -7 -21 5 -25 4 -14 -4 10 -6 11 -10 3 -10 -7 0 -13 -7 -13 -16 0 -14 -2
-15 -17 -3 -9 8 -14 9 -10 3 4 -6 -2 -22 -14 -35 -11 -12 -17 -29 -15 -36 3
-7 0 -12 -7 -10 -7 1 -11 -4 -9 -10 1 -7 -5 -13 -14 -13 -8 0 -13 -4 -9 -9 3
-5 0 -13 -6 -17 -6 -3 -15 0 -20 7 -7 11 -9 10 -9 -3 0 -10 -18 -30 -40 -44
-24 -16 -39 -33 -36 -41 3 -7 -1 -13 -10 -13 -8 0 -14 -6 -13 -12 3 -24 -1
-38 -10 -38 -5 0 -8 7 -7 16 0 9 -5 19 -12 21 -13 5 -12 -22 1 -44 5 -7 4 -13
-2 -13 -17 0 -101 -87 -101 -105 0 -12 -5 -15 -22 -10 -17 6 -20 4 -14 -10 3
-10 -1 -23 -12 -33 -10 -10 -13 -15 -7 -12 6 3 3 -3 -8 -12 -10 -10 -16 -22
-12 -27 5 -9 -29 -35 -47 -36 -10 0 -23 -16 -23 -28 -1 -7 -7 -11 -15 -9 -11
3 -11 0 0 -12 12 -15 7 -21 -14 -17 -5 1 -3 -6 5 -15 9 -12 10 -15 1 -10 -7 4
-15 0 -19 -11 -4 -10 -17 -32 -30 -49 -12 -17 -20 -34 -15 -39 4 -5 1 -5 -6
-1 -12 7 -69 -50 -64 -66 1 -4 -2 -8 -6 -8 -4 0 -16 -13 -25 -30 -10 -16 -25
-30 -34 -30 -9 0 -13 -3 -10 -7 4 -3 1 -13 -6 -21 -10 -13 -9 -15 3 -8 8 4 7
1 -4 -8 -10 -8 -15 -19 -12 -24 3 -5 -2 -16 -12 -23 -15 -12 -16 -12 -7 1 6 9
2 7 -7 -3 -10 -11 -15 -23 -12 -28 3 -5 0 -9 -7 -9 -10 0 -10 -3 -1 -12 14
-14 16 -32 4 -24 -5 3 -15 -4 -22 -15 -8 -10 -21 -19 -28 -19 -11 0 -12 -3 -3
-14 10 -11 8 -16 -10 -21 -17 -6 -20 -12 -15 -36 3 -16 1 -29 -4 -29 -6 0 -9
3 -7 8 1 4 -2 8 -8 10 -5 1 -10 -1 -10 -5 -2 -25 -18 -53 -31 -53 -8 0 -12 -5
-9 -10 3 -6 -1 -13 -10 -16 -9 -4 -14 -13 -11 -21 5 -11 1 -13 -16 -7 -20 6
-21 5 -9 -10 9 -10 10 -16 2 -16 -6 0 -11 -5 -11 -11 0 -6 -7 -17 -15 -26 -9
-8 -13 -23 -10 -33 3 -9 -1 -23 -10 -30 -8 -7 -12 -16 -9 -22 3 -5 -3 -17 -13
-26 -10 -9 -18 -27 -17 -39 1 -13 -4 -19 -11 -17 -7 3 -18 -9 -25 -26 -7 -17
-21 -35 -30 -40 -12 -7 -17 -19 -15 -41 2 -24 -2 -33 -17 -37 -13 -3 -18 -11
-15 -23 3 -12 0 -19 -9 -19 -7 0 -11 -6 -8 -14 3 -8 -2 -26 -11 -39 -12 -20
-13 -26 -3 -29 9 -3 2 -16 -20 -36 -19 -17 -31 -36 -27 -42 3 -5 0 -10 -7 -10
-9 0 -9 -3 2 -10 11 -7 12 -10 2 -10 -9 0 -11 -7 -7 -21 5 -16 3 -20 -6 -16
-8 2 -13 10 -12 16 5 20 -14 12 -20 -9 -3 -10 -2 -19 2 -18 18 2 31 -3 31 -13
0 -5 -4 -8 -10 -4 -10 6 -50 -13 -62 -30 -4 -5 2 -15 13 -23 10 -7 19 -19 19
-25 0 -7 -8 -3 -16 8 -16 20 -16 19 -9 -4 7 -22 5 -23 -19 -19 -26 5 -26 5 -9
-14 12 -14 13 -17 2 -13 -10 4 -14 -2 -15 -20 -2 -21 -13 -40 -65 -102 -7 -9
-7 -13 1 -13 5 0 10 -7 10 -16 0 -8 -5 -12 -10 -9 -5 3 -10 -1 -10 -9 0 -9 -4
-16 -9 -16 -5 0 -8 -11 -7 -25 2 -15 -1 -22 -7 -18 -6 4 -8 0 -4 -10 4 -10 2
-16 -5 -14 -15 3 -19 -35 -5 -52 10 -12 8 -14 -10 -9 -14 4 -22 2 -20 -6 1 -6
-3 -10 -9 -9 -15 3 -26 -35 -13 -43 5 -3 2 -12 -6 -21 -11 -11 -13 -19 -5 -28
8 -9 6 -14 -5 -19 -11 -4 -14 -2 -9 6 4 7 3 8 -5 4 -6 -4 -8 -12 -5 -18 4 -6
1 -14 -7 -18 -10 -7 -10 -14 -1 -34 10 -22 9 -25 -11 -28 -12 -2 -23 -11 -25
-20 -3 -13 1 -16 15 -12 17 5 17 5 1 -6 -10 -6 -18 -22 -18 -35 0 -13 -4 -26
-10 -30 -5 -3 -6 -13 -3 -21 4 -10 -2 -17 -16 -21 -11 -3 -18 -10 -15 -17 3
-6 -1 -3 -9 7 -9 10 -18 14 -21 8 -3 -5 -2 -11 3 -13 5 -1 13 -21 17 -42 6
-33 4 -38 -9 -33 -11 4 -15 1 -12 -13 3 -14 -1 -18 -16 -15 -13 3 -17 0 -12
-8 11 -18 11 -30 -2 -47 -23 -31 -47 -75 -34 -62 16 14 49 16 49 2 0 -5 -7
-10 -15 -10 -8 0 -15 -5 -15 -11 0 -5 -4 -8 -9 -5 -15 9 -31 -18 -21 -34 15
-24 11 -36 -4 -14 -13 16 -17 17 -28 5 -8 -8 -8 -11 -1 -7 15 8 27 -10 12 -19
-5 -4 -8 -13 -5 -21 3 -8 0 -11 -10 -7 -7 3 -14 2 -14 -1 0 -4 9 -10 20 -14
13 -5 16 -12 11 -21 -7 -10 -13 -11 -32 -1 -22 11 -22 10 3 -14 32 -31 33 -32
14 -39 -10 -4 -13 -1 -9 9 3 7 0 14 -6 14 -6 0 -11 -5 -11 -12 0 -6 -7 -3 -15
8 -14 18 -15 17 -5 -8 6 -18 6 -29 0 -33 -6 -4 -10 -12 -9 -18 0 -9 2 -8 6 1
2 6 9 10 14 6 11 -6 12 -24 2 -23 -22 4 -33 -3 -33 -18 0 -15 2 -16 10 -3 6 9
10 10 10 3 0 -6 3 -18 6 -27 3 -9 1 -16 -6 -16 -6 0 -8 5 -5 10 3 6 1 10 -4
10 -14 0 -14 -13 1 -28 9 -9 9 -12 0 -12 -6 0 -16 10 -23 21 -9 17 -13 19 -20
8 -5 -9 -3 -17 6 -22 8 -4 15 -13 15 -18 0 -6 -4 -7 -10 -4 -5 3 -10 2 -10 -4
0 -5 5 -13 10 -16 6 -3 10 -12 10 -18 0 -7 -4 -6 -10 3 -8 12 -10 11 -10 -7 0
-13 -5 -23 -10 -23 -6 0 -8 14 -5 33 l5 32 -21 -24 c-14 -17 -18 -32 -14 -49
5 -19 3 -23 -9 -19 -10 4 -13 1 -10 -7 3 -7 -2 -18 -10 -25 -11 -10 -13 -19
-5 -38 5 -14 7 -28 4 -31 -2 -3 0 -11 7 -19 9 -11 7 -15 -11 -20 -14 -3 -20
-11 -17 -19 4 -11 -1 -13 -22 -9 -20 4 -22 3 -8 -3 11 -5 20 -18 21 -30 1 -17
-2 -19 -17 -11 -10 5 -18 8 -19 7 -6 -25 -5 -39 3 -45 7 -3 8 -1 4 5 -4 7 -2
12 3 12 15 0 14 -17 -2 -27 -30 -18 -28 -48 4 -45 3 1 6 -6 6 -14 0 -8 -7 -13
-16 -12 -9 2 -15 -3 -13 -11 3 -12 1 -12 -13 -1 -22 18 -44 -2 -25 -24 7 -9
16 -14 19 -11 4 2 8 -2 8 -9 0 -9 -7 -12 -16 -8 -9 3 -13 2 -9 -3 4 -4 0 -14
-8 -23 -13 -12 -13 -16 -2 -23 20 -13 31 -11 24 6 -3 8 -1 15 3 15 16 0 18
-24 4 -38 -11 -12 -17 -12 -31 -1 -14 11 -15 11 -4 -1 16 -18 16 -33 0 -25 -7
4 -4 -1 6 -9 11 -9 14 -16 7 -16 -7 0 -9 -4 -6 -10 4 -6 -1 -7 -12 -3 -16 6
-17 5 -3 -12 8 -10 10 -16 4 -12 -7 4 -15 0 -18 -9 -4 -9 -13 -14 -22 -10 -8
3 -12 2 -9 -4 3 -5 -3 -15 -15 -22 -11 -7 -20 -19 -20 -27 0 -11 3 -11 15 -1
11 9 19 10 26 3 10 -10 -2 -13 -48 -13 -27 0 -30 -15 -5 -29 15 -9 15 -12 2
-21 -18 -12 -36 -7 -32 9 1 7 -2 10 -7 6 -15 -9 -1 -35 19 -35 10 0 20 -10 24
-22 8 -33 7 -48 -3 -48 -5 0 -7 8 -4 19 3 10 1 21 -4 24 -4 3 -9 -9 -10 -25
-1 -17 -9 -38 -18 -48 -8 -9 -12 -20 -8 -25 5 -4 2 -5 -5 0 -10 5 -11 10 -3
18 16 16 13 37 -4 37 -9 0 -14 -9 -13 -23 0 -12 -1 -29 -3 -37 -3 -11 3 -14
21 -11 l25 3 -30 -28 c-16 -15 -29 -29 -27 -31 1 -2 -1 -3 -4 -2 -4 0 -10 -4
-14 -10 -3 -7 -14 -9 -23 -5 -9 3 -14 10 -11 15 3 5 -2 9 -11 9 -12 0 -15 5
-10 18 5 13 4 14 -6 5 -8 -8 -9 -16 -2 -25 13 -16 13 -48 1 -48 -5 0 -7 -3 -5
-8 3 -4 -1 -12 -8 -19 -10 -10 -14 -9 -19 3 -3 8 1 17 9 20 23 9 18 23 -10 30
-14 3 -25 12 -25 19 0 8 -9 10 -25 7 -14 -2 -22 -8 -20 -13 3 -4 -3 -13 -12
-19 -15 -9 -14 -10 6 -4 l24 6 -21 -36 c-24 -40 -22 -43 14 -20 19 13 28 14
37 5 8 -8 8 -11 -2 -11 -7 0 -11 -6 -8 -14 3 -8 1 -17 -6 -20 -9 -3 -8 -5 1
-5 7 -1 10 -6 7 -12 -4 -6 1 -17 11 -25 17 -12 17 -13 2 -8 -10 3 -18 1 -18
-5 0 -6 -7 -11 -15 -11 -13 0 -19 -11 -17 -31 1 -4 -10 -10 -23 -13 -14 -4
-25 -11 -25 -16 0 -6 -4 -10 -10 -10 -6 0 -6 9 -1 23 6 14 15 21 27 19 15 -3
16 -1 5 12 -8 9 -10 17 -5 17 5 1 14 2 19 4 6 1 15 3 21 3 7 1 11 17 9 39 -2
21 -4 42 -4 47 -1 5 -10 1 -21 -9 -11 -10 -20 -14 -20 -9 0 5 -4 3 -9 -5 -7
-10 -5 -18 6 -26 13 -10 13 -13 1 -26 -8 -8 -17 -22 -21 -32 -7 -18 -8 -18
-24 -1 -10 9 -17 30 -17 45 1 16 -3 29 -7 29 -5 0 -9 8 -10 18 0 13 -3 11 -10
-6 -11 -29 -15 -174 -5 -190 4 -7 2 -12 -3 -12 -6 0 -11 -10 -11 -22 1 -13 0
-45 0 -72 0 -35 4 -52 17 -63 17 -14 17 -14 -1 -9 -15 5 -18 2 -13 -19 3 -19
1 -25 -9 -21 -8 3 -14 -1 -14 -10 0 -8 4 -12 10 -9 5 3 10 2 10 -4 0 -5 -6
-11 -12 -13 -10 -4 -14 -72 -17 -286 -3 -299 15 -579 60 -887 32 -227 93 -521
110 -539 5 -6 9 -18 9 -28 0 -17 152 -18 3924 -18 l3924 0 35 48 c37 51 207
301 207 305 0 1 -22 0 -49 -1 l-49 -4 -63 84 c-35 45 -122 157 -193 248 -161
203 -189 240 -180 240 3 0 -4 9 -17 21 -23 19 -23 20 -2 10 12 -6 25 -16 28
-21 3 -6 15 -10 25 -10 11 0 24 -9 30 -21 9 -16 14 -18 25 -9 11 9 16 7 25 -9
8 -17 15 -19 29 -11 10 5 22 6 26 2 5 -4 5 -2 2 5 -4 6 3 20 16 30 34 27 98
113 91 124 -3 5 0 9 6 9 6 0 10 8 8 18 -2 9 8 27 22 39 21 19 22 22 7 23 -10
0 -16 4 -13 9 3 5 15 7 26 4 11 -3 20 0 20 6 0 5 -7 8 -15 5 -9 -4 -15 0 -15
10 0 9 3 15 8 15 24 -4 42 3 42 17 0 8 4 13 8 10 5 -3 9 2 9 10 0 10 -7 14
-19 11 -16 -4 -17 -3 -7 9 6 7 16 11 22 7 6 -4 7 4 3 23 -7 27 -6 28 7 9 15
-19 16 -19 35 -2 11 10 23 29 26 42 4 14 12 23 19 21 6 -1 9 -1 6 1 -4 2 -5
13 -2 23 3 11 9 17 14 14 5 -3 17 0 26 6 16 10 16 11 -2 6 -17 -5 -18 -4 -5 6
9 7 14 22 12 33 -4 19 -3 19 10 1 14 -17 15 -17 32 9 14 21 15 29 5 41 -9 11
-8 14 5 14 19 0 62 40 43 41 -6 0 -2 4 10 9 15 6 21 16 19 34 -2 14 1 26 6 26
6 0 8 6 5 14 -5 11 0 13 22 6 19 -5 28 -4 28 4 0 6 2 18 4 26 2 9 -2 14 -10
12 -12 -3 -12 0 -2 12 7 9 18 13 25 9 6 -4 6 0 -2 9 -10 13 -10 17 4 22 8 3
14 12 12 18 -7 20 14 35 41 31 l26 -3 -25 10 -25 11 28 24 c15 13 27 28 27 34
0 5 6 12 13 14 9 4 8 6 -2 6 -11 1 -10 5 3 20 10 11 16 26 14 33 -3 7 6 22 18
33 19 17 21 24 11 35 -9 10 -9 11 1 6 6 -4 12 -2 12 3 0 6 5 11 11 11 5 0 7
-4 4 -10 -3 -5 -1 -10 4 -10 14 0 14 6 1 30 -7 13 -7 21 0 25 6 4 8 10 5 15
-3 4 2 13 10 20 20 17 19 36 -2 50 -17 11 -17 11 -1 6 22 -7 70 36 68 61 -5
40 0 49 14 30 9 -12 16 -14 21 -7 4 6 2 17 -4 24 -6 7 -8 16 -4 19 3 4 1 7 -6
7 -7 0 -10 4 -6 10 3 5 13 6 22 3 12 -5 14 -3 8 7 -6 10 -4 12 8 7 11 -4 15
-1 12 13 -3 13 1 17 11 13 17 -6 19 29 3 59 -6 12 -7 18 -1 14 5 -3 13 1 16
10 4 10 2 13 -7 8 -9 -5 -9 -4 0 6 9 10 9 18 1 33 -9 17 -8 19 6 14 9 -4 16
-2 16 3 0 6 -5 10 -11 10 -6 0 -1 9 12 20 23 19 23 19 3 20 -11 0 -21 6 -21
14 0 13 5 13 31 0 l31 -16 -28 25 c-15 14 -24 28 -18 31 5 4 12 2 16 -4 10
-17 21 -11 21 10 0 14 -5 19 -15 15 -10 -4 -9 1 5 16 10 12 14 20 8 16 -13 -7
25 75 39 84 5 4 6 16 3 27 -4 11 -2 23 4 27 15 10 12 23 -7 28 -17 4 -17 5 0
6 16 1 17 2 1 27 -14 21 -15 25 -3 24 31 -5 42 0 31 13 -12 15 -10 45 4 55 11
8 15 62 5 62 -4 0 -12 -5 -18 -11 -8 -8 -13 -7 -18 2 -5 7 -4 10 2 6 9 -6 38
44 38 65 0 3 3 10 7 13 4 4 3 16 -3 26 -5 11 -6 19 -1 19 5 0 7 15 5 33 -6 52
-4 73 8 103 7 16 13 36 13 44 1 8 4 20 7 25 4 6 6 22 5 38 -1 15 2 27 7 27 4
0 6 4 2 9 -3 6 1 16 8 23 10 9 12 21 6 40 -4 17 -4 28 2 28 6 0 6 8 -1 20 -9
16 -8 18 5 14 17 -7 16 -9 20 69 2 36 -1 57 -8 57 -6 0 -1 10 10 23 11 12 23
29 27 37 4 8 -2 4 -13 -10 l-21 -25 0 28 c0 19 5 27 18 27 9 0 13 4 7 8 -16
11 -17 32 -1 32 8 0 13 11 12 29 -1 16 -4 27 -8 24 -5 -2 -8 1 -8 6 0 6 6 11
13 11 8 0 8 3 -2 9 -22 14 -22 41 -1 41 21 0 34 26 17 34 -7 2 -5 5 5 5 9 1
20 5 23 11 4 6 -1 7 -10 3 -13 -4 -16 -1 -14 18 2 13 0 29 -4 36 -5 7 -1 10
10 7 14 -4 18 2 19 26 1 23 -3 30 -13 26 -8 -3 -11 -1 -8 5 4 5 1 17 -7 26 -9
12 -9 15 0 9 7 -4 12 -1 12 9 0 9 3 14 8 11 4 -2 8 9 8 25 1 16 -2 27 -6 24
-4 -3 -10 2 -13 10 -4 9 -1 12 9 8 10 -4 12 0 7 13 -5 12 -3 15 6 9 10 -5 11
-2 6 14 -4 14 -2 21 6 21 7 0 5 8 -7 22 -16 18 -16 20 -2 15 11 -4 18 1 21 14
5 17 3 18 -10 7 -14 -11 -15 -11 -11 2 3 8 1 23 -4 33 -7 14 -4 17 14 18 13 0
17 3 11 6 -18 7 -16 30 3 37 15 6 15 8 -1 26 -16 18 -16 20 -1 26 13 5 15 15
12 44 -3 28 -1 40 10 44 9 3 12 1 9 -4 -3 -6 -2 -10 4 -10 5 0 13 9 16 20 4
11 10 18 14 16 4 -3 8 1 8 9 0 20 -7 19 -24 -2 -12 -17 -13 -16 -11 7 3 28 27
34 45 10 6 -8 14 -12 18 -9 3 4 -9 21 -27 38 -31 29 -31 30 -8 25 l25 -5 -24
14 c-14 8 -30 14 -35 13 -6 -2 -7 -1 -3 2 4 2 2 11 -5 20 -11 15 -11 15 4 4
11 -9 18 -10 23 -2 3 5 11 10 17 10 6 0 5 -7 -3 -17 -7 -10 -2 -8 12 5 14 12
29 19 34 15 4 -5 3 1 -2 11 -13 23 -5 58 11 49 6 -4 5 1 -2 10 -17 20 -8 37
18 32 17 -3 19 -1 10 15 -6 11 -10 23 -9 27 3 20 -2 25 -15 14 -11 -10 -14 -7
-12 13 1 20 4 22 15 13 12 -10 13 -9 8 7 -5 13 -3 17 5 13 7 -3 21 -8 31 -12
12 -5 17 -2 17 8 0 8 7 18 16 21 26 10 36 7 31 -9 -4 -8 -2 -17 3 -20 6 -4 10
1 10 9 0 10 9 16 25 16 14 0 25 -5 25 -11 0 -5 -4 -7 -10 -4 -5 3 -10 -3 -10
-14 0 -11 -4 -23 -10 -26 -5 -3 -10 -12 -9 -18 0 -9 2 -9 6 1 2 6 14 12 25 12
14 0 18 5 14 16 -3 8 -2 12 4 9 12 -7 2 -57 -14 -67 -19 -13 5 -22 25 -10 18
12 18 11 7 -8 -7 -11 -21 -23 -30 -26 -16 -5 -16 -7 3 -27 11 -12 18 -29 16
-38 -3 -12 1 -15 14 -12 20 6 27 -13 7 -19 -14 -5 -22 -48 -8 -48 9 0 14 15
11 33 -1 5 3 6 9 2 5 -3 10 1 10 9 0 9 5 16 11 16 6 0 10 -19 9 -47 -2 -69 -1
-75 12 -67 6 4 8 3 4 -4 -3 -6 -2 -13 4 -17 7 -4 7 -12 0 -24 -5 -10 -6 -22
-2 -26 4 -5 2 -5 -5 -1 -7 4 -10 14 -7 24 5 14 4 15 -5 2 -7 -10 -5 -23 10
-46 11 -18 19 -36 18 -41 -1 -4 0 -24 1 -43 2 -31 3 -30 10 15 17 116 7 583
-14 715 -2 14 -7 63 -11 110 -6 82 -44 345 -65 460 -53 279 -158 638 -260 889
-105 260 -253 535 -431 804 -54 81 -96 147 -94 147 6 0 129 -168 186 -255 279
-423 500 -977 614 -1537 89 -434 120 -796 112 -1308 -6 -364 -18 -526 -67
-850 -125 -827 -378 -1620 -766 -2400 -156 -315 -277 -525 -524 -918 -31 -49
-33 -56 -22 -85 10 -27 9 -29 -2 -15 -7 10 -18 18 -24 18 -13 0 -102 -113
-102 -129 0 -8 108 -11 355 -11 344 0 357 1 378 20 58 55 197 96 285 85 90
-10 242 -71 242 -95 0 -6 84 -10 225 -10 l225 0 0 3900 0 3900 -2678 0 c-1474
0 -2681 -2 -2683 -4z m4231 -281 c7 -9 8 -15 2 -15 -5 0 -12 7 -16 15 -3 8 -4
15 -2 15 2 0 9 -7 16 -15z m-5055 -84 c-3 -6 -11 -11 -17 -11 -6 0 -6 6 2 15
14 17 26 13 15 -4z m1320 -31 c372 -72 670 -206 989 -444 723 -539 1242 -1437
1455 -2517 81 -414 106 -1077 55 -1489 -23 -189 -71 -429 -119 -595 -40 -139
-116 -358 -129 -375 -7 -8 -27 -49 -46 -90 -100 -225 -212 -419 -340 -588 -90
-120 -254 -302 -272 -302 -5 0 27 39 73 87 143 154 351 446 334 473 -8 14 16
131 25 125 5 -3 11 8 15 24 6 28 29 47 50 42 6 -2 7 1 3 5 -4 4 -2 14 5 22 9
13 9 14 0 8 -7 -4 -13 -2 -13 3 0 10 14 15 33 12 6 -1 8 4 11 36 1 6 14 23 29
38 15 15 27 37 27 48 0 11 6 28 13 36 28 33 127 317 175 506 58 225 92 421
107 630 4 50 9 104 12 120 7 44 12 433 6 483 -4 34 -10 45 -29 52 -28 11 -32
20 -5 13 11 -3 21 2 24 11 4 9 2 16 -3 16 -5 0 -7 13 -4 29 4 16 1 32 -5 35
-7 5 -11 -2 -11 -18 0 -40 -18 -40 -26 1 -4 21 -11 44 -17 51 -6 7 -6 12 -1
10 5 -2 10 0 12 5 1 4 -1 7 -4 6 -10 -1 -31 45 -23 51 7 5 -18 91 -30 100 -6
5 -11 28 -14 63 -1 9 -5 17 -10 17 -5 0 -7 9 -4 21 3 12 0 22 -9 26 -8 3 -13
10 -12 17 1 6 -4 31 -12 56 -7 25 -14 57 -15 71 -1 14 -8 36 -15 49 -7 12 -14
41 -16 64 -4 59 -11 85 -30 113 -9 14 -11 22 -4 18 8 -5 10 -2 7 11 -3 11 -9
37 -13 59 -4 22 -11 48 -15 57 -6 10 -5 19 1 23 12 7 2 35 -14 35 -6 0 -12 10
-13 23 -2 25 -10 86 -15 107 -2 8 -9 20 -17 26 -8 6 -11 18 -8 27 3 9 1 19 -4
23 -6 3 -9 15 -6 25 3 11 1 19 -4 19 -5 0 -9 11 -9 23 0 13 -6 37 -14 53 -7
16 -23 49 -34 73 -11 24 -18 49 -15 57 3 8 0 14 -6 14 -6 0 -8 6 -5 13 3 8 -2
20 -11 27 -18 15 -21 45 -2 34 6 -5 -1 9 -16 29 -15 20 -25 42 -22 47 3 6 1
10 -4 10 -6 0 -11 8 -11 18 0 10 -7 27 -15 38 -8 10 -15 27 -15 37 0 9 -4 17
-10 17 -5 0 -10 9 -10 20 0 11 -5 20 -10 20 -6 0 -13 8 -17 18 -3 9 -13 25
-21 35 -13 14 -13 17 -1 17 10 1 10 3 -2 10 -9 5 -20 22 -24 37 -3 16 -16 38
-28 51 -12 13 -21 24 -19 25 8 5 -19 57 -29 57 -6 0 -9 7 -5 15 3 8 1 15 -4
15 -6 0 -10 7 -10 15 0 8 -5 15 -11 15 -5 0 -8 4 -4 9 3 5 0 13 -6 16 -5 4 -8
13 -5 20 2 7 -1 16 -9 19 -7 2 -19 21 -26 40 -7 20 -19 36 -27 36 -7 0 -10 5
-7 11 4 6 0 16 -8 22 -8 7 -17 21 -19 32 -2 11 -10 19 -17 17 -8 -2 -11 3 -8
11 5 14 -44 84 -70 100 -7 4 -13 15 -13 23 0 8 -7 17 -15 20 -8 4 -15 15 -15
25 0 10 -4 19 -8 19 -5 0 -17 7 -28 16 -10 8 -12 12 -4 8 16 -7 16 -8 -55 68
-21 23 -32 44 -29 53 4 8 1 15 -6 15 -14 0 -76 61 -72 72 1 4 -7 8 -18 8 -18
0 -25 10 -21 33 0 4 -8 7 -19 7 -18 0 -21 4 -19 28 0 4 -10 10 -23 13 -14 3
-22 12 -21 23 0 11 -4 15 -12 12 -17 -6 -39 19 -30 34 3 5 -2 10 -13 10 -11 0
-35 15 -54 33 -18 17 -45 38 -60 46 -15 8 -30 22 -34 33 -3 10 -10 18 -15 18
-6 0 -8 4 -5 9 3 4 -6 13 -19 19 -14 7 -25 16 -25 21 0 5 -13 14 -30 21 -16 7
-30 16 -30 21 0 5 -7 9 -15 9 -8 0 -19 9 -25 20 -6 11 -15 20 -21 20 -13 0
-92 52 -102 67 -4 7 -15 13 -23 13 -9 0 -28 9 -44 20 -15 11 -37 21 -48 23
-12 2 -29 10 -39 19 -10 9 -29 19 -43 23 -14 4 -34 15 -44 24 -18 15 -18 15
-7 -7 11 -22 11 -22 -8 -10 -12 7 -21 16 -21 20 0 5 -6 8 -13 8 -8 0 -22 9
-32 20 -10 11 -20 18 -22 16 -3 -2 -16 2 -30 9 -23 12 -28 12 -38 -2 -11 -14
-12 -14 -18 1 -4 9 -16 16 -27 16 -11 0 -20 3 -20 8 0 4 -11 8 -25 8 -14 1
-33 5 -43 9 -9 4 -30 9 -47 12 -54 7 -64 9 -71 15 -3 4 -17 3 -29 -2 -18 -7
-30 -4 -47 9 -18 14 -45 19 -123 21 -274 8 -419 3 -458 -17 -15 -8 -32 -11
-37 -8 -6 3 -10 2 -10 -3 0 -5 -18 -10 -40 -10 -22 0 -45 -4 -50 -7 -6 -4 -19
-1 -28 7 -15 11 -16 11 -4 -3 10 -14 10 -18 -2 -22 -9 -4 -18 -1 -22 5 -5 7
-11 5 -20 -7 -10 -13 -23 -16 -57 -13 -38 4 -44 2 -39 -11 5 -14 4 -14 -11 -2
-16 12 -17 12 -10 -5 6 -17 5 -17 -10 -5 -19 15 -48 8 -45 -11 2 -8 -5 -12
-16 -10 -11 2 -15 -1 -11 -8 4 -7 -2 -9 -22 -5 -15 3 -22 2 -15 -1 6 -3 12
-10 12 -15 0 -6 -4 -8 -9 -4 -5 3 -12 1 -15 -4 -3 -5 -16 -7 -28 -3 -16 4 -19
2 -14 -9 4 -8 1 -6 -7 4 -11 14 -17 15 -23 6 -4 -7 -2 -15 4 -17 13 -4 17 -23
5 -20 -16 4 -103 -13 -108 -22 -3 -4 4 -6 15 -3 11 3 20 1 20 -4 0 -5 -12 -10
-27 -11 -15 -1 -29 -6 -32 -10 -14 -18 -63 -42 -74 -35 -9 5 -9 3 1 -9 10 -13
10 -17 -5 -23 -10 -5 -22 -7 -27 -6 -4 1 -26 -16 -47 -38 -27 -29 -43 -39 -55
-34 -11 4 -15 3 -11 -4 13 -20 -3 -41 -25 -35 -17 4 -20 2 -15 -12 5 -12 -1
-19 -19 -26 -14 -6 -23 -14 -19 -19 3 -5 0 -13 -6 -17 -7 -4 -9 -3 -5 4 3 6 2
13 -4 17 -11 7 -31 -35 -22 -49 3 -5 0 -6 -7 -2 -6 4 -9 12 -6 17 3 5 -1 6 -9
3 -14 -5 -21 -30 -17 -56 0 -4 -14 -14 -33 -22 -34 -14 -61 -47 -49 -59 3 -4
-6 -12 -21 -18 -14 -7 -26 -18 -26 -26 0 -7 -4 -13 -10 -13 -5 0 -10 -8 -10
-19 0 -10 -9 -21 -20 -24 -11 -3 -20 -12 -20 -21 0 -9 -4 -16 -10 -16 -5 0
-10 -6 -10 -12 0 -7 -16 -28 -34 -46 -22 -22 -33 -39 -29 -49 4 -11 2 -14 -5
-9 -6 3 -16 -2 -22 -13 -9 -18 -8 -20 7 -15 15 5 15 3 -2 -10 -11 -9 -25 -14
-33 -11 -7 2 -11 1 -7 -4 8 -14 -6 -42 -17 -35 -6 4 -6 -1 1 -13 12 -24 6 -34
-17 -26 -13 3 -13 1 2 -11 18 -15 18 -16 2 -16 -10 0 -14 -4 -10 -12 5 -7 2
-9 -8 -6 -11 5 -14 0 -10 -18 4 -20 1 -23 -14 -17 -16 6 -17 4 -6 -9 10 -12 9
-18 -3 -28 -8 -7 -15 -18 -15 -25 0 -7 -7 -15 -15 -18 -8 -4 -12 -15 -10 -27
2 -11 0 -18 -6 -15 -5 4 -9 -6 -9 -20 0 -15 -4 -24 -10 -20 -9 5 -15 -15 -11
-37 0 -5 -4 -8 -10 -8 -5 0 -8 -4 -4 -9 3 -5 -1 -16 -9 -24 -8 -8 -13 -17 -10
-20 8 -8 -27 -107 -38 -107 -5 0 -8 -6 -6 -12 1 -7 -3 -22 -9 -33 -5 -11 -9
-30 -8 -43 1 -15 -3 -21 -11 -18 -7 3 -11 -2 -10 -12 2 -9 -4 -23 -11 -31 -8
-8 -12 -23 -10 -33 4 -14 1 -18 -9 -14 -10 4 -14 -2 -14 -19 0 -13 -4 -26 -10
-30 -5 -3 -7 -12 -3 -20 3 -8 0 -15 -6 -15 -9 0 -9 -5 0 -21 10 -19 9 -20 -13
-14 -20 5 -20 4 -5 -5 16 -10 16 -13 2 -27 -9 -9 -14 -22 -11 -29 3 -8 2 -14
-3 -14 -13 0 -21 -40 -8 -41 7 0 3 -4 -8 -8 -11 -4 -20 -14 -21 -22 0 -8 -2
-29 -2 -47 -1 -20 -6 -31 -12 -27 -7 4 -9 -2 -4 -19 4 -16 2 -26 -5 -26 -6 0
-11 -10 -11 -22 0 -13 -4 -30 -10 -38 -5 -9 -5 -19 2 -27 7 -9 7 -13 -1 -13
-8 0 -10 -11 -6 -33 4 -18 1 -46 -6 -62 -11 -29 -20 -73 -21 -105 -1 -8 -5
-20 -10 -27 -5 -7 -5 -14 1 -17 11 -7 3 -37 -13 -48 -8 -5 -7 -8 1 -8 7 0 10
-14 6 -42 -2 -24 -6 -44 -8 -46 -2 -2 0 -15 6 -29 5 -13 5 -22 1 -19 -12 7
-30 -7 -34 -28 -1 -10 3 -21 11 -24 10 -3 12 0 8 12 -4 10 -3 15 3 11 6 -3 10
-15 10 -25 0 -14 -5 -18 -16 -13 -14 5 -15 3 -4 -16 12 -24 6 -56 -8 -47 -5 3
-7 -7 -3 -22 5 -27 5 -27 9 -3 3 18 6 21 12 11 5 -8 4 -22 -1 -33 -6 -10 -8
-26 -5 -34 6 -14 4 -14 -10 -2 -13 10 -12 5 4 -25 12 -22 19 -43 16 -48 -10
-15 -13 -88 -4 -88 5 0 5 -14 0 -31 -5 -18 -7 -36 -4 -41 6 -10 15 -123 14
-168 -3 -70 -6 -88 -12 -83 -17 10 -6 -10 14 -28 19 -16 20 -18 4 -12 -16 5
-18 2 -14 -21 3 -14 1 -29 -4 -32 -6 -4 -5 -10 3 -15 12 -8 11 -11 -1 -19 -9
-6 -11 -13 -5 -17 12 -9 18 -30 17 -55 0 -10 6 -18 15 -18 11 0 13 -4 5 -12
-5 -7 -8 -28 -6 -45 2 -18 -1 -33 -6 -33 -6 0 -10 -5 -10 -11 0 -5 4 -8 9 -4
5 3 12 1 16 -5 3 -5 1 -10 -4 -10 -6 0 -11 -4 -11 -10 0 -5 7 -7 15 -4 8 4 15
1 15 -5 0 -6 -5 -11 -10 -11 -12 0 -8 -37 10 -118 6 -29 9 -60 6 -69 -4 -10
-2 -14 7 -10 14 5 17 -30 4 -50 -4 -6 -2 -15 4 -18 5 -4 8 -13 5 -21 -3 -8 -1
-14 4 -14 5 0 12 -16 16 -36 4 -19 13 -38 21 -41 10 -4 11 -9 2 -19 -6 -7 -8
-23 -4 -35 4 -12 8 -28 9 -36 1 -8 8 -18 15 -23 10 -6 11 -9 1 -15 -9 -6 -6
-13 11 -27 16 -13 20 -21 12 -25 -15 -5 -18 -33 -4 -33 5 0 11 3 14 8 2 4 3 2
1 -4 -1 -6 3 -17 9 -23 8 -8 8 -11 -1 -11 -7 0 -12 5 -12 12 0 6 -3 8 -6 5 -4
-4 -2 -13 4 -20 7 -8 8 -18 4 -22 -4 -5 -2 -5 4 -2 15 9 24 -15 17 -45 -3 -17
-2 -19 5 -9 8 11 12 10 21 -8 7 -12 9 -26 5 -32 -3 -6 3 -19 15 -30 12 -11 19
-25 15 -30 -3 -5 0 -16 6 -24 7 -8 10 -21 7 -29 -3 -8 1 -17 8 -20 8 -3 12
-12 9 -21 -3 -8 -1 -15 6 -15 6 0 8 -5 5 -10 -4 -6 -12 -7 -18 -3 -7 4 3 -8
21 -26 18 -19 31 -40 28 -47 -3 -8 -1 -14 4 -14 4 0 11 -15 15 -32 4 -18 14
-44 23 -58 18 -29 23 -70 10 -87 -7 -8 -3 -10 13 -6 19 5 21 3 17 -15 -4 -15
-2 -22 8 -22 8 0 15 -4 15 -10 1 -5 2 -14 3 -19 0 -5 4 -13 9 -17 12 -12 8
-56 -5 -48 -7 4 -8 3 -4 -5 6 -9 12 -9 24 1 10 7 14 8 10 4 -4 -5 -2 -16 5
-24 9 -13 9 -14 0 -8 -16 9 -17 -6 -2 -21 6 -6 12 -23 14 -38 1 -15 10 -32 19
-37 9 -5 14 -13 11 -18 -7 -11 15 -60 27 -60 5 0 6 -10 3 -21 -5 -16 -4 -19 6
-14 9 6 11 4 6 -8 -4 -10 1 -18 14 -22 21 -7 24 -16 9 -31 -6 -6 -6 -15 0 -24
7 -10 10 -11 10 -2 0 6 5 12 12 12 6 0 8 -3 5 -7 -4 -3 0 -14 9 -24 9 -10 14
-25 10 -34 -3 -9 -2 -13 3 -10 15 9 33 -35 33 -78 -1 -15 2 -16 14 -6 13 10
17 10 25 -2 5 -8 7 -20 4 -27 -3 -7 -1 -11 4 -8 12 8 34 -21 26 -34 -3 -5 1
-10 9 -10 8 0 16 -10 18 -22 2 -13 10 -23 18 -23 8 0 14 -8 14 -17 -1 -10 8
-19 22 -22 13 -4 24 -11 24 -17 0 -6 -6 -7 -12 -4 -7 4 -4 -1 6 -9 11 -9 26
-16 33 -16 7 0 13 -5 13 -11 0 -5 4 -8 10 -4 5 3 17 -7 27 -21 12 -18 14 -29
6 -31 -6 -2 -9 -13 -6 -23 7 -25 23 -26 18 -2 -2 10 1 25 7 33 8 12 9 12 5 -1
-2 -8 3 -24 12 -34 9 -11 10 -16 4 -12 -8 4 -13 2 -13 -6 0 -16 61 -73 74 -69
19 5 57 -23 51 -37 -3 -10 0 -12 10 -8 8 3 15 1 15 -4 0 -5 20 -21 45 -36 25
-14 45 -30 45 -35 0 -5 7 -9 15 -9 8 0 15 -4 15 -9 0 -5 12 -12 28 -14 15 -2
0 -5 -34 -6 -33 0 -81 6 -107 15 -25 8 -58 14 -73 12 -26 -3 -21 -10 101 -133
72 -72 178 -168 238 -214 59 -46 107 -86 107 -88 0 -7 -54 33 -174 127 -154
121 -179 139 -193 140 -7 0 -13 7 -13 15 0 9 -53 76 -119 149 -148 166 -225
263 -311 391 -258 385 -442 766 -580 1200 -106 334 -187 776 -209 1142 -38
618 38 1181 234 1728 53 149 207 465 294 604 146 236 365 488 552 639 269 217
597 361 944 417 134 21 446 14 590 -15z m-975 -224 c0 -11 -19 -15 -25 -6 -3
5 1 10 9 10 9 0 16 -2 16 -4z m1497 -92 c-3 -3 -12 -4 -19 -1 -8 3 -5 6 6 6
11 1 17 -2 13 -5z m160 -80 c-3 -3 -12 -4 -19 -1 -8 3 -5 6 6 6 11 1 17 -2 13
-5z m120 -80 c-3 -3 -12 -4 -19 -1 -8 3 -5 6 6 6 11 1 17 -2 13 -5z m-2502
-264 c-3 -5 -12 -10 -18 -10 -7 0 -6 4 3 10 19 12 23 12 15 0z m1968 -227 c-7
-2 -19 -2 -25 0 -7 3 -2 5 12 5 14 0 19 -2 13 -5z m-3033 -413 c0 -5 -5 -10
-11 -10 -5 0 -7 5 -4 10 3 6 8 10 11 10 2 0 4 -4 4 -10z m1000 -233 c0 -2 -16
-19 -37 -38 -37 -35 -37 -23 0 19 18 19 37 29 37 19z m-89 -84 c-5 -10 -22
-29 -37 -43 -30 -26 -20 -8 20 38 23 26 30 28 17 5z m2259 -19 c-14 -2 -65 -9
-115 -15 -335 -42 -719 -321 -967 -704 -62 -95 -79 -111 -26 -23 53 88 164
232 245 318 249 264 570 428 838 427 28 0 39 -1 25 -3z m103 -11 c-13 -2 -35
-2 -50 0 -16 2 -5 4 22 4 28 0 40 -2 28 -4z m165 -48 c39 -19 72 -37 72 -40 0
-3 -19 4 -42 16 -24 12 -72 33 -108 46 -41 16 -52 22 -30 19 19 -4 68 -22 108
-41z m172 -120 c19 -19 32 -35 29 -35 -3 0 -20 16 -39 35 -19 19 -32 35 -29
35 3 0 20 -16 39 -35z m970 -165 c6 -11 8 -20 6 -20 -3 0 -10 9 -16 20 -6 11
-8 20 -6 20 3 0 10 -9 16 -20z m60 -135 c0 -5 -5 -3 -10 5 -5 8 -10 20 -10 25
0 6 5 3 10 -5 5 -8 10 -19 10 -25z m-4029 -2 c-12 -20 -14 -14 -5 12 4 9 9 14
11 11 3 -2 0 -13 -6 -23z m2439 -183 c0 -5 9 -10 21 -10 51 0 169 -170 187
-270 9 -49 -7 -171 -32 -237 -54 -146 -71 -186 -109 -252 -48 -85 -161 -205
-227 -243 -52 -29 -115 -31 -135 -4 -19 25 -27 96 -16 134 5 17 8 32 6 32 -2
0 -22 -33 -44 -74 -22 -41 -44 -77 -48 -79 -5 -3 -21 -3 -36 0 -27 5 -28 8
-21 42 4 20 8 52 9 71 1 19 14 60 28 91 34 74 53 130 68 206 8 46 17 64 30 68
26 8 24 13 -17 65 l-37 45 7 -38 c9 -51 1 -73 -34 -87 -18 -7 -30 -20 -30 -31
0 -23 -21 -69 -31 -69 -27 0 -39 15 -39 50 0 67 -34 64 -69 -5 -20 -40 -24
-43 -49 -36 -15 4 -32 6 -38 4 -16 -5 -54 49 -54 76 0 15 6 21 21 21 13 0 18
-4 14 -12 -4 -7 -1 -6 7 3 7 9 19 14 27 11 9 -3 11 1 6 17 -9 31 12 91 31 84
8 -3 14 1 14 10 0 8 11 18 25 21 14 4 25 13 25 21 0 8 5 15 11 15 13 0 99 89
99 102 0 14 40 68 49 68 5 0 6 -24 3 -52 l-5 -53 26 25 c17 17 27 41 32 75 4
28 9 58 12 68 6 22 23 12 23 -13 0 -32 22 -122 28 -116 8 8 42 -25 42 -41 0
-16 -14 -17 -42 -2 -20 11 -21 9 -15 -29 3 -23 15 -56 28 -73 12 -18 25 -48
28 -67 5 -31 11 -37 49 -50 61 -20 78 -50 62 -108 -7 -25 -22 -56 -32 -70 -11
-13 -18 -29 -16 -35 5 -16 84 119 97 166 18 65 14 160 -9 207 -24 51 -25 80
-3 147 18 56 28 61 67 30 74 -58 118 -254 80 -353 -5 -12 -4 -17 3 -13 5 4 23
40 38 82 24 66 26 84 20 143 -9 83 -48 163 -108 221 -42 41 -71 90 -44 75 8
-5 7 -2 0 7 -17 18 -16 29 2 29 8 0 15 -4 15 -10z m-2477 -25 c-7 -21 -13 -19
-13 6 0 11 4 18 10 14 5 -3 7 -12 3 -20z m6557 -57 c0 -6 -6 -5 -15 2 -8 7
-15 14 -15 16 0 2 7 1 15 -2 8 -4 15 -11 15 -16z m33 3 c-3 -13 2 -21 16 -26
12 -3 19 -11 16 -16 -8 -12 -43 11 -48 33 -3 9 0 19 7 22 6 2 12 5 13 5 0 1
-1 -8 -4 -18z m55 -5 c-7 -8 -17 -12 -22 -9 -4 3 -2 9 5 14 22 13 31 11 17 -5z
m-6661 -53 c-3 -10 -5 -4 -5 12 0 17 2 24 5 18 2 -7 2 -21 0 -30z m6703 15 c0
-6 -3 -8 -7 -5 -3 4 -13 1 -22 -6 -14 -11 -14 -10 -2 6 15 20 31 22 31 5z
m-133 -5 c-4 -3 1 -16 10 -27 18 -21 18 -21 -3 -3 -11 9 -25 14 -29 10 -5 -5
-3 0 4 10 7 9 16 17 19 17 3 0 2 -3 -1 -7z m-6553 -49 c3 -8 2 -12 -4 -9 -6 3
-10 10 -10 16 0 14 7 11 14 -7z m6507 -87 c-13 -13 -26 -3 -16 12 3 6 11 8 17
5 6 -4 6 -10 -1 -17z m-11 -27 c0 -5 -2 -10 -4 -10 -3 0 -8 5 -11 10 -3 6 -1
10 4 10 6 0 11 -4 11 -10z m-6440 -35 c0 -5 -5 -3 -10 5 -5 8 -10 20 -10 25 0
6 5 3 10 -5 5 -8 10 -19 10 -25z m480 -3 c0 -48 -23 -128 -59 -201 -14 -31
-33 -75 -40 -98 -8 -25 -22 -45 -33 -49 -25 -8 -41 -50 -28 -74 16 -29 14 -72
-4 -114 -9 -22 -15 -45 -12 -52 3 -7 -1 -14 -7 -17 -7 -2 -18 -22 -26 -43 -7
-22 -28 -61 -46 -89 -30 -47 -62 -101 -142 -243 -18 -31 -32 -63 -33 -71 0 -8
-14 -52 -30 -97 -29 -76 -30 -85 -17 -116 8 -18 27 -48 43 -67 l28 -34 -41 29
c-51 35 -68 73 -67 141 2 59 56 178 164 358 124 206 134 238 133 433 -1 87 2
152 8 152 5 0 9 -16 9 -35 0 -19 5 -35 10 -35 6 0 10 13 10 28 0 54 39 244 55
268 17 26 79 63 108 64 13 0 17 -8 17 -38z m6195 28 c3 -6 -4 -10 -17 -10 -18
0 -20 2 -8 10 19 12 18 12 25 0z m-6641 -90 c14 -27 24 -50 22 -50 -6 0 -56
84 -56 93 0 16 10 4 34 -43z m627 -180 c-7 -3 -13 -20 -14 -36 -1 -16 -7 -33
-13 -39 -7 -5 -26 -37 -44 -70 -18 -33 -41 -71 -51 -84 -11 -13 -19 -32 -19
-42 0 -10 -4 -20 -9 -23 -5 -3 -11 -16 -14 -28 -3 -13 -22 -68 -42 -123 -20
-55 -40 -120 -45 -145 -4 -25 -17 -68 -28 -96 -31 -78 -23 -162 20 -219 18
-24 43 -48 56 -54 12 -6 22 -14 22 -19 0 -4 14 -23 32 -42 47 -51 156 -348
119 -326 -5 3 -15 30 -21 58 -15 63 -52 164 -81 219 -18 37 -80 81 -94 67 -5
-4 -8 -27 -19 -120 -6 -55 -38 -108 -84 -138 -25 -17 -39 -30 -32 -30 9 0 7
-7 -6 -22 -10 -12 -13 -18 -6 -14 15 9 17 -20 2 -29 -5 -3 -10 -1 -10 5 0 6
-4 9 -8 6 -5 -3 -9 -22 -10 -42 -3 -66 -20 -61 -27 7 -5 47 11 167 24 184 5 5
11 24 14 42 3 17 21 55 38 83 47 76 49 128 10 217 -17 39 -31 78 -31 87 0 8
-7 41 -15 73 -22 83 -19 110 20 190 19 40 35 75 35 79 0 3 6 20 14 37 7 18 18
43 23 57 6 14 31 50 55 80 25 31 57 78 71 105 42 81 100 150 126 150 12 0 28
9 34 20 11 19 11 19 15 1 2 -10 -1 -22 -7 -26z m1172 -99 c5 0 7 -9 5 -18 -1
-10 1 -24 6 -32 7 -10 6 -12 -4 -6 -10 6 -11 4 -4 -6 20 -32 20 -90 1 -126
-10 -18 -17 -35 -17 -38 1 -23 -2 -25 -15 -11 -28 28 -64 166 -43 166 5 0 6 5
3 10 -4 6 -4 24 0 40 6 29 8 30 68 21z m128 -248 c-12 -20 -14 -14 -5 12 4 9
9 14 11 11 3 -2 0 -13 -6 -23z m4299 -348 c0 -8 -4 -15 -10 -15 -5 0 -7 7 -4
15 4 8 8 15 10 15 2 0 4 -7 4 -15z m-8127 -49 c4 -10 0 -14 -12 -13 -11 1 -17
7 -14 14 7 17 20 17 26 -1z m2012 -149 c-4 -14 -18 -35 -31 -48 -21 -20 -26
-21 -39 -8 -24 25 -21 37 20 68 43 32 60 29 50 -12z m-2215 -351 c0 -2 -7 -9
-15 -16 -13 -11 -14 -10 -9 4 5 14 24 23 24 12z m-35 -36 c3 -5 1 -10 -4 -10
-6 0 -11 5 -11 10 0 6 2 10 4 10 3 0 8 -4 11 -10z m2577 -120 c-12 -11 -26
-20 -31 -20 -6 0 -20 -13 -33 -30 -12 -16 -27 -30 -34 -30 -7 0 -17 -6 -21
-13 -4 -7 -20 -20 -35 -30 -25 -15 -27 -15 -30 0 -7 36 130 140 186 142 19 1
19 0 -2 -19z m-150 -237 c4 -64 -3 -79 -22 -44 -11 22 -14 114 -3 125 12 12
20 -17 25 -81z m-2508 -15 c-3 -4 -9 -8 -15 -8 -5 0 -9 4 -9 8 0 5 7 9 15 9 8
0 12 -4 9 -9z m2729 -105 c7 -39 -2 -91 -23 -138 -48 -102 -48 -104 -29 -198
29 -142 81 -206 202 -248 29 -10 42 -18 31 -19 -12 0 -58 18 -103 41 -69 34
-87 49 -116 92 -19 29 -41 75 -50 102 -17 57 -19 160 -5 223 12 51 0 79 -54
131 -45 43 -46 57 -3 31 40 -25 47 -25 47 0 0 18 10 25 33 21 4 0 7 4 7 9 0
23 58 -20 63 -47z m5552 17 c-3 -5 -12 -10 -18 -10 -7 0 -6 4 3 10 19 12 23
12 15 0z m-8340 -74 c-23 -16 -65 -30 -65 -22 0 6 59 34 75 35 5 1 1 -5 -10
-13z m-35 -128 c0 -4 -4 -8 -9 -8 -6 0 -12 4 -15 8 -3 5 1 9 9 9 8 0 15 -4 15
-9z m-289 -225 c2 1 -2 -4 -10 -10 -8 -7 -20 -13 -25 -13 -6 0 -5 4 3 9 8 5
10 14 5 22 -6 11 -5 12 8 2 8 -7 17 -12 19 -10z m84 -4 c-4 -6 -1 -10 6 -8 8
1 25 0 39 -1 l25 -2 -25 -7 c-15 -4 -24 -14 -24 -24 1 -9 -3 -14 -8 -11 -5 3
-7 12 -4 20 3 8 -1 14 -9 14 -16 0 -20 12 -8 23 10 11 15 8 8 -4z m-18 -49 c1
-16 -1 -17 -12 -7 -11 10 -8 19 10 27 1 0 1 -9 2 -20z m33 -50 c0 -5 -2 -10
-4 -10 -3 0 -8 5 -11 10 -3 6 -1 10 4 10 6 0 11 -4 11 -10z m8385 -28 c-3 -3
-11 0 -18 7 -9 10 -8 11 6 5 10 -3 15 -9 12 -12z m-8350 -2 c3 -5 2 -10 -4
-10 -5 0 -13 5 -16 10 -3 6 -2 10 4 10 5 0 13 -4 16 -10z m-271 -51 c-2 -4 1
-9 8 -11 8 -3 8 -9 -1 -24 -8 -12 -11 -13 -8 -3 7 21 -11 39 -32 32 -12 -4
-13 -2 -3 4 15 11 43 13 36 2z m120 -5 c3 -8 2 -12 -4 -9 -6 3 -10 10 -10 16
0 14 7 11 14 -7z m-31 -27 c3 -8 -3 -14 -15 -14 -16 -2 -17 1 -8 13 15 17 17
17 23 1z m-53 -39 c0 -18 -2 -20 -9 -8 -6 8 -7 18 -5 22 9 14 14 9 14 -14z
m27 -8 c-1 -11 -5 -20 -9 -20 -3 0 -6 9 -5 20 1 11 5 20 9 20 3 0 6 -9 5 -20z
m53 -10 c-7 -12 -6 -20 0 -23 6 -3 5 -4 -2 -3 -7 2 -22 -1 -33 -6 -16 -7 -16
-5 3 8 12 9 22 25 22 36 0 10 5 16 10 13 7 -4 7 -12 0 -25z m-120 6 c0 -3 -4
-8 -10 -11 -5 -3 -10 -1 -10 4 0 6 5 11 10 11 6 0 10 -2 10 -4z m135 -66 c3
-5 1 -10 -4 -10 -6 0 -11 5 -11 10 0 6 2 10 4 10 3 0 8 -4 11 -10z m-137 -44
c1 -19 -2 -38 -7 -40 -4 -3 -8 15 -8 39 0 52 13 53 15 1z m-1 -126 c-1 -12 -5
-16 -10 -11 -5 5 -6 14 -3 20 11 16 15 13 13 -9z m6 -61 c-4 -15 -8 -17 -14
-8 -6 11 4 28 18 29 0 0 -1 -9 -4 -21z m-19 -51 c-3 -4 -9 -8 -15 -8 -5 0 -9
4 -9 8 0 5 7 9 15 9 8 0 12 -4 9 -9z m26 -12 c0 -3 -4 -8 -10 -11 -5 -3 -10
-1 -10 4 0 6 5 11 10 11 6 0 10 -2 10 -4z m4290 -150 c0 -2 -8 -10 -17 -17
-16 -13 -17 -12 -4 4 13 16 21 21 21 13z m-931 -50 c9 -11 9 -16 -1 -22 -7 -4
-10 -4 -6 1 4 4 3 14 -3 22 -6 7 -9 13 -6 13 2 0 10 -6 16 -14z m788 -62 c-3
-3 -12 -4 -19 -1 -8 3 -5 6 6 6 11 1 17 -2 13 -5z m-467 -104 c-14 -4 -34 -8
-45 -8 -16 0 -15 2 5 8 14 4 34 8 45 8 16 0 15 -2 -5 -8z m4402 -12 c-9 -9
-15 -9 -24 0 -9 9 -7 12 12 12 19 0 21 -3 12 -12z m-132 -178 c0 -5 -2 -10 -4
-10 -3 0 -8 5 -11 10 -3 6 -1 10 4 10 6 0 11 -4 11 -10z m-4763 -6 c-3 -3 -12
-4 -19 -1 -8 3 -5 6 6 6 11 1 17 -2 13 -5z m4324 -11 c13 -16 12 -17 -3 -4
-10 7 -18 15 -18 17 0 8 8 3 21 -13z m53 -63 l21 -25 -27 24 c-16 14 -28 32
-27 40 0 14 1 14 6 1 3 -8 15 -26 27 -40z m-4814 -64 c0 -2 -7 -7 -16 -10 -8
-3 -12 -2 -9 4 6 10 25 14 25 6z m-160 -80 c0 -2 -7 -7 -16 -10 -8 -3 -12 -2
-9 4 6 10 25 14 25 6z m-71 -39 c-2 -1 -13 -9 -24 -17 -19 -14 -19 -14 -6 3 7
9 18 17 24 17 6 0 8 -1 6 -3z m-139 -92 c-7 -8 -18 -15 -24 -15 -6 0 -2 7 8
15 25 19 32 19 16 0z m-172 -90 c-1 -14 -6 -25 -10 -25 -4 0 -8 -4 -8 -10 0
-5 9 -10 20 -10 22 0 70 -27 70 -40 0 -7 -151 -1 -159 6 -2 2 4 10 13 19 9 9
28 32 42 51 31 41 34 42 32 9z"/>
<path d="M4818 7303 c7 -3 16 -2 19 1 4 3 -2 6 -13 5 -11 0 -14 -3 -6 -6z"/>
<path d="M5165 7260 c3 -5 8 -10 11 -10 2 0 4 5 4 10 0 6 -5 10 -11 10 -5 0
-7 -4 -4 -10z"/>
<path d="M3510 6715 c-7 -9 -8 -15 -2 -15 5 0 12 7 16 15 3 8 4 15 2 15 -2 0
-9 -7 -16 -15z"/>
<path d="M2751 5244 c0 -11 3 -14 6 -6 3 7 2 16 -1 19 -3 4 -6 -2 -5 -13z"/>
<path d="M2710 5050 c0 -5 5 -10 11 -10 5 0 7 5 4 10 -3 6 -8 10 -11 10 -2 0
-4 -4 -4 -10z"/>
<path d="M2646 4532 c-3 -6 -1 -14 5 -17 14 -9 20 -2 10 14 -6 8 -11 9 -15 3z"/>
<path d="M7655 3910 c3 -5 8 -10 11 -10 2 0 4 5 4 10 0 6 -5 10 -11 10 -5 0
-7 -4 -4 -10z"/>
<path d="M3055 2490 c3 -5 8 -10 11 -10 2 0 4 5 4 10 0 6 -5 10 -11 10 -5 0
-7 -4 -4 -10z"/>
<path d="M3326 1877 c3 -10 9 -15 12 -12 3 3 0 11 -7 18 -10 9 -11 8 -5 -6z"/>
<path d="M3589 1588 c-8 -32 -7 -48 3 -48 6 0 8 3 5 7 -4 3 -2 12 4 19 7 8 7
14 -1 19 -5 3 -10 5 -11 3z"/>
<path d="M5101 4704 c0 -11 3 -14 6 -6 3 7 2 16 -1 19 -3 4 -6 -2 -5 -13z"/>
<path d="M5213 4265 c-9 -25 4 -29 17 -6 7 15 7 21 0 21 -6 0 -13 -7 -17 -15z"/>
<path d="M4836 4311 c-3 -5 1 -14 8 -20 12 -10 13 -8 9 8 -6 23 -9 25 -17 12z"/>
<path d="M4420 7710 c0 -5 5 -10 11 -10 5 0 7 5 4 10 -3 6 -8 10 -11 10 -2 0
-4 -4 -4 -10z"/>
<path d="M1671 4904 c0 -11 3 -14 6 -6 3 7 2 16 -1 19 -3 4 -6 -2 -5 -13z"/>
<path d="M9570 4821 c0 -5 5 -13 10 -16 6 -3 10 -2 10 4 0 5 -4 13 -10 16 -5
3 -10 2 -10 -4z"/>
<path d="M9515 4620 c-3 -5 -1 -10 4 -10 6 0 11 5 11 10 0 6 -2 10 -4 10 -3 0
-8 -4 -11 -10z"/>
<path d="M9390 4290 c0 -5 5 -10 11 -10 5 0 7 5 4 10 -3 6 -8 10 -11 10 -2 0
-4 -4 -4 -10z"/>
<path d="M9812 4265 c0 -16 2 -22 5 -12 2 9 2 23 0 30 -3 6 -5 -1 -5 -18z"/>
<path d="M9400 4150 c0 -5 5 -10 11 -10 5 0 7 5 4 10 -3 6 -8 10 -11 10 -2 0
-4 -4 -4 -10z"/>
<path d="M1236 3944 c-15 -14 -14 -34 1 -34 4 0 3 3 0 7 -4 3 0 15 10 25 20
22 11 24 -11 2z"/>
<path d="M9330 3829 c0 -5 5 -7 10 -4 6 3 10 8 10 11 0 2 -4 4 -10 4 -5 0 -10
-5 -10 -11z"/>
<path d="M9356 3813 c-6 -14 -5 -15 5 -6 7 7 10 15 7 18 -3 3 -9 -2 -12 -12z"/>
<path d="M9241 3197 c-15 -19 -2 -81 15 -64 3 3 1 14 -4 23 -7 12 -7 25 -1 36
11 21 6 24 -10 5z"/>
<path d="M899 3148 c0 -2 -2 -15 -4 -30 -5 -35 11 -46 17 -13 3 14 1 25 -4 25
-5 0 -6 5 -3 10 3 6 4 10 1 10 -3 0 -6 -1 -7 -2z"/>
<path d="M9215 2980 c3 -5 8 -10 11 -10 2 0 4 5 4 10 0 6 -5 10 -11 10 -5 0
-7 -4 -4 -10z"/>
<path d="M810 2896 c0 -2 7 -7 16 -10 8 -3 12 -2 9 4 -6 10 -25 14 -25 6z"/>
<path d="M763 2759 c3 -9 0 -22 -6 -28 -8 -8 -8 -11 1 -11 19 0 27 30 12 43
-10 9 -12 9 -7 -4z"/>
<path d="M747 2688 c-4 -12 -4 -24 -2 -27 3 -2 5 1 5 8 0 7 5 9 12 5 8 -5 9
-2 5 10 -4 9 -3 15 1 12 4 -2 14 -1 22 5 11 6 9 9 -11 9 -19 0 -28 -6 -32 -22z"/>
<path d="M687 2621 c-17 -6 -17 -9 -4 -19 12 -10 16 -9 20 8 3 11 4 20 4 19
-1 0 -10 -4 -20 -8z"/>
<path d="M620 2486 c0 -2 7 -7 16 -10 8 -3 12 -2 9 4 -6 10 -25 14 -25 6z"/>
<path d="M606 2458 c3 -5 10 -6 15 -3 13 9 11 12 -6 12 -8 0 -12 -4 -9 -9z"/>
<path d="M588 2393 c7 -3 16 -2 19 1 4 3 -2 6 -13 5 -11 0 -14 -3 -6 -6z"/>
<path d="M585 2339 c0 -18 5 -27 15 -26 21 1 22 44 1 50 -12 3 -16 -3 -16 -24z"/>
<path d="M350 2340 c0 -5 5 -10 11 -10 5 0 7 5 4 10 -3 6 -8 10 -11 10 -2 0
-4 -4 -4 -10z"/>
<path d="M341 2214 c0 -11 3 -14 6 -6 3 7 2 16 -1 19 -3 4 -6 -2 -5 -13z"/>
</g>
</svg>
