<?xml version="1.0" standalone="no"?>
<!DOCTYPE svg PUBLIC "-//W3C//DTD SVG 20010904//EN"
 "http://www.w3.org/TR/2001/REC-SVG-20010904/DTD/svg10.dtd">
<svg version="1.0" xmlns="http://www.w3.org/2000/svg"
 width="500.000000pt" height="217.000000pt" viewBox="0 0 500.000000 217.000000"
 preserveAspectRatio="xMidYMid meet">

<g transform="translate(0.000000,217.000000) scale(0.100000,-0.100000)"
fill="#000000" stroke="none">
<path d="M1178 2141 l-23 -19 3 -1029 c2 -565 6 -1035 8 -1044 6 -21 33 -29
60 -18 21 7 21 10 28 1031 5 692 4 1032 -3 1050 -15 41 -44 52 -73 29z"/>
<path d="M4332 2098 c-17 -17 -17 -1999 0 -2016 19 -19 66 -15 78 7 7 13 10
344 10 1001 0 657 -3 988 -10 1001 -12 22 -59 26 -78 7z"/>
<path d="M3478 2049 c-17 -9 -18 -66 -18 -957 0 -724 3 -951 12 -960 16 -16
53 -15 66 0 6 9 11 336 13 954 3 787 2 944 -10 957 -15 19 -38 21 -63 6z"/>
<path d="M1459 1963 c-12 -13 -14 -162 -16 -862 -3 -903 -4 -892 45 -899 54
-8 52 -50 52 884 0 771 -2 864 -16 878 -20 21 -48 20 -65 -1z"/>
<path d="M3759 1923 c-21 -24 -21 -1642 0 -1666 16 -20 52 -22 69 -5 9 9 12
209 12 840 0 808 0 828 -19 838 -28 14 -46 13 -62 -7z"/>
<path d="M1746 1884 c-14 -14 -16 -100 -16 -795 0 -766 0 -779 20 -799 24 -24
29 -24 58 -4 l22 15 0 784 c0 699 -2 785 -16 799 -8 9 -24 16 -34 16 -10 0
-26 -7 -34 -16z"/>
<path d="M3192 1854 l-22 -15 0 -748 c0 -712 1 -749 18 -764 24 -22 38 -21 62
3 20 20 20 33 20 760 0 727 0 740 -20 760 -24 24 -29 24 -58 4z"/>
<path d="M4050 1750 c-20 -20 -20 -33 -20 -658 0 -561 2 -640 16 -660 18 -26
46 -28 68 -6 14 14 16 88 16 664 l0 649 -22 15 c-29 20 -34 20 -58 -4z"/>
<path d="M891 1684 c-21 -15 -21 -16 -21 -593 0 -547 1 -579 18 -594 24 -22
38 -21 62 3 20 20 20 33 20 588 0 440 -3 572 -12 584 -20 24 -44 28 -67 12z"/>
<path d="M310 1620 c-19 -19 -20 -33 -20 -530 0 -497 1 -511 20 -530 24 -24
43 -25 64 -4 14 14 16 76 16 533 0 489 -1 519 -18 534 -24 22 -38 21 -62 -3z"/>
<path d="M2036 1624 c-14 -14 -16 -76 -16 -534 0 -458 2 -520 16 -534 22 -22
50 -20 68 6 14 20 16 87 16 528 0 441 -2 508 -16 528 -18 26 -46 28 -68 6z"/>
<path d="M4622 1578 c-9 -9 -12 -131 -12 -489 0 -475 0 -478 21 -493 14 -9 29
-12 43 -7 20 8 21 17 27 147 4 77 7 290 8 474 1 289 -1 339 -15 358 -17 24
-53 29 -72 10z"/>
<path d="M600 1560 c-19 -19 -20 -33 -20 -475 l0 -455 25 -16 c23 -15 27 -15
50 0 l25 16 0 455 c0 442 -1 456 -20 475 -11 11 -24 20 -30 20 -5 0 -19 -9
-30 -20z"/>
<path d="M2322 1398 c-9 -9 -12 -93 -12 -315 0 -298 0 -302 21 -314 16 -8 28
-8 45 0 l24 11 2 257 c2 297 0 343 -14 360 -13 16 -50 17 -66 1z"/>
<path d="M4910 1390 c-13 -8 -15 -52 -15 -300 0 -248 2 -292 15 -300 24 -15
55 -12 73 8 15 16 17 51 17 288 0 228 -2 273 -16 292 -16 23 -48 28 -74 12z"/>
<path d="M2609 1293 c-11 -12 -15 -61 -17 -192 -3 -190 4 -223 46 -229 49 -7
52 6 52 219 0 186 -1 199 -19 209 -28 14 -46 13 -62 -7z"/>
<path d="M2896 1288 c-24 -33 -23 -379 0 -402 21 -22 61 -20 74 3 6 12 10 96
10 205 0 154 -3 187 -16 200 -22 22 -50 20 -68 -6z"/>
<path d="M22 1254 c-21 -14 -22 -22 -22 -163 0 -133 2 -150 19 -165 11 -10 30
-16 42 -14 41 6 50 41 47 191 -3 124 -5 140 -22 153 -25 18 -36 18 -64 -2z"/>
</g>
</svg>
