<?xml version="1.0" standalone="no"?>
<!DOCTYPE svg PUBLIC "-//W3C//DTD SVG 20010904//EN"
 "http://www.w3.org/TR/2001/REC-SVG-20010904/DTD/svg10.dtd">
<svg version="1.0" xmlns="http://www.w3.org/2000/svg"
 width="736.000000pt" height="736.000000pt" viewBox="0 0 736.000000 736.000000"
 preserveAspectRatio="xMidYMid meet">

<g transform="translate(0.000000,736.000000) scale(0.100000,-0.100000)"
fill="#000000" stroke="none">
<path d="M2865 7321 c-146 -47 -188 -67 -335 -156 -91 -56 -137 -93 -225 -181
-139 -140 -185 -190 -179 -196 4 -4 -128 -211 -155 -244 -5 -6 -12 -20 -15
-32 -4 -12 -12 -22 -17 -22 -5 0 -9 -7 -9 -15 0 -7 -6 -18 -13 -22 -7 -4 -23
-30 -36 -57 -12 -27 -29 -55 -37 -63 -8 -8 -14 -22 -14 -31 0 -9 -9 -30 -20
-47 -11 -16 -20 -38 -20 -47 0 -10 -4 -18 -10 -18 -5 0 -10 -11 -10 -25 0 -13
-6 -36 -12 -51 l-13 -27 -6 24 c-4 16 -6 7 -6 -25 0 -30 -5 -53 -14 -60 -31
-25 -39 -53 -74 -241 -9 -49 -20 -108 -25 -130 -14 -61 -40 -245 -40 -277 0
-16 -4 -27 -8 -24 -5 3 -8 -9 -6 -27 1 -18 -2 -61 -8 -97 -9 -61 -13 -106 -22
-260 -3 -54 -2 -57 3 -15 l7 50 4 -58 c3 -31 1 -57 -3 -57 -5 0 -6 -4 -3 -9 3
-5 8 -86 11 -181 4 -128 2 -170 -6 -164 -9 5 -10 -1 -5 -21 13 -53 24 -433 15
-509 -5 -41 -8 -78 -7 -83 1 -4 -4 -19 -11 -33 -9 -15 -10 -25 -4 -27 11 -4 3
-59 -12 -83 -4 -7 -9 -45 -10 -84 -2 -59 -7 -79 -29 -115 -22 -35 -25 -45 -14
-52 9 -6 9 -9 1 -9 -8 0 -12 -13 -11 -34 1 -19 -8 -49 -21 -69 -24 -39 -37
-87 -23 -87 5 0 14 12 21 27 16 35 32 13 21 -29 -6 -20 -5 -26 2 -22 8 5 9 -1
4 -17 -4 -13 -9 -37 -12 -54 -2 -16 -20 -53 -39 -82 -19 -29 -35 -55 -35 -59
0 -3 -10 -20 -22 -37 l-21 -32 32 30 32 30 -11 -30 c-6 -16 -29 -64 -51 -105
-22 -41 -34 -67 -27 -58 13 15 14 12 15 -20 1 -29 -9 -52 -44 -102 -26 -36
-56 -76 -68 -90 -13 -14 -35 -45 -49 -70 l-27 -45 31 33 c17 18 35 30 40 27 5
-3 28 14 51 37 23 24 47 43 52 43 6 0 13 9 17 19 5 15 9 16 14 7 5 -7 3 -18
-3 -24 -15 -15 -14 -30 2 -21 6 4 3 -2 -7 -15 -12 -13 -26 -19 -35 -16 -8 3
-12 3 -8 -1 3 -4 -8 -20 -26 -36 l-32 -29 52 25 52 26 -3 -53 c-1 -28 -6 -59
-10 -68 -4 -9 -6 -20 -5 -25 2 -9 -3 -25 -41 -109 -12 -28 -28 -65 -36 -82 -7
-18 -11 -39 -8 -48 4 -9 -6 -27 -26 -45 -18 -16 -27 -30 -21 -30 6 0 11 -7 11
-15 0 -8 -5 -15 -11 -15 -6 0 -9 -7 -6 -14 4 -10 1 -13 -7 -10 -8 3 -17 0 -22
-7 -4 -8 -3 -10 4 -5 7 4 12 2 12 -4 0 -7 -9 -14 -20 -17 -11 -3 -20 -9 -20
-14 0 -5 -7 -9 -15 -9 -8 0 -15 -5 -15 -10 0 -6 -10 -15 -22 -20 -13 -5 -17
-9 -10 -9 8 -1 -4 -21 -27 -47 -23 -26 -41 -51 -41 -56 0 -5 -6 -6 -12 -2 -10
5 -10 4 -1 -6 10 -11 15 -11 28 0 13 11 15 9 15 -10 0 -15 -5 -20 -14 -17 -10
4 -13 1 -10 -7 3 -7 -7 -18 -22 -25 -15 -6 -24 -14 -21 -17 3 -3 16 0 29 7 29
15 -34 -49 -75 -76 -15 -10 -26 -20 -23 -22 6 -7 48 17 70 39 10 11 21 17 24
13 3 -3 -23 -33 -58 -66 -36 -33 -64 -64 -62 -70 1 -6 -2 -8 -6 -5 -5 3 -34
-19 -64 -48 -30 -30 -80 -71 -111 -90 -32 -20 -57 -39 -57 -42 0 -17 129 56
167 94 44 45 88 71 105 61 13 -7 15 -5 10 13 -3 14 -1 19 6 14 6 -3 13 -2 17
4 8 13 42 13 51 -1 3 -6 0 -15 -7 -20 -7 -4 -11 -11 -7 -14 9 -10 41 42 33 55
-4 6 -2 9 3 8 5 -2 19 8 31 22 l22 25 -21 -42 c-11 -23 -20 -47 -20 -54 0 -6
-28 -50 -63 -98 -125 -170 -249 -403 -287 -536 -11 -38 -25 -122 -31 -185 -6
-63 -18 -125 -25 -137 -8 -12 -14 -29 -14 -37 0 -8 -6 -17 -12 -19 -10 -4 -10
-6 0 -6 7 -1 17 10 22 24 5 14 12 25 15 25 9 0 -6 -71 -24 -110 -8 -19 -16
-43 -17 -52 -1 -10 -10 -39 -21 -65 -27 -64 -36 -103 -23 -103 5 0 10 6 10 13
0 23 69 182 70 162 11 -249 22 -359 43 -435 l24 -85 3036 -3 c1671 -1 3037 0
3037 3 0 14 -116 233 -177 333 -94 155 -189 278 -312 402 -77 79 -117 129
-158 200 -30 52 -72 120 -92 150 -259 382 -396 565 -478 636 -38 32 -95 84
-128 116 -67 65 -85 69 -171 43 l-49 -15 -23 27 c-57 68 -148 213 -288 460
-89 158 -107 202 -108 263 0 82 20 246 39 323 18 69 22 72 74 69 44 -2 202 20
238 34 54 20 126 99 147 161 17 51 20 114 7 182 -5 26 -5 58 1 79 12 42 67
102 94 102 36 1 57 27 62 79 4 45 2 53 -25 80 -17 16 -46 33 -67 36 -50 10
-41 25 22 41 96 25 192 106 192 162 0 12 -14 41 -31 65 -21 30 -32 59 -36 98
-5 49 -3 58 21 86 17 20 52 41 97 58 82 32 180 94 204 131 44 67 20 139 -83
245 -31 32 -64 71 -72 87 -32 57 -74 127 -80 132 -12 11 -60 90 -60 100 0 5
-4 10 -10 10 -5 0 -8 8 -6 18 7 35 19 52 37 52 21 0 26 16 7 22 -9 3 -9 6 0
12 7 4 12 2 12 -3 0 -6 5 -11 10 -11 6 0 10 9 10 20 0 12 -7 20 -16 20 -14 0
-14 3 -4 15 8 9 9 15 2 15 -6 0 -14 -4 -17 -10 -15 -24 -33 -9 -31 23 4 44 31
89 66 109 35 20 70 86 70 132 0 19 6 41 13 48 13 14 51 69 53 78 5 23 42 88
47 83 4 -4 4 8 1 25 -4 18 -2 38 3 44 11 15 -2 226 -16 273 -10 30 -22 133
-26 210 -3 77 -5 86 -14 81 -5 -3 -11 7 -14 23 -14 68 -109 233 -195 339 -19
23 -32 45 -30 48 3 3 19 -13 35 -35 17 -23 34 -37 38 -33 5 4 5 2 2 -4 -3 -6
0 -11 7 -11 8 0 12 6 9 14 -3 7 -10 13 -17 13 -6 0 -18 13 -27 29 -9 15 -38
43 -65 61 -27 18 -67 52 -89 74 -158 161 -521 344 -807 406 -48 11 -105 30
-125 43 -21 14 -54 28 -73 33 -19 4 -39 9 -45 10 -5 1 -30 9 -53 18 -29 10
-50 13 -61 7 -19 -11 -94 1 -114 17 -7 6 -53 18 -103 26 -49 8 -105 20 -124
27 -24 8 -165 13 -455 15 l-420 4 -120 -39z m2854 -1156 c0 -5 -4 -3 -9 5 -5
8 -9 22 -9 30 0 16 17 -16 18 -35z m-2959 -581 c-25 -14 -49 -32 -53 -40 -4
-8 -14 -14 -21 -14 -7 0 -26 -20 -42 -45 -15 -25 -31 -45 -36 -45 -4 0 -5 -8
-1 -17 5 -14 3 -15 -6 -7 -14 13 1 49 41 107 23 32 113 87 143 87 14 0 5 -9
-25 -26z m2723 -534 c3 -11 1 -20 -4 -20 -5 0 -9 9 -9 20 0 11 2 20 4 20 2 0
6 -9 9 -20z m-2265 -66 c29 -19 38 -42 23 -57 -9 -9 -14 -8 -21 3 -9 13 -10
13 -10 0 0 -8 10 -26 21 -40 19 -23 20 -23 14 -3 -3 12 -1 24 5 28 7 4 10 -6
8 -29 -2 -30 5 -43 53 -93 30 -32 77 -91 103 -131 43 -66 47 -75 34 -89 -14
-13 -21 -11 -63 21 -25 20 -51 36 -56 36 -5 0 -43 32 -85 70 -96 89 -123 103
-195 101 -50 -1 -58 1 -73 23 -40 62 -4 140 77 170 49 18 130 13 165 -10z
m242 -174 c13 -8 13 -10 -2 -10 -9 0 -20 5 -23 10 -8 13 5 13 25 0z m-5 -40
c3 -5 22 -10 42 -10 26 0 36 -5 40 -20 5 -20 33 -28 33 -10 0 29 273 -18 290
-50 7 -13 6 -20 -3 -24 -6 -3 -1 -3 12 0 16 4 21 3 17 -5 -4 -7 1 -11 13 -11
12 0 21 -4 21 -10 0 -5 7 -10 16 -10 10 0 13 -6 10 -18 -7 -19 29 -69 45 -64
5 1 9 -9 9 -23 0 -20 5 -25 26 -25 18 0 25 -5 23 -17 -3 -32 1 -36 17 -22 15
13 17 11 12 -18 -2 -19 0 -31 6 -30 5 1 10 -5 11 -13 0 -10 8 -14 23 -12 16 2
20 -1 16 -12 -4 -10 -1 -16 9 -16 21 0 31 -32 14 -45 -11 -8 -11 -13 -3 -22
34 -36 37 -43 22 -43 -8 0 -17 7 -19 15 -4 11 -4 10 -3 -2 1 -10 11 -19 24
-21 12 -2 23 -11 24 -20 0 -9 2 -24 2 -32 2 -17 -17 -40 -33 -40 -16 0 -13 11
7 26 15 12 13 13 -17 14 -28 0 -31 2 -22 14 15 18 -2 56 -24 56 -8 0 -15 5
-15 10 0 6 -7 10 -17 10 -14 0 -14 2 2 20 17 19 17 20 0 20 -10 0 -15 3 -11 7
8 8 -60 43 -85 43 -10 0 -21 5 -24 10 -3 6 -15 10 -26 10 -24 0 -26 20 -1 21
13 0 12 2 -5 9 -12 5 -27 18 -33 29 -6 12 -22 24 -36 27 -17 5 -22 10 -15 18
6 7 8 22 4 34 -4 17 -11 21 -24 17 -11 -4 -19 -2 -19 3 0 14 -23 21 -101 32
-80 12 -117 26 -125 52 -3 10 -9 16 -14 13 -4 -3 -21 2 -36 10 -16 8 -36 15
-45 15 -20 0 -109 85 -109 105 0 17 65 22 75 5z m-177 -152 c9 -20 11 -20 11
-5 2 35 26 11 49 -49 13 -32 28 -67 33 -76 12 -23 12 -81 0 -73 -6 3 -18 -19
-27 -49 -12 -37 -24 -56 -37 -60 -10 -2 -16 -9 -12 -15 3 -6 -1 -21 -9 -33
l-16 -22 0 29 c-1 25 -3 28 -13 15 -24 -30 -35 -21 -21 18 7 20 13 47 14 60 0
12 4 22 8 22 4 0 9 27 10 60 1 33 -1 60 -6 60 -11 0 -32 68 -32 102 0 43 30
53 48 16z m1451 -498 c24 -11 41 -23 38 -26 -3 -3 -16 1 -28 9 -11 9 -28 13
-35 10 -8 -3 -14 0 -14 6 0 7 -10 9 -26 5 -19 -5 -25 -4 -20 5 10 16 35 13 85
-9z m-1379 -610 c-16 -31 -23 -19 -9 16 6 16 13 24 16 17 2 -7 -1 -22 -7 -33z
m-60 -85 c-6 -15 -13 -25 -16 -23 -2 3 1 17 7 32 16 34 23 27 9 -9z m-1800
-35 c0 -5 -5 -10 -11 -10 -5 0 -7 5 -4 10 3 6 8 10 11 10 2 0 4 -4 4 -10z
m-82 -397 c-27 -55 -45 -83 -55 -87 -7 -3 -2 16 13 44 14 28 30 50 36 50 5 0
8 -3 6 -7z m-318 -1009 c-8 -8 -23 -20 -34 -25 -13 -6 -10 0 9 15 34 29 43 33
25 10z m-20 -48 c0 -2 -8 -10 -17 -17 -16 -13 -17 -12 -4 4 13 16 21 21 21 13z"/>
<path d="M3105 4899 c-5 -16 2 -30 27 -56 45 -47 66 -57 84 -42 25 20 15 47
-30 83 -49 41 -72 45 -81 15z"/>
<path d="M3281 4544 c0 -11 3 -14 6 -6 3 7 2 16 -1 19 -3 4 -6 -2 -5 -13z"/>
<path d="M1765 6210 c-3 -5 -1 -10 4 -10 6 0 11 5 11 10 0 6 -2 10 -4 10 -3 0
-8 -4 -11 -10z"/>
<path d="M5751 6024 c0 -11 3 -14 6 -6 3 7 2 16 -1 19 -3 4 -6 -2 -5 -13z"/>
<path d="M5757 5561 c-4 -17 -3 -21 5 -13 5 5 8 16 6 23 -3 8 -7 3 -11 -10z"/>
<path d="M1532 4680 c0 -14 2 -19 5 -12 2 6 2 18 0 25 -3 6 -5 1 -5 -13z"/>
<path d="M1516 3823 c-6 -14 -5 -15 5 -6 7 7 10 15 7 18 -3 3 -9 -2 -12 -12z"/>
<path d="M1196 2224 c-5 -14 -4 -15 9 -4 17 14 19 20 6 20 -5 0 -12 -7 -15
-16z"/>
<path d="M965 1890 c-3 -5 -1 -10 4 -10 6 0 11 5 11 10 0 6 -2 10 -4 10 -3 0
-8 -4 -11 -10z"/>
<path d="M845 1724 l-30 -25 33 17 c17 10 32 22 32 26 0 12 -2 11 -35 -18z"/>
<path d="M862 1620 c-23 -19 -29 -40 -11 -40 5 0 7 -6 3 -12 -4 -7 5 -2 19 11
15 14 27 27 27 29 0 3 -9 -3 -20 -13 -11 -10 -20 -13 -20 -7 0 6 9 17 21 25
11 8 17 17 12 20 -4 3 -18 -3 -31 -13z"/>
<path d="M798 1552 c-16 -9 -28 -23 -28 -30 0 -8 12 -2 30 15 42 39 41 42 -2
15z"/>
<path d="M522 305 c0 -16 2 -22 5 -12 2 9 2 23 0 30 -3 6 -5 -1 -5 -18z"/>
</g>
</svg>
