<?xml version="1.0" standalone="no"?>
<!DOCTYPE svg PUBLIC "-//W3C//DTD SVG 20010904//EN"
 "http://www.w3.org/TR/2001/REC-SVG-20010904/DTD/svg10.dtd">
<svg version="1.0" xmlns="http://www.w3.org/2000/svg"
 width="500.000000pt" height="500.000000pt" viewBox="0 0 500.000000 500.000000"
 preserveAspectRatio="xMidYMid meet">

<g transform="translate(0.000000,500.000000) scale(0.100000,-0.100000)"
fill="#000000" stroke="none">
<path d="M2140 4231 c-213 -55 -344 -126 -472 -257 -37 -38 -92 -89 -123 -113
-77 -60 -100 -94 -135 -192 -31 -89 -36 -114 -20 -104 15 9 11 -27 -5 -49 -11
-15 -15 -16 -16 -5 -1 28 -28 -46 -29 -80 0 -19 -10 -73 -22 -121 l-21 -86 31
-56 c24 -45 29 -64 25 -96 -4 -31 0 -49 21 -84 14 -25 35 -53 46 -63 11 -10
31 -57 46 -104 14 -47 45 -131 69 -186 75 -172 114 -269 108 -278 -2 -4 -32
-21 -66 -38 -84 -42 -185 -110 -224 -151 -64 -66 -173 -287 -282 -570 l-41
-107 0 -656 0 -655 1470 0 1469 0 -24 65 c-14 36 -29 104 -35 153 -15 132 -25
179 -74 329 -24 76 -56 179 -70 230 -48 175 -89 237 -207 319 -37 26 -48 41
-67 98 -13 36 -39 85 -58 107 -18 22 -47 69 -64 104 -28 58 -67 98 -97 98 -6
0 -11 4 -10 8 1 3 -24 37 -56 73 -66 75 -70 106 -19 128 15 7 36 19 47 28 11
10 49 23 83 30 35 7 66 19 68 25 3 7 16 10 29 7 16 -3 28 2 37 17 16 26 23 26
55 1 39 -30 46 -25 40 25 -6 37 -3 49 13 65 17 17 18 24 8 46 -10 21 -9 27 3
34 10 7 25 -1 53 -28 21 -20 36 -30 33 -21 -5 14 -1 15 26 5 18 -6 38 -15 45
-19 15 -10 16 5 1 20 -13 13 -3 36 12 28 5 -4 9 -1 9 5 0 7 8 9 20 5 16 -5 19
-3 13 12 -15 42 -48 91 -89 135 -50 53 -60 98 -22 98 12 0 31 -8 43 -17 12
-10 4 -2 -17 18 -28 27 -38 45 -38 68 0 17 1 31 3 31 1 0 17 -4 35 -9 30 -9
31 -8 21 11 -6 11 -26 34 -45 50 -21 19 -34 39 -34 54 0 13 3 24 7 24 4 0 57
-38 117 -84 122 -91 187 -136 198 -136 5 0 8 13 8 28 0 24 -14 39 -89 95 -77
58 -151 132 -151 151 0 15 34 4 58 -20 15 -14 62 -45 104 -69 l77 -43 -1 27
c-1 20 -11 34 -37 52 -78 52 -168 126 -211 173 l-45 49 40 -6 c117 -18 239
-27 248 -18 15 15 -5 20 -89 26 -88 5 -123 11 -171 28 -36 12 -43 26 -15 28 9
1 -1 6 -23 13 -22 6 -59 21 -82 34 -45 23 -136 125 -181 201 l-26 44 23 18
c14 12 18 19 10 19 -8 0 -30 5 -50 10 -27 8 -39 19 -52 48 -9 21 -40 76 -68
122 -62 104 -92 160 -86 167 3 2 27 -7 54 -20 176 -89 308 -123 562 -142 107
-9 196 -13 199 -10 3 3 0 17 -7 31 -8 19 -16 24 -29 19 -34 -15 -172 -17 -254
-5 -120 17 -277 56 -355 87 -84 33 -185 127 -286 263 -39 52 -90 118 -114 146
-23 28 -43 54 -43 57 0 8 -77 80 -133 123 -75 59 -294 125 -409 123 -29 0
-118 -17 -198 -38z m632 -248 c35 -27 74 -55 88 -64 25 -17 25 -17 8 -47 -23
-39 -22 -60 2 -97 11 -16 20 -40 20 -53 0 -13 5 -33 11 -45 11 -20 10 -20 -16
3 -15 14 -36 42 -46 62 -11 21 -39 60 -64 88 -25 28 -43 56 -39 62 4 5 3 13
-2 17 -14 10 -74 100 -74 111 0 24 54 6 112 -37z m206 -183 c8 -25 23 -56 33
-69 21 -26 24 -41 10 -41 -5 0 -13 9 -16 20 -4 11 -18 31 -33 45 -14 13 -27
30 -28 38 -1 8 -5 24 -9 37 -6 17 -3 21 11 18 10 -2 23 -21 32 -48z m122 -245
c48 -30 83 -80 109 -157 l20 -58 -32 13 c-27 12 -32 18 -29 43 3 26 2 27 -10
11 -11 -15 -13 -12 -13 25 -1 59 -23 98 -70 125 -22 12 -34 23 -27 23 7 0 30
-11 52 -25z m167 -290 c9 -24 -1 -27 -15 -5 -8 13 -8 20 -2 20 6 0 13 -7 17
-15z m60 -161 c-3 -3 -16 6 -30 20 -15 14 -22 26 -17 26 6 0 10 10 10 23 1 17
6 12 22 -21 11 -23 18 -45 15 -48z m33 -131 c0 -2 -11 -3 -24 -3 -20 0 -24 5
-22 23 2 12 7 30 11 40 7 16 10 12 21 -20 8 -21 14 -39 14 -40z m20 -23 c0 -5
-9 -10 -21 -10 -11 0 -17 5 -14 10 3 6 13 10 21 10 8 0 14 -4 14 -10z"/>
<path d="M3865 3360 c-13 -5 -14 -9 -5 -9 8 0 24 4 35 9 13 5 14 9 5 9 -8 0
-24 -4 -35 -9z"/>
<path d="M3750 3330 c-20 -6 -21 -8 -5 -8 11 0 29 3 40 8 25 11 -1 11 -35 0z"/>
<path d="M3580 3296 c-52 -11 -84 -22 -70 -24 14 -1 68 9 120 22 116 31 81 32
-50 2z"/>
<path d="M3925 2949 c-11 -4 -42 -11 -70 -15 l-50 -8 44 -6 c52 -8 86 -3 101
15 14 17 1 25 -25 14z"/>
</g>
</svg>
