<?xml version="1.0" standalone="no"?>
<!DOCTYPE svg PUBLIC "-//W3C//DTD SVG 20010904//EN"
 "http://www.w3.org/TR/2001/REC-SVG-20010904/DTD/svg10.dtd">
<svg version="1.0" xmlns="http://www.w3.org/2000/svg"
 width="736.000000pt" height="779.000000pt" viewBox="0 0 736.000000 779.000000"
 preserveAspectRatio="xMidYMid meet">

<g transform="translate(0.000000,779.000000) scale(0.100000,-0.100000)"
fill="#000000" stroke="none">
<path d="M1875 7722 c-50 -38 -112 -85 -140 -106 -255 -194 -508 -498 -594
-716 -66 -167 -83 -256 -89 -455 -3 -113 0 -204 7 -245 11 -60 9 -77 -20 -215
-33 -161 -49 -208 -79 -240 -36 -39 -57 -122 -59 -237 -1 -73 2 -108 9 -108 6
0 8 -6 4 -12 -4 -7 -4 -10 1 -6 14 13 35 -13 35 -44 0 -16 4 -27 9 -24 5 3 11
-1 14 -9 4 -9 1 -12 -9 -8 -20 7 -18 -3 6 -27 27 -27 26 -43 -2 -35 -20 5 -19
3 7 -19 23 -20 26 -26 13 -26 -10 0 -18 -4 -18 -10 0 -5 -8 -10 -17 -11 -14 0
-14 -2 3 -9 31 -12 43 -34 14 -25 -14 4 -20 3 -16 -3 3 -5 -1 -13 -10 -16 -21
-8 -8 -26 21 -26 19 0 22 -4 18 -21 -3 -11 -9 -17 -12 -12 -3 4 -20 8 -38 8
-23 0 -29 -3 -22 -11 11 -13 99 -23 99 -12 0 5 7 8 15 8 8 0 15 -3 15 -7 0
-12 -16 -35 -24 -34 -25 4 -46 0 -42 -8 7 -11 59 -1 68 13 5 7 8 3 9 -9 2 -26
2 -26 -6 -50 -6 -17 -4 -17 13 4 18 23 19 23 24 3 3 -11 -3 -43 -13 -71 -50
-144 -46 -211 17 -281 21 -23 33 -44 28 -51 -4 -7 -3 -9 4 -5 6 3 13 2 17 -4
3 -5 1 -10 -5 -10 -7 0 -7 -6 1 -22 7 -13 11 -62 10 -123 -3 -159 26 -350 96
-633 8 -35 21 -76 29 -90 8 -15 14 -32 14 -39 0 -18 82 -257 91 -268 5 -5 9
-16 9 -25 0 -8 13 -42 29 -75 16 -33 39 -84 51 -113 12 -28 26 -52 31 -52 5 0
9 -8 9 -17 0 -9 6 -24 13 -32 8 -9 28 -62 46 -119 18 -56 44 -116 57 -132 14
-16 23 -34 19 -40 -4 -6 1 -7 11 -3 14 5 16 3 11 -11 -5 -11 -3 -15 4 -10 7 4
10 1 7 -6 -2 -7 6 -23 18 -35 87 -88 232 -118 419 -90 244 37 269 39 343 26
118 -21 279 -110 337 -187 27 -36 30 -48 39 -169 18 -242 -23 -791 -75 -990
-11 -44 -24 -84 -29 -89 -5 -5 -57 -17 -117 -27 -274 -48 -351 -64 -543 -111
-347 -84 -748 -202 -1210 -358 -179 -60 -392 -130 -474 -155 -82 -26 -200 -65
-263 -87 l-113 -40 0 -209 0 -209 3680 0 3680 0 -2 341 -3 340 -175 75 c-227
97 -728 343 -735 361 -3 8 -12 123 -20 256 -8 133 -28 340 -44 462 -27 203
-35 268 -61 505 -8 73 -17 205 -45 715 -2 50 -7 207 -10 350 -8 378 -26 749
-38 756 -6 4 -6 15 -2 25 5 11 7 24 6 29 -2 6 -4 82 -7 170 -2 88 -8 198 -13
245 -6 47 -15 137 -21 200 -6 63 -13 133 -15 155 -3 22 -7 60 -10 85 -8 77
-26 203 -35 250 -5 25 -14 73 -20 108 -25 145 -110 503 -138 582 -67 189 -254
581 -365 762 -98 162 -300 440 -397 546 -149 164 -224 230 -404 360 l-158 112
-1342 0 -1342 0 -89 -68z m1227 -1445 c6 -12 20 -29 32 -38 20 -17 21 -16 29
3 6 16 10 18 22 8 7 -6 11 -18 8 -26 -7 -19 24 -29 42 -14 21 17 30 6 11 -13
-13 -13 -13 -17 -1 -33 12 -15 16 -16 23 -6 7 10 11 5 15 -17 7 -35 27 -42 27
-9 0 20 1 20 19 4 11 -10 17 -24 14 -32 -3 -8 0 -14 6 -14 6 0 11 -6 11 -12 0
-18 60 -15 71 3 6 10 9 7 9 -12 0 -31 25 -45 38 -22 6 10 16 14 27 9 15 -5 15
-9 4 -23 -13 -15 -12 -15 8 -5 27 15 36 15 28 2 -9 -14 8 -13 23 2 9 9 12 9
12 -2 1 -20 37 -63 48 -56 13 8 52 -23 52 -42 0 -9 8 -29 18 -44 14 -22 21
-25 30 -16 9 9 12 8 12 -4 0 -8 10 -23 23 -32 14 -10 16 -14 5 -10 -10 4 -18
3 -18 -1 0 -9 40 -60 77 -99 16 -16 23 -26 17 -23 -7 4 -11 -4 -10 -22 1 -16
4 -27 9 -24 4 2 10 -4 13 -14 13 -39 44 -102 53 -107 5 -3 14 -30 21 -58 6
-29 18 -67 26 -85 8 -17 14 -47 14 -67 0 -25 5 -36 14 -36 18 0 30 17 17 24
-5 4 -11 1 -13 -6 -2 -6 -4 12 -5 40 -1 96 25 51 46 -78 5 -36 13 -90 16 -120
3 -30 10 -68 15 -85 4 -16 12 -57 16 -90 l8 -60 7 50 c12 85 34 167 42 159 4
-4 7 1 7 12 2 74 14 182 22 194 6 10 7 -12 4 -65 -16 -238 -15 -259 5 -95 12
91 24 168 28 173 4 4 4 -16 0 -45 -9 -62 -11 -113 -5 -107 8 8 35 151 42 219
10 98 10 99 18 107 4 5 13 8 18 8 6 0 13 6 16 14 3 8 0 11 -7 7 -7 -5 -11 3
-11 23 0 24 4 31 20 31 11 0 41 8 67 18 84 31 148 18 108 -22 -9 -9 -13 -16
-8 -16 5 0 14 5 20 11 11 11 15 9 54 -44 11 -15 24 -25 29 -22 4 3 10 -4 13
-14 2 -11 15 -21 28 -23 29 -4 71 -84 73 -138 1 -28 7 -37 30 -48 l28 -14 -7
-82 c-5 -62 -12 -86 -28 -103 -33 -37 -50 -30 -45 18 3 37 0 46 -35 82 -30 31
-37 45 -33 64 5 16 2 23 -9 23 -8 0 -15 -7 -15 -15 0 -8 -5 -15 -11 -15 -6 0
-9 -15 -8 -37 3 -37 -24 -147 -42 -169 -19 -23 -40 -137 -49 -266 -7 -100 -15
-151 -31 -190 -17 -40 -22 -76 -23 -148 l-1 -95 30 -3 c27 -3 33 3 63 53 18
30 39 55 46 55 8 0 31 -7 52 -16 60 -26 195 -23 264 5 30 13 63 25 73 28 9 3
17 9 17 14 0 5 5 9 11 9 8 0 8 -4 0 -14 -9 -11 -9 -16 0 -21 8 -6 9 -63 4
-218 -3 -116 -9 -215 -12 -219 -10 -17 -5 -644 6 -703 21 -121 33 -191 41
-245 9 -57 35 -171 76 -330 26 -103 75 -244 122 -355 60 -141 111 -261 128
-305 28 -68 145 -296 192 -374 23 -37 42 -72 42 -77 0 -5 4 -9 9 -9 5 0 12 -8
15 -17 3 -10 20 -33 36 -51 17 -17 29 -32 26 -32 -4 0 9 -15 92 -105 68 -73
70 -84 32 -152 -18 -32 -48 -77 -66 -100 -19 -23 -34 -46 -34 -51 0 -15 -117
-122 -134 -122 -8 0 -18 5 -22 11 -3 6 -16 8 -27 5 -12 -3 -27 0 -34 6 -11 9
-15 7 -20 -10 -7 -29 -21 -28 -29 3 -4 17 -1 32 10 44 12 13 14 21 6 26 -6 4
-14 4 -17 1 -3 -3 -12 -1 -20 5 -10 9 -13 8 -13 0 0 -25 -18 1 -24 35 -8 40 6
66 32 58 14 -5 13 -2 -2 10 -11 9 -26 16 -33 16 -7 0 -13 6 -13 14 0 8 -11 17
-25 20 -15 4 -23 11 -19 17 4 6 -6 22 -21 35 -19 16 -26 30 -22 44 4 17 2 20
-15 14 -15 -5 -19 -2 -16 14 2 10 -3 26 -10 35 -9 10 -10 17 -2 22 15 9 12 25
-5 25 -8 0 -19 9 -25 20 -6 11 -17 20 -25 20 -16 0 -20 12 -8 24 4 3 7 15 8
26 1 15 -5 20 -22 20 -17 0 -22 5 -20 21 1 12 -4 24 -11 26 -9 4 -12 -3 -10
-18 2 -13 -1 -26 -7 -29 -6 -3 -11 17 -13 48 -2 29 -7 50 -12 47 -15 -9 -22
15 -9 31 6 8 9 17 5 21 -3 3 -6 1 -6 -5 0 -7 -4 -12 -10 -12 -5 0 -10 12 -10
26 0 16 -11 36 -25 50 -14 13 -25 34 -25 48 0 14 -4 28 -10 31 -5 3 -10 17
-10 30 0 13 -6 25 -12 28 -10 3 -10 7 0 19 9 11 10 18 2 23 -5 3 -10 17 -10
31 0 16 -6 24 -17 24 -15 0 -15 1 1 13 15 11 16 15 4 25 -8 6 -13 25 -12 41 1
17 -4 35 -12 42 -8 6 -14 16 -14 21 0 6 -9 23 -20 38 -11 16 -16 31 -11 34 5
4 12 2 16 -4 3 -5 10 -10 16 -10 5 0 4 9 -3 20 -7 11 -18 20 -25 20 -7 0 -13
10 -13 23 0 12 -4 28 -9 36 -7 11 -11 10 -21 -5 -10 -17 -11 -17 -6 -1 4 13
-1 19 -25 24 -27 5 -30 9 -24 32 4 14 11 28 16 29 5 2 7 7 4 12 -8 13 -45 -1
-45 -17 0 -19 -16 -8 -23 16 -3 14 -1 18 9 14 10 -4 14 4 14 27 0 33 0 33 -21
14 -21 -19 -21 -18 -40 5 -20 25 -22 88 -3 95 6 2 14 13 16 24 4 15 1 18 -13
15 -11 -3 -19 -11 -19 -19 0 -8 -6 -11 -15 -8 -8 4 -15 13 -15 20 0 8 -7 17
-15 20 -8 4 -15 12 -15 20 0 8 7 14 15 14 9 0 15 9 15 25 0 16 -4 23 -14 19
-17 -7 -32 86 -15 97 8 5 8 12 0 27 -6 11 -11 37 -11 57 0 31 -3 35 -19 30
-26 -8 -38 25 -15 42 9 7 21 10 25 7 5 -3 9 -1 9 5 0 5 -5 13 -11 17 -6 3 -8
17 -4 31 3 14 1 31 -6 39 -9 11 -7 18 11 34 13 11 20 21 17 21 -4 1 -11 2 -16
3 -16 2 -23 14 -16 26 6 9 10 9 16 -1 8 -14 9 -12 9 16 0 3 -3 6 -7 7 -5 2
-16 18 -26 37 -15 27 -17 39 -8 58 6 13 11 32 10 41 0 14 -2 13 -9 -3 -12 -28
-12 -8 1 59 10 54 9 59 -11 73 -12 8 -19 21 -16 29 6 17 -13 30 -39 25 -23 -4
-44 -29 -45 -53 0 -10 -7 -18 -16 -18 -8 0 -12 4 -9 10 3 6 -1 10 -9 10 -19 0
-21 -21 -5 -37 16 -16 3 -32 -21 -26 -14 4 -20 0 -20 -11 0 -11 9 -16 28 -17
l27 -1 -29 -8 c-17 -5 -36 -5 -46 0 -9 5 -22 5 -31 -1 -11 -7 -10 -10 8 -15
12 -3 24 -12 27 -20 4 -11 2 -13 -11 -5 -13 7 -23 3 -40 -15 -12 -13 -20 -31
-17 -39 4 -10 0 -15 -13 -15 -10 0 -23 -4 -28 -9 -6 -5 -21 -11 -35 -13 -21
-2 -24 -8 -22 -32 3 -19 0 -26 -7 -21 -6 3 -9 11 -5 16 3 6 -4 13 -16 16 -21
6 -21 6 6 34 32 33 22 40 -12 8 -19 -17 -28 -19 -51 -12 -17 6 -27 16 -25 26
2 11 -8 18 -33 23 -20 3 -35 12 -35 20 0 17 -12 18 -28 2 -9 -9 -12 -5 -12 18
0 16 -5 36 -10 44 -8 12 -10 11 -10 -6 0 -12 -7 -25 -16 -28 -23 -9 -33 3 -12
15 15 8 19 56 7 94 -7 20 26 74 46 77 11 2 25 14 32 28 7 13 20 30 29 37 10 7
12 13 6 13 -7 0 -12 5 -12 10 0 6 7 10 15 10 9 0 18 7 21 15 4 8 15 15 25 15
10 0 19 7 19 15 0 8 5 15 10 15 6 0 10 7 10 15 0 8 5 15 11 15 9 0 57 47 117
115 7 8 15 28 18 44 l6 29 -33 -11 c-46 -16 -59 -25 -55 -40 1 -7 1 -9 -1 -6
-6 9 -83 -12 -83 -22 0 -5 -12 -6 -27 -3 -19 5 -30 2 -39 -10 -8 -11 -14 -13
-19 -7 -8 14 -45 14 -45 1 0 -5 5 -10 11 -10 5 0 7 -4 4 -10 -3 -6 -17 -10
-29 -10 -13 0 -29 -6 -35 -14 -16 -19 -71 -26 -71 -9 0 7 -4 13 -10 13 -5 0
-10 -7 -10 -15 0 -18 -16 -20 -23 -2 -3 7 -9 2 -15 -13 -6 -14 -11 -19 -11
-11 -1 12 -3 12 -13 -1 -19 -24 -118 -51 -135 -37 -10 9 -13 7 -13 -11 0 -20
-3 -22 -37 -15 -21 4 -47 15 -59 26 -11 10 -31 19 -45 19 -14 0 -30 5 -37 12
-8 8 -15 8 -26 -1 -11 -9 -16 -9 -22 0 -4 7 1 16 11 22 17 9 17 11 1 23 -10 6
-18 16 -19 21 -1 4 -6 6 -12 4 -31 -11 -45 -12 -45 -2 0 6 7 14 15 17 9 4 14
17 13 34 -1 16 -6 26 -11 23 -12 -7 -27 17 -27 45 0 12 -4 22 -10 22 -17 0
-11 18 8 23 12 3 11 5 -6 6 -19 1 -22 5 -16 24 4 12 11 25 16 28 17 11 4 44
-20 47 -26 4 -29 17 -4 31 9 6 11 11 5 11 -7 0 -13 9 -13 21 0 12 -8 23 -20
26 -15 4 -20 14 -20 37 0 18 5 37 12 44 8 8 8 12 1 12 -17 0 -22 23 -13 70 5
30 4 56 -6 84 -8 22 -12 47 -9 54 3 8 3 24 -1 35 -5 16 -8 17 -16 6 -8 -12 -9
-12 -6 0 6 21 28 26 28 7 0 -9 3 -16 8 -16 4 0 8 23 9 50 1 50 -11 69 -20 30
-4 -17 -4 -16 -3 2 1 16 8 24 24 26 27 4 28 13 2 35 -21 18 -26 37 -10 37 6 0
10 15 10 33 0 17 4 49 9 70 5 21 5 39 0 43 -15 9 -10 42 9 53 9 6 11 11 5 11
-14 0 -18 30 -4 30 10 0 1 53 -11 61 -5 3 -1 21 9 39 14 24 15 34 6 37 -7 3
-13 11 -13 19 0 8 6 24 13 35 10 17 10 23 0 26 -16 6 -17 33 -2 33 7 0 18 -8
25 -17 11 -16 12 -14 5 12 -5 23 -14 31 -35 33 -22 3 -25 6 -16 17 15 19 3 56
-16 48 -17 -6 -19 8 -2 25 8 8 8 15 -1 25 -6 8 -8 22 -5 31 4 9 0 24 -9 34
-17 20 -23 148 -7 172 8 13 10 12 10 -2 0 -22 23 -23 40 -3 10 12 10 15 0 15
-8 0 -10 8 -6 25 4 16 2 25 -5 25 -6 0 -9 6 -6 14 4 9 -1 17 -11 19 -9 3 3 3
28 1 32 -3 39 -2 25 5 -18 8 -19 9 -2 16 9 4 17 11 17 16 0 6 -9 5 -21 -1 -11
-6 -25 -9 -32 -7 -7 3 3 11 21 19 18 8 33 18 33 21 -3 25 1 28 13 12 13 -18
14 -18 24 2 8 14 8 31 2 54 -14 47 -12 56 5 33 14 -19 14 -19 15 3 0 12 -5 23
-11 25 -6 2 -17 29 -24 61 -11 49 -11 57 1 57 8 0 14 5 14 10 0 12 -3 12 -24
4 -9 -3 -16 -17 -16 -30 0 -27 -17 -32 -27 -8 -3 9 0 20 8 24 10 7 7 11 -14
19 -23 9 -26 14 -21 41 4 17 2 36 -5 44 -14 16 -11 47 4 58 13 9 -1 22 -14 13
-6 -3 -11 -28 -11 -54 l0 -48 -44 -1 c-28 -1 -48 3 -56 13 -7 8 -18 15 -26 15
-7 0 -20 9 -28 21 -8 12 -19 18 -25 14 -6 -3 -26 9 -45 27 -46 45 -87 78 -98
78 -4 0 -8 7 -8 16 0 9 -9 18 -20 21 -12 3 -20 14 -20 25 0 17 5 20 30 16 30
-5 41 6 18 15 -8 4 -7 6 3 6 9 1 22 -5 28 -13 7 -8 26 -14 42 -14 16 1 38 -7
50 -18 20 -18 21 -18 34 -1 11 15 13 16 19 2 3 -9 18 -15 36 -15 20 0 30 -5
30 -16 0 -8 5 -12 10 -9 6 4 7 12 3 18 -5 7 -13 27 -18 46 -12 39 -35 54 -35
22 0 -12 6 -21 15 -21 8 0 15 -4 15 -10 0 -5 -3 -10 -7 -10 -11 1 -43 26 -43
34 0 4 -7 15 -16 24 -15 15 -15 17 5 30 11 8 21 19 21 24 0 6 -7 5 -15 -2 -12
-10 -15 -9 -15 7 0 16 5 19 25 15 14 -2 31 -14 37 -25z m-87 -87 c13 -6 15 -9
5 -9 -8 0 -22 4 -30 9 -18 12 -2 12 25 0z m2176 -76 c164 -52 298 -220 318
-399 16 -142 -7 -292 -85 -543 l-35 -113 -32 19 c-39 23 -38 37 2 123 16 35
31 75 34 89 2 14 12 51 20 83 9 31 19 124 23 205 6 138 5 152 -16 212 -52 148
-97 194 -247 251 -102 39 -108 43 -111 73 -3 26 -2 26 40 20 24 -3 64 -12 89
-20z m-206 -84 c3 -5 2 -10 -4 -10 -5 0 -13 5 -16 10 -3 6 -2 10 4 10 5 0 13
-4 16 -10z m-104 -89 c-57 -89 -79 -160 -91 -296 -6 -66 -11 -140 -11 -165 -1
-25 -4 -38 -7 -30 -3 8 -13 23 -23 33 -25 28 -40 107 -30 159 5 24 24 81 43
128 19 47 38 96 41 110 7 28 88 120 105 120 6 0 -6 -27 -27 -59z m-1681 -21
c0 -5 -9 -10 -20 -10 -11 0 -20 5 -20 10 0 6 9 10 20 10 11 0 20 -4 20 -10z
m520 -25 c0 -5 -5 -3 -10 5 -5 8 -10 20 -10 25 0 6 5 3 10 -5 5 -8 10 -19 10
-25z m695 -231 c-37 -30 -84 -45 -103 -35 -16 10 -16 10 1 11 9 0 25 4 35 9
16 8 71 28 82 30 3 0 -4 -7 -15 -15z m-1095 -4 c0 -5 -5 -10 -11 -10 -5 0 -7
5 -4 10 3 6 8 10 11 10 2 0 4 -4 4 -10z m1941 -230 c17 -50 22 -87 22 -160 -1
-141 -4 -148 -58 -129 -29 11 -35 18 -31 34 26 110 29 147 18 207 -11 58 -16
120 -13 158 2 24 37 -39 62 -110z m-1234 68 c-3 -8 -6 -5 -6 6 -1 11 2 17 5
13 3 -3 4 -12 1 -19z m40 -20 c-3 -7 -5 -2 -5 12 0 14 2 19 5 13 2 -7 2 -19 0
-25z m-1 -24 c10 4 14 -3 14 -29 0 -18 7 -62 16 -96 16 -62 15 -124 -3 -249
l-7 -45 -7 40 c-5 24 -4 51 3 68 7 19 7 35 -1 55 -6 15 -9 46 -7 69 3 24 0 45
-5 48 -5 4 -9 -4 -9 -16 0 -40 -10 -13 -16 41 -3 29 -7 57 -10 61 -2 4 -1 27
3 51 5 30 8 36 11 20 2 -16 8 -22 18 -18z m52 -25 c-3 -8 -7 -3 -11 10 -4 17
-3 21 5 13 5 -5 8 -16 6 -23z m99 -11 c-3 -7 -5 -2 -5 12 0 14 2 19 5 13 2 -7
2 -19 0 -25z m-3277 12 c0 -5 -5 -10 -11 -10 -5 0 -7 5 -4 10 3 6 8 10 11 10
2 0 4 -4 4 -10z m3187 -97 l0 -78 -10 52 c-8 44 -4 103 7 103 2 0 3 -35 3 -77z
m696 -8 c4 -8 2 -17 -3 -20 -6 -4 -10 -1 -10 5 0 7 -7 9 -16 6 -14 -5 -15 -4
-4 9 16 19 26 19 33 0z m-1633 -60 c0 -8 -4 -15 -10 -15 -5 0 -10 7 -10 15 0
8 5 15 10 15 6 0 10 -7 10 -15z m1824 -42 c5 -16 2 -23 -12 -27 -28 -9 -44
-50 -31 -83 13 -34 0 -43 -68 -43 -65 0 -93 24 -93 83 0 30 7 45 30 69 27 27
36 29 78 26 26 -2 54 -6 62 -9 9 -2 14 2 12 11 -5 22 14 -1 22 -27z m201 -95
c75 -26 142 -64 156 -89 9 -18 8 -18 -43 2 -29 11 -97 36 -150 54 -115 40
-125 45 -107 55 17 11 72 3 144 -22z m-602 -120 c-20 -59 -23 -79 -15 -105 13
-42 1 -49 -32 -18 -16 15 -26 34 -26 52 1 31 53 136 64 126 3 -3 6 -1 6 5 0 7
6 12 14 12 12 0 10 -14 -11 -72z m380 -12 c26 -20 21 -44 -12 -51 -30 -6 -58
-45 -47 -64 4 -6 21 -11 37 -11 35 0 72 -22 116 -68 l32 -34 26 26 c14 14 23
26 19 26 -4 0 5 14 21 30 29 30 66 38 94 21 31 -20 -45 -115 -218 -271 -40
-36 -79 -69 -88 -73 -19 -12 -32 1 -13 13 11 7 11 10 2 10 -9 0 -11 10 -6 38
4 20 11 39 15 40 5 2 9 10 9 17 0 8 6 18 13 22 13 8 19 31 19 72 0 28 -31 101
-44 101 -4 0 -10 0 -13 0 -3 0 -5 -3 -5 -7 -1 -15 -56 -23 -88 -12 -22 7 -34
19 -38 37 -4 15 -11 32 -16 38 -15 20 9 60 44 73 18 7 42 17 53 21 54 23 65
23 88 6z m-1776 -322 c-3 -3 -12 -4 -19 -1 -8 3 -5 6 6 6 11 1 17 -2 13 -5z
m1582 -51 c0 -16 -3 -22 -6 -15 -2 6 -11 12 -19 12 -20 0 -17 18 4 23 9 3 18
5 20 6 1 0 2 -11 1 -26z m-1602 -305 c-3 -8 -6 -5 -6 6 -1 11 2 17 5 13 3 -3
4 -12 1 -19z m83 -357 c0 -5 -7 -12 -16 -15 -14 -5 -15 -4 -4 9 14 17 20 19
20 6z m1212 -585 c-6 -11 -20 20 -21 44 0 8 5 4 13 -10 7 -14 10 -29 8 -34z
m-609 -49 c-9 -16 -26 12 -18 30 7 17 8 17 15 -2 4 -11 5 -24 3 -28z m624 1
c-3 -7 -5 -2 -5 12 0 14 2 19 5 13 2 -7 2 -19 0 -25z m-657 -54 c0 -8 -5 -12
-10 -9 -6 4 -8 11 -5 16 9 14 15 11 15 -7z m-2360 -142 c0 -15 -2 -15 -10 -2
-13 20 -13 33 0 25 6 -3 10 -14 10 -23z m3090 -546 c0 -3 -4 -8 -10 -11 -5 -3
-10 -1 -10 4 0 6 5 11 10 11 6 0 10 -2 10 -4z m-23 -78 c-3 -8 -6 -5 -6 6 -1
11 2 17 5 13 3 -3 4 -12 1 -19z m-143 -741 c21 4 26 1 31 -23 3 -16 10 -36 15
-45 6 -11 2 -29 -11 -53 -23 -43 -24 -56 -4 -56 8 0 15 -7 15 -16 0 -11 -6
-14 -20 -9 -12 4 -20 2 -20 -5 0 -7 9 -14 20 -17 23 -6 26 -19 6 -26 -11 -4
-13 -16 -9 -41 3 -22 1 -42 -7 -50 -6 -9 -9 -20 -5 -25 3 -6 0 -29 -6 -52 -10
-33 -10 -42 0 -49 18 -10 10 -38 -44 -155 -16 -34 -28 -78 -29 -104 -1 -39 -4
-46 -26 -52 -23 -7 -11 -13 18 -10 17 3 15 -9 -5 -28 -10 -9 -19 -33 -20 -55
-2 -22 -12 -57 -23 -78 -11 -21 -23 -56 -26 -78 -4 -22 -10 -40 -14 -40 -4 0
-17 -20 -30 -45 -29 -56 -47 -72 -62 -57 -6 6 -16 8 -24 5 -20 -7 -39 74 -24
103 7 12 10 27 6 32 -3 6 -2 13 4 17 5 3 7 17 4 29 -4 16 0 25 9 29 9 3 13 14
10 25 -2 10 3 26 12 35 12 13 13 21 5 36 -14 26 -13 31 5 25 9 -4 15 -1 15 7
0 7 7 21 17 31 15 17 15 18 0 18 -21 0 -22 26 -2 34 13 4 13 9 4 24 -10 16 -9
23 8 41 16 18 20 31 16 62 -4 29 -2 39 8 39 12 0 12 2 0 9 -20 13 -25 70 -6
77 17 7 20 40 4 49 -5 4 -8 12 -6 18 2 7 0 22 -4 34 -6 17 -5 21 7 16 9 -3 14
1 12 13 -3 37 2 54 17 54 8 0 15 5 15 10 0 6 -7 10 -15 10 -8 0 -15 4 -15 8 0
13 30 71 40 77 5 3 7 12 4 19 -3 9 3 17 15 21 19 6 26 21 22 51 -1 7 10 15 24
18 32 8 23 26 -13 26 -25 1 -25 2 -9 14 9 7 17 16 17 20 0 4 7 14 15 23 9 9
13 24 10 37 -5 17 -3 16 9 -5 12 -20 21 -25 40 -22z m583 -53 c-3 -3 -12 -4
-19 -1 -8 3 -5 6 6 6 11 1 17 -2 13 -5z m13 -50 c0 -8 -5 -12 -10 -9 -6 4 -8
11 -5 16 9 14 15 11 15 -7z m110 -130 c0 -8 -5 -12 -10 -9 -6 4 -8 11 -5 16 9
14 15 11 15 -7z m370 -549 c0 -8 -4 -15 -9 -15 -5 0 -11 7 -15 15 -3 9 0 15 9
15 8 0 15 -7 15 -15z m-1316 -414 c16 -17 16 -19 0 -25 -14 -5 -14 -9 -3 -23
12 -14 12 -16 -2 -11 -13 5 -14 0 -8 -40 6 -36 4 -50 -7 -58 -8 -6 -12 -18 -9
-26 7 -17 -28 -51 -55 -53 -11 -1 -21 4 -24 12 -3 7 -1 13 4 13 6 0 10 4 10
10 0 5 -9 9 -21 7 -19 -2 -21 3 -21 52 -1 31 4 56 12 61 6 4 13 19 13 33 2 21
8 27 35 32 18 3 32 12 32 20 0 21 24 19 44 -4z"/>
<path d="M3201 6164 c0 -11 3 -14 6 -6 3 7 2 16 -1 19 -3 4 -6 -2 -5 -13z"/>
<path d="M3041 6134 c0 -11 3 -14 6 -6 3 7 2 16 -1 19 -3 4 -6 -2 -5 -13z"/>
<path d="M3294 6037 c-8 -9 -5 -18 13 -35 25 -23 48 -23 25 0 -7 7 -12 20 -12
30 0 21 -10 22 -26 5z"/>
<path d="M3352 5968 c-7 -9 -6 -17 4 -26 12 -11 14 -9 14 13 0 28 -3 30 -18
13z"/>
<path d="M3280 5931 c0 -12 5 -21 10 -21 6 0 10 6 10 14 0 8 -4 18 -10 21 -5
3 -10 -3 -10 -14z"/>
<path d="M3250 5510 c0 -5 7 -10 15 -10 8 0 15 5 15 10 0 6 -7 10 -15 10 -8 0
-15 -4 -15 -10z"/>
<path d="M4186 5154 c-4 -14 -5 -28 -3 -31 3 -2 8 8 11 23 4 14 5 28 3 31 -3
2 -8 -8 -11 -23z"/>
<path d="M4091 4844 c0 -11 3 -14 6 -6 3 7 2 16 -1 19 -3 4 -6 -2 -5 -13z"/>
<path d="M3250 4491 c0 -11 4 -22 9 -25 4 -3 6 6 3 19 -5 30 -12 33 -12 6z"/>
<path d="M3246 4235 c4 -8 8 -15 10 -15 2 0 4 7 4 15 0 8 -4 15 -10 15 -5 0
-7 -7 -4 -15z"/>
<path d="M3335 3830 c4 -6 11 -8 16 -5 14 9 11 15 -7 15 -8 0 -12 -5 -9 -10z"/>
<path d="M3480 3682 c0 -25 16 -37 23 -18 3 8 -1 20 -9 26 -11 10 -14 9 -14
-8z"/>
<path d="M3556 3652 c-2 -4 -1 -14 4 -22 7 -11 12 -12 21 -3 6 6 8 16 5 22 -8
13 -23 14 -30 3z"/>
<path d="M4465 3541 c-9 -16 9 -20 23 -5 10 12 10 14 -2 14 -8 0 -17 -4 -21
-9z"/>
<path d="M4494 3485 c-16 -12 -17 -14 -3 -15 9 0 19 7 23 15 7 19 5 19 -20 0z"/>
<path d="M4375 3430 c-3 -5 1 -10 9 -10 9 0 16 5 16 10 0 6 -4 10 -9 10 -6 0
-13 -4 -16 -10z"/>
<path d="M4575 3000 c-3 -5 -1 -10 4 -10 6 0 11 5 11 10 0 6 -2 10 -4 10 -3 0
-8 -4 -11 -10z"/>
<path d="M4596 2762 c-2 -4 -1 -14 5 -22 7 -12 9 -10 9 8 0 23 -5 28 -14 14z"/>
<path d="M4663 2513 c-15 -5 -18 -33 -4 -33 5 0 11 9 14 20 3 11 4 20 4 19 -1
0 -8 -3 -14 -6z"/>
<path d="M4690 2496 c0 -9 5 -16 10 -16 6 0 10 4 10 9 0 6 -4 13 -10 16 -5 3
-10 -1 -10 -9z"/>
<path d="M4670 2449 c0 -5 5 -7 10 -4 6 3 10 8 10 11 0 2 -4 4 -10 4 -5 0 -10
-5 -10 -11z"/>
<path d="M4760 2355 c0 -21 16 -27 29 -11 9 11 7 15 -9 19 -13 3 -20 0 -20 -8z"/>
<path d="M5350 1155 c0 -8 4 -15 10 -15 5 0 7 7 4 15 -4 8 -8 15 -10 15 -2 0
-4 -7 -4 -15z"/>
<path d="M4062 5365 c0 -16 2 -22 5 -12 2 9 2 23 0 30 -3 6 -5 -1 -5 -18z"/>
<path d="M4366 1743 c-11 -11 -6 -23 9 -23 8 0 15 4 15 9 0 13 -16 22 -24 14z"/>
<path d="M4410 1729 c0 -5 5 -7 10 -4 6 3 10 8 10 11 0 2 -4 4 -10 4 -5 0 -10
-5 -10 -11z"/>
<path d="M4240 1254 c0 -8 5 -12 10 -9 6 4 8 11 5 16 -9 14 -15 11 -15 -7z"/>
<path d="M4278 903 c7 -3 16 -2 19 1 4 3 -2 6 -13 5 -11 0 -14 -3 -6 -6z"/>
<path d="M4190 705 c0 -9 5 -15 11 -13 6 2 11 8 11 13 0 5 -5 11 -11 13 -6 2
-11 -4 -11 -13z"/>
<path d="M4138 423 c7 -3 16 -2 19 1 4 3 -2 6 -13 5 -11 0 -14 -3 -6 -6z"/>
<path d="M1011 4969 c-13 -11 -22 -22 -19 -25 3 -2 16 4 29 15 13 11 22 22 19
24 -3 3 -16 -3 -29 -14z"/>
</g>
</svg>
