<?xml version="1.0" standalone="no"?>
<!DOCTYPE svg PUBLIC "-//W3C//DTD SVG 20010904//EN"
 "http://www.w3.org/TR/2001/REC-SVG-20010904/DTD/svg10.dtd">
<svg version="1.0" xmlns="http://www.w3.org/2000/svg"
 width="790.000000pt" height="834.000000pt" viewBox="0 0 790.000000 834.000000"
 preserveAspectRatio="xMidYMid meet">

<g transform="translate(0.000000,834.000000) scale(0.100000,-0.100000)"
fill="#000000" stroke="none">
<path d="M3170 7969 c-325 -13 -788 -57 -1035 -99 -535 -90 -970 -252 -1310
-486 -204 -141 -427 -381 -559 -602 -61 -101 -115 -238 -153 -382 -33 -128
-35 -146 -40 -351 -4 -135 -1 -258 6 -330 14 -130 65 -356 110 -475 109 -295
304 -545 554 -710 158 -105 402 -215 627 -283 58 -18 112 -35 120 -38 8 -3
-19 -13 -60 -23 -329 -76 -633 -190 -811 -305 -108 -69 -156 -111 -163 -142
-14 -55 -56 -149 -104 -233 -134 -235 -208 -491 -219 -765 -11 -267 25 -462
117 -632 160 -297 435 -495 890 -641 92 -30 365 -99 436 -111 32 -5 111 -19
174 -30 366 -64 1190 -132 1715 -142 78 -1 43 -7 -140 -24 -93 -8 -208 -20
-255 -26 -84 -10 -102 -9 -530 22 -74 5 -214 19 -310 30 -635 73 -1065 169
-1449 323 -63 25 -117 43 -120 40 -15 -15 3 -224 23 -263 7 -14 23 -59 35 -98
13 -40 26 -75 31 -78 5 -3 16 -28 26 -57 16 -49 16 -52 -2 -65 -18 -13 -72 -9
-84 6 -7 8 -41 29 -66 40 -39 17 -184 163 -229 231 -101 153 -134 260 -151
495 -6 90 -7 90 -66 178 -63 93 -143 244 -164 312 -31 98 2 -162 45 -360 76
-347 227 -623 476 -870 279 -277 702 -486 1272 -629 273 -69 515 -105 963
-145 891 -80 2125 -64 2795 35 424 63 839 181 1145 327 485 232 814 589 973
1057 38 110 92 359 102 470 3 36 8 81 10 100 3 25 -2 17 -19 -30 -33 -94 -96
-215 -160 -307 l-55 -81 -11 -123 c-18 -199 -30 -239 -115 -399 -47 -88 -160
-212 -248 -271 -48 -31 -68 -39 -96 -37 -34 3 -36 4 -33 38 1 19 9 51 16 70
18 47 36 104 42 132 20 99 36 201 38 240 0 27 5 48 10 48 5 0 7 2 5 5 -5 5
-31 -4 -244 -86 -60 -23 -148 -53 -195 -66 -47 -13 -107 -31 -135 -39 -58 -16
-292 -66 -415 -88 -311 -57 -735 -100 -1225 -126 -192 -10 -229 -10 -288 4
-37 9 -140 22 -228 31 -89 8 -164 17 -167 20 -3 3 37 5 89 5 199 1 752 25
1039 46 620 44 1101 137 1470 283 279 111 483 265 615 466 134 205 185 390
185 677 0 264 -47 471 -169 741 -33 73 -63 144 -67 160 -3 15 -10 30 -15 33
-13 8 -11 62 2 66 24 8 -145 145 -268 217 -162 94 -472 213 -679 261 -119 28
-125 30 -119 40 3 4 24 11 48 15 96 15 368 116 529 195 241 119 440 286 574
481 188 272 294 657 294 1070 0 275 -47 493 -152 704 -307 616 -898 1003
-1824 1194 -301 62 -878 121 -1379 141 -273 11 -999 11 -1275 -1z m1060 -33
c146 -3 289 -9 319 -12 30 -3 82 -7 115 -9 34 -2 77 -6 96 -10 19 -4 62 -8 95
-10 143 -7 417 -39 437 -51 4 -3 29 -7 55 -10 27 -3 75 -12 108 -21 33 -8 92
-22 130 -30 39 -8 78 -22 88 -30 9 -9 17 -13 17 -10 0 6 53 -15 171 -68 20 -9
46 -17 58 -18 11 -1 21 -5 21 -9 0 -4 16 -10 35 -14 19 -3 35 -10 35 -14 0
-10 154 -75 198 -85 18 -4 32 -9 29 -11 -2 -3 -51 5 -108 16 -356 69 -965 130
-1589 160 -445 21 -1500 9 -1855 -20 -66 -6 -203 -17 -305 -26 -203 -16 -338
-33 -565 -68 -82 -13 -152 -22 -153 -20 -2 1 19 10 47 18 29 8 63 24 78 36 14
11 34 20 44 20 11 0 19 4 19 10 0 13 47 36 92 44 21 4 44 14 52 22 9 8 19 15
23 16 4 0 18 4 31 9 13 5 32 9 43 9 10 0 19 4 19 9 0 5 19 14 43 19 23 6 83
22 133 36 51 14 111 28 135 31 24 3 52 8 61 11 30 9 62 16 98 19 19 2 35 5 35
6 0 1 17 3 37 4 20 1 63 6 95 10 32 4 74 9 93 10 162 13 349 25 470 30 79 3
145 7 146 8 5 4 525 0 774 -7z m-2548 -1144 c15 -7 15 -10 0 -52 -20 -53 -123
-246 -164 -307 -15 -23 -28 -46 -28 -52 0 -6 -4 -11 -10 -11 -5 0 -10 4 -10 9
0 4 -14 23 -31 40 -17 18 -37 48 -45 67 -8 19 -18 34 -22 34 -4 0 -6 24 -5 52
1 29 2 62 2 74 1 36 88 112 136 119 6 1 17 5 25 8 12 5 101 22 130 25 3 0 13
-2 22 -6z m4729 -55 c40 -5 91 -54 124 -121 19 -38 35 -76 35 -86 0 -36 -31
-120 -45 -120 -7 0 -26 -18 -42 -39 -39 -55 -63 -65 -86 -35 -22 29 -172 320
-182 352 -5 16 -1 30 12 44 16 18 26 20 93 14 41 -4 82 -8 91 -9z m-2851 -58
c0 -6 -4 -7 -10 -4 -5 3 -10 11 -10 16 0 6 5 7 10 4 6 -3 10 -11 10 -16z
m-528 -395 c56 1 57 20 -14 -202 -54 -166 -82 -237 -100 -248 -6 -4 -18 2 -27
13 -18 22 -94 63 -117 63 -9 0 -12 5 -8 11 3 6 0 15 -7 20 -8 4 -14 12 -14 16
0 4 -12 24 -26 43 -33 46 -54 109 -41 122 6 6 8 17 5 24 -3 8 1 14 11 14 9 0
16 6 16 14 0 15 27 30 48 27 6 -1 12 4 12 10 0 22 62 69 89 68 27 -1 83 9 90
16 2 2 11 1 20 -4 9 -4 37 -7 63 -7z m2033 -7 c11 -1 22 -5 25 -9 3 -3 19 -8
35 -10 17 -2 39 -10 48 -18 38 -32 67 -61 68 -68 0 -4 3 -16 6 -27 2 -11 6
-50 8 -87 2 -58 -1 -72 -20 -93 -21 -25 -68 -55 -86 -55 -5 0 -25 -17 -44 -37
-20 -21 -41 -38 -48 -38 -11 -1 -21 -4 -74 -25 -30 -12 -41 8 -93 170 -52 163
-80 273 -71 282 3 4 28 9 54 12 27 2 50 6 53 9 4 4 85 0 139 -6z m-3696 -122
c8 -44 -177 -295 -217 -295 -30 0 -42 49 -38 161 3 105 14 142 46 155 8 3 47
8 85 11 39 3 72 7 74 9 8 8 46 -24 50 -41z m5307 25 c16 6 24 6 24 -1 0 -6 4
-8 9 -5 14 9 43 -31 61 -83 21 -59 13 -126 -25 -206 -24 -51 -27 -54 -50 -43
-47 21 -172 200 -188 269 -9 35 20 60 75 66 24 3 45 7 47 9 3 2 9 0 14 -5 6
-6 19 -6 33 -1z m-3520 -67 c-10 -84 -9 -82 -44 -155 -32 -67 -52 -92 -52 -66
0 14 59 201 79 251 17 44 24 31 17 -30z m1614 -99 c11 -36 20 -74 19 -83 -1
-9 -9 7 -18 36 -9 29 -20 55 -24 59 -8 8 -10 54 -2 54 2 0 13 -30 25 -66z
m-3225 -73 c-6 -5 -27 -14 -47 -21 -41 -13 -51 -30 -17 -30 27 0 16 -16 -17
-23 -20 -3 -28 1 -37 20 -13 29 1 42 48 44 17 0 39 4 50 9 27 11 31 12 20 1z
m4873 -57 c25 -7 29 -35 8 -53 -16 -14 -32 2 -21 20 4 6 -1 17 -11 24 -20 15
-12 18 24 9z m-1098 -196 c0 -5 7 -8 15 -8 22 0 47 -46 48 -88 1 -47 -47 -118
-137 -200 -20 -18 -36 -37 -36 -42 0 -6 -7 -10 -15 -10 -8 0 -15 -7 -15 -15 0
-21 -20 -14 -45 15 -43 52 -111 206 -122 279 -6 38 9 53 62 58 98 10 118 12
122 16 7 8 123 2 123 -5z m-2513 -13 c30 -5 44 -13 49 -27 7 -24 -38 -154 -78
-221 -15 -26 -28 -50 -28 -53 0 -3 -12 -21 -26 -39 -30 -39 -37 -36 -69 32
-11 22 -23 39 -27 37 -5 -3 -13 6 -20 20 -6 14 -14 26 -19 26 -4 0 -14 17 -22
38 -8 21 -22 43 -29 50 -8 6 -14 22 -12 34 1 13 3 26 3 31 1 4 8 7 16 7 8 0
15 5 15 11 0 5 -4 7 -10 4 -5 -3 -10 -2 -10 3 0 10 21 30 33 31 25 2 57 14 57
22 0 9 110 5 177 -6z m428 -255 c-3 -5 -12 -10 -19 -10 -7 0 -21 -6 -32 -14
-18 -14 -18 -15 6 -24 23 -9 19 -11 -45 -31 -38 -13 -102 -25 -142 -28 -72 -6
-72 -6 -79 21 -3 15 -5 29 -3 30 2 2 42 9 89 14 47 6 112 20 145 30 70 23 89
26 80 12z m1433 -16 c48 -20 171 -44 229 -44 43 0 44 -1 41 -27 -3 -28 -3 -28
-79 -28 -73 1 -152 18 -174 38 -6 5 -1 8 15 7 73 -6 73 1 0 31 -41 17 -77 32
-79 35 -9 8 10 4 47 -12z m-3258 -608 c66 -20 229 -37 360 -38 136 -2 303 7
318 16 6 4 8 -2 5 -14 -5 -19 -63 -70 -81 -70 -5 0 -24 -8 -43 -17 -40 -20
-189 -26 -294 -11 -108 15 -263 71 -358 128 l-32 20 40 0 c22 0 60 -6 85 -14z
m5196 -1 c8 -21 -13 -45 -61 -67 -22 -10 -47 -23 -55 -27 -71 -42 -305 -96
-378 -87 -23 3 -61 8 -83 11 -43 5 -166 40 -186 53 -6 4 -13 14 -15 22 -2 12
25 14 167 16 199 3 284 10 348 29 26 8 47 11 47 8 0 -3 6 0 13 6 8 6 16 8 19
6 3 -3 17 -1 32 5 15 5 40 12 56 15 15 3 39 9 52 14 33 14 38 13 44 -4z
m-5296 -115 c0 -5 -2 -10 -4 -10 -3 0 -8 5 -11 10 -3 6 -1 10 4 10 6 0 11 -4
11 -10z m93 -70 c40 -8 51 5 15 19 -13 5 -25 8 -28 6 -3 -1 -14 7 -25 17 l-20
20 20 -5 c53 -15 202 -48 260 -57 65 -10 291 -13 350 -4 17 2 40 6 52 7 13 2
26 6 29 10 4 4 14 7 22 7 12 0 12 -3 1 -16 -7 -8 -20 -13 -30 -11 -13 3 -16 0
-12 -11 4 -10 2 -13 -5 -8 -6 3 -14 1 -18 -5 -5 -9 2 -10 24 -6 82 17 94 16
37 -5 -54 -20 -79 -22 -270 -22 -129 0 -233 4 -270 12 -83 17 -309 90 -332
108 -10 7 23 -1 72 -18 50 -17 107 -34 128 -38z m5215 46 c-10 -7 -18 -19 -18
-26 0 -7 -7 -10 -15 -6 -9 3 -15 0 -15 -10 0 -16 6 -16 55 1 13 4 11 1 -5 -8
-42 -25 -138 -54 -268 -81 -140 -30 -345 -36 -461 -13 l-66 12 60 3 c32 2 65
8 72 13 7 6 17 8 22 5 5 -4 12 -3 15 2 3 5 42 9 88 9 103 1 340 45 450 82 94
33 110 36 86 17z m-708 -95 c0 -4 -11 -7 -24 -7 -14 0 -23 3 -21 6 5 9 45 10
45 1z m37 -7 c-3 -3 -12 -4 -19 -1 -8 3 -5 6 6 6 11 1 17 -2 13 -5z m-1417
-424 c131 -6 236 -15 269 -24 54 -15 80 -31 69 -42 -9 -9 -148 -7 -308 4 -80
5 -452 9 -827 8 -376 0 -683 2 -683 5 0 4 -10 9 -22 13 -37 9 -9 24 67 34 91
12 1158 14 1435 2z m-570 -250 c0 -5 7 -10 15 -10 22 0 21 -142 -1 -164 -20
-20 -20 -20 -60 5 -29 18 -34 26 -34 60 0 35 4 42 35 60 19 12 35 25 35 30 0
6 -17 -2 -37 -16 -34 -22 -48 -25 -129 -25 -74 0 -96 4 -115 19 -30 22 -69 44
-69 36 0 -2 18 -16 40 -30 35 -22 40 -30 40 -63 -1 -51 -28 -85 -66 -80 l-29
3 -3 78 c-2 50 1 84 9 93 9 11 49 14 190 14 113 0 179 -4 179 -10z m510 -10
c17 -9 20 -21 20 -80 0 -37 -3 -75 -6 -84 -8 -21 -38 -20 -69 0 -20 13 -25 25
-25 60 0 40 3 47 35 66 51 30 36 34 -21 5 -44 -22 -57 -23 -136 -18 -65 5 -93
11 -114 27 -60 44 -50 48 130 41 91 -3 175 -11 186 -17z m-1030 -57 c0 -94 -7
-113 -38 -113 -40 0 -62 27 -62 76 0 39 4 46 43 73 23 17 45 30 50 31 4 0 7
-30 7 -67z m714 21 c35 -32 38 -39 33 -72 -10 -57 -64 -91 -95 -60 -7 7 -12
41 -12 83 0 99 11 107 74 49z m-718 -252 c0 -46 -3 -85 -8 -88 -4 -3 -28 9
-53 27 -37 27 -45 38 -45 64 0 48 35 87 74 83 l31 -3 1 -83z m220 67 c11 -13
19 -35 19 -60 0 -32 -7 -45 -30 -65 l-30 -26 38 21 c54 30 197 30 245 1 46
-28 52 -25 13 8 -28 23 -32 32 -29 66 4 46 40 79 75 70 27 -7 32 -28 26 -108
-4 -47 -10 -66 -19 -66 -8 0 -14 -3 -14 -7 0 -12 -341 -3 -363 9 -17 9 -19 18
-15 82 3 40 8 78 12 84 11 19 51 14 72 -9z m499 -2 c42 -35 39 -89 -6 -127
l-34 -30 48 26 c45 24 55 26 134 21 71 -5 91 -10 126 -34 l42 -28 -175 -3
c-113 -2 -176 1 -178 8 -2 5 -10 10 -18 10 -11 0 -14 17 -14 78 0 104 21 126
75 79z m333 -79 c1 -49 1 -88 -2 -88 -19 0 -95 64 -100 84 -12 50 23 98 68 94
l31 -3 3 -87z m-4107 -125 c-10 -17 -10 -16 -11 3 0 23 13 41 18 25 2 -6 -1
-18 -7 -28z m-36 -61 c-7 -20 -25 -67 -39 -104 -16 -41 -35 -133 -52 -245 -46
-311 -25 -530 68 -738 130 -286 362 -453 868 -625 69 -24 130 -47 137 -52 7
-5 17 -7 23 -3 5 3 10 2 10 -4 0 -14 -21 -25 -29 -15 -3 5 -24 11 -45 12 -22
2 -60 10 -85 18 -25 8 -56 14 -68 14 -13 0 -23 5 -23 10 0 6 -10 10 -23 10
-35 0 -177 55 -309 120 -134 67 -270 164 -358 257 -69 72 -90 104 -140 207
-121 249 -146 483 -84 796 28 142 100 350 121 350 7 0 13 9 13 20 0 13 5 17
14 14 12 -5 13 -11 1 -42z m4115 -35 c0 -2 -10 -12 -22 -23 l-23 -19 19 23
c18 21 26 27 26 19z m-385 -60 c22 -3 30 -9 30 -23 0 -16 -11 -20 -70 -27 -97
-12 -298 -4 -303 11 -2 7 -9 9 -15 6 -7 -3 -1 3 13 15 14 11 41 22 60 24 37 3
235 -1 285 -6z m3469 -51 c21 -44 61 -218 75 -326 25 -189 20 -319 -21 -485
-50 -206 -133 -348 -288 -491 -59 -54 -186 -143 -241 -168 -19 -9 -41 -20 -49
-25 -21 -14 -101 -48 -130 -56 -14 -4 -29 -11 -35 -15 -25 -18 -305 -97 -360
-101 -85 -6 -66 6 85 55 91 29 206 69 255 88 402 158 619 385 705 738 32 131
40 380 15 515 -11 62 -13 100 -7 112 10 19 8 30 -14 80 -8 17 -15 44 -16 60
-1 15 -6 34 -11 41 -7 8 -5 12 6 12 8 0 22 -15 31 -34z m-5993 -290 c8 4 80
-65 101 -98 17 -25 16 -27 -9 -52 -14 -14 -44 -31 -67 -36 -22 -6 -52 -15 -66
-21 -14 -6 -36 -13 -50 -16 -32 -6 -127 16 -141 34 -6 7 -18 13 -26 13 -7 0
-16 7 -19 15 -4 8 -12 15 -20 15 -8 0 -14 5 -14 11 0 6 -9 24 -20 39 -25 36
-18 73 16 89 13 6 52 13 86 16 35 4 64 7 65 9 2 1 38 -3 80 -10 43 -6 81 -10
84 -8z m-962 -162 c13 -22 16 -32 8 -24 -26 27 -77 132 -76 159 0 18 7 8 23
-35 12 -34 33 -79 45 -100z m5914 101 c14 -9 30 -14 35 -11 5 3 14 -6 20 -19
7 -14 8 -25 3 -25 -5 0 -14 -12 -20 -27 -12 -29 -116 -110 -133 -105 -6 1 -16
-2 -22 -7 -18 -15 -174 5 -229 28 -55 24 -64 37 -42 61 10 11 15 28 12 39 -3
14 1 22 14 26 10 4 19 11 19 16 0 5 9 9 20 9 11 0 34 9 51 19 28 17 47 19 139
16 80 -2 114 -7 133 -20z m768 -62 c-12 -20 -14 -14 -5 12 4 9 9 14 11 11 3
-2 0 -13 -6 -23z m-6737 -107 c11 -25 19 -47 18 -50 -2 -4 8 -17 20 -31 13
-13 28 -31 35 -39 14 -17 25 -60 24 -96 -1 -18 2 -21 8 -11 7 11 11 9 21 -9 6
-12 9 -24 6 -27 -3 -3 6 -23 19 -44 14 -21 26 -44 27 -51 2 -7 9 -19 16 -26 7
-8 11 -22 10 -31 -2 -9 3 -22 12 -28 11 -9 12 -15 4 -20 -8 -6 -5 -22 12 -57
18 -37 21 -53 13 -63 -9 -10 -8 -13 0 -13 7 0 10 -4 7 -8 -3 -5 6 -27 20 -51
13 -24 22 -47 19 -51 -3 -5 -1 -11 5 -15 5 -3 19 -26 30 -49 11 -24 27 -47 36
-50 13 -5 14 -10 6 -18 -35 -35 -235 130 -311 257 -80 133 -118 306 -107 493
3 59 5 115 6 124 0 29 24 10 44 -36z m2306 -56 c0 -4 11 -5 24 -3 17 4 28 -1
38 -16 7 -12 18 -21 25 -21 7 0 13 -5 13 -11 0 -5 4 -8 8 -5 4 3 16 -11 27
-30 10 -19 22 -34 27 -34 5 0 7 -4 3 -9 -3 -6 4 -15 15 -21 24 -13 25 -25 6
-62 -15 -29 -9 -37 11 -17 9 9 11 7 6 -9 -3 -12 -10 -20 -16 -19 -6 1 -12 -7
-14 -18 -10 -71 -16 -84 -44 -95 -16 -7 -27 -16 -24 -20 3 -5 -7 -18 -22 -30
-15 -12 -29 -18 -30 -13 -1 4 -20 98 -43 208 -22 110 -43 210 -46 222 -5 18
-3 21 15 16 12 -3 21 -9 21 -13z m-74 -3 c9 -8 56 -218 69 -303 18 -117 18
-137 5 -129 -5 3 -10 0 -10 -8 0 -7 -7 -14 -15 -14 -8 0 -15 4 -15 9 0 4 -7 8
-15 8 -8 0 -15 4 -15 9 0 5 -7 8 -16 7 -23 -2 -86 102 -99 164 -15 70 -4 217
15 205 5 -3 13 10 20 29 9 30 14 33 42 30 17 -2 33 -5 34 -7z m2183 -138 c-17
-74 -41 -182 -53 -241 l-22 -108 -35 30 c-19 16 -44 29 -56 30 -13 0 -23 6
-23 13 0 6 -15 27 -34 45 -22 22 -36 45 -40 72 -3 22 -10 40 -15 40 -9 0 -10
81 -1 90 13 12 44 66 42 73 -1 4 4 7 12 7 8 0 17 7 20 16 3 8 10 12 16 9 5 -3
10 -1 10 6 0 6 8 9 20 6 11 -3 18 -2 15 3 -3 4 6 11 20 14 14 4 25 11 25 17 0
6 6 6 19 0 10 -6 21 -8 25 -4 3 3 20 6 36 5 20 0 33 5 37 16 4 9 8 11 10 6 2
-6 -10 -71 -28 -145z m106 91 c16 0 39 -75 41 -135 1 -27 3 -54 4 -60 10 -33
-78 -180 -118 -198 -15 -6 -34 -18 -42 -26 -13 -13 -15 -12 -18 7 -4 27 51
296 80 386 19 60 23 66 31 48 6 -12 15 -22 22 -22z m2237 -196 c-3 -109 -48
-252 -108 -341 -47 -70 -180 -203 -202 -203 -5 0 -22 -11 -37 -24 -53 -46 -55
-10 -3 46 16 17 38 51 49 75 11 23 25 43 32 43 8 0 7 4 -3 10 -12 8 -11 13 8
33 12 13 22 29 22 37 0 8 10 24 22 38 13 13 23 31 23 40 0 9 5 17 12 17 6 0
15 3 19 8 4 4 2 7 -5 7 -15 0 13 50 35 63 8 4 10 15 7 25 -6 14 -4 15 9 4 13
-10 17 -10 22 3 3 9 2 13 -4 10 -16 -10 -11 21 5 35 8 7 15 18 15 26 0 7 5 16
12 20 7 5 8 3 3 -6 -5 -8 -4 -11 3 -6 6 4 9 13 5 21 -3 8 0 15 6 15 6 0 11 5
11 11 0 6 6 17 14 25 8 7 13 25 11 39 -1 16 2 24 9 22 7 -3 10 -34 8 -93z
m-6543 -75 c13 -37 6 -37 -14 1 -10 18 -15 53 -14 97 l2 68 8 -68 c4 -38 12
-81 18 -98z m766 -39 c4 -6 11 -8 16 -4 6 3 13 -3 16 -15 3 -12 10 -21 17 -21
11 0 86 -109 86 -126 0 -5 6 -20 13 -34 7 -14 14 -45 16 -70 2 -25 5 -49 8
-53 3 -4 -1 -14 -7 -22 -7 -8 -8 -15 -3 -15 5 0 8 -10 7 -22 -1 -25 -21 -78
-28 -78 -2 0 -25 62 -50 138 -25 76 -63 181 -84 235 -27 66 -35 97 -26 97 7 0
16 -5 19 -10z m-36 -82 c41 -88 96 -249 105 -308 6 -33 5 -33 -10 8 -9 23 -19
40 -23 38 -3 -3 -14 9 -24 25 -9 17 -12 27 -6 23 7 -4 10 -3 8 2 -17 35 -45
90 -49 94 -3 3 -6 16 -7 30 -1 25 -25 121 -38 153 -4 9 -4 17 -1 17 4 0 24
-37 45 -82z m-701 47 c-3 -3 -9 2 -12 12 -6 14 -5 15 5 6 7 -7 10 -15 7 -18z
m5496 -30 c-3 -11 -20 -51 -37 -90 -17 -38 -54 -140 -83 -225 -29 -85 -53
-145 -53 -133 -1 12 -6 23 -13 25 -17 6 -34 93 -32 168 2 83 6 103 22 113 6 4
21 26 32 47 11 21 33 47 50 57 16 9 30 21 30 25 0 11 47 34 70 34 15 0 19 -5
14 -21z m5 -136 c-12 -41 -25 -78 -29 -84 -7 -9 -80 -212 -80 -223 0 -3 -2 -3
-5 0 -9 8 52 209 92 303 19 47 37 84 39 82 2 -2 -6 -37 -17 -78z m-2699 -268
c0 -5 30 -10 68 -11 79 -2 68 -2 205 3 59 3 107 2 107 -1 0 -4 27 -6 60 -6 33
1 63 -2 66 -7 9 -15 24 -10 18 6 -5 13 -2 14 22 5 15 -6 40 -8 56 -5 20 5 28
3 28 -7 0 -10 2 -10 9 2 6 8 7 18 4 23 -4 6 4 7 18 4 13 -3 58 -11 99 -17 94
-14 216 -47 395 -105 123 -41 305 -93 430 -125 126 -31 406 -66 620 -76 77 -3
144 -9 150 -12 5 -4 23 -7 40 -8 86 -6 95 -8 83 -21 -8 -7 -89 -21 -188 -33
-96 -11 -182 -23 -190 -25 -30 -9 -487 -36 -847 -50 -574 -23 -1161 -20 -1788
10 -66 3 -208 10 -315 15 -200 9 -347 23 -691 65 -255 31 -339 51 -324 74 10
17 76 23 280 26 116 2 257 9 315 15 172 18 410 68 603 126 348 106 497 140
615 143 28 0 52 -3 52 -8z m-1873 -357 c-3 -3 -12 -4 -19 -1 -8 3 -5 6 6 6 11
1 17 -2 13 -5z m250 -40 c-3 -3 -12 -4 -19 -1 -8 3 -5 6 6 6 11 1 17 -2 13 -5z
m56 -1 c-7 -2 -21 -2 -30 0 -10 3 -4 5 12 5 17 0 24 -2 18 -5z m292 -33 c88
-11 232 -22 320 -25 88 -3 223 -11 300 -16 474 -35 1263 -46 1775 -25 223 9
421 18 440 21 19 2 94 7 165 10 72 3 162 7 200 10 69 4 69 4 15 -5 -58 -9
-225 -23 -510 -42 -236 -16 -1790 -16 -1945 0 -60 7 -225 19 -365 27 -140 8
-293 19 -340 25 -47 5 -137 15 -200 21 -63 6 -119 16 -125 21 -11 10 20 7 270
-22z m3583 3 c-10 -2 -28 -2 -40 0 -13 2 -5 4 17 4 22 1 32 -1 23 -4z m-190
-20 c-10 -2 -28 -2 -40 0 -13 2 -5 4 17 4 22 1 32 -1 23 -4z m-1094 -263 c131
2 20 -39 -239 -90 -381 -74 -697 -61 -1130 46 -127 31 -128 32 -119 46 5 8
182 9 718 4 391 -4 737 -6 770 -6z m-1509 -40 c3 -5 -1 -10 -9 -10 -8 0 -18 5
-21 10 -3 6 1 10 9 10 8 0 18 -4 21 -10z m1667 -8 c-3 -10 -1 -13 6 -8 6 3 13
2 16 -3 4 -5 2 -12 -3 -16 -6 -3 -8 -12 -5 -20 4 -10 0 -12 -15 -8 -24 6 -27
-2 -8 -21 18 -19 46 -26 53 -15 4 6 11 6 20 -2 26 -22 -12 -35 -44 -15 -7 4
-16 6 -19 3 -8 -8 36 -28 55 -25 9 1 22 0 27 -4 6 -3 30 -7 55 -9 25 -2 50
-10 57 -19 11 -13 12 -13 13 4 0 18 1 18 19 2 10 -9 25 -14 33 -11 11 4 14 -2
12 -25 -1 -16 3 -30 9 -30 6 0 21 -10 34 -22 15 -14 27 -19 31 -12 9 12 52 13
52 1 0 -5 7 -7 15 -3 8 3 14 2 13 -2 -1 -4 2 -15 7 -25 7 -17 9 -17 26 -1 14
12 19 14 19 4 0 -7 3 -11 6 -8 3 4 14 -2 25 -13 10 -10 26 -19 34 -19 8 0 15
-9 15 -21 0 -22 61 -54 86 -45 8 3 11 0 7 -9 -3 -8 -9 -13 -13 -10 -5 3 -11 1
-15 -4 -3 -6 -12 -8 -20 -4 -8 3 -15 1 -15 -5 0 -5 -9 -12 -21 -15 -14 -4 -18
-10 -13 -19 6 -11 5 -11 -8 0 -14 11 -18 11 -25 -2 -6 -12 -32 -17 -93 -21
-47 -4 -96 -8 -110 -10 -14 -2 -45 -6 -70 -9 -25 -3 -83 -10 -130 -15 -47 -6
-130 -13 -185 -15 -55 -3 -116 -9 -135 -13 -78 -15 -875 -7 -1053 12 -15 1
-30 -1 -32 -5 -3 -4 -22 -4 -42 0 -21 5 -81 11 -133 13 -52 3 -95 6 -95 6 0 1
-40 4 -89 7 -50 3 -93 7 -98 10 -4 3 -43 7 -85 9 -96 6 -131 13 -161 31 -12 8
-26 12 -31 10 -5 -3 -29 0 -54 8 -25 8 -49 11 -53 7 -4 -3 -4 -1 0 6 4 8 -2
15 -19 19 -13 3 -22 10 -19 15 3 5 -1 9 -8 9 -8 1 -6 6 6 15 10 8 22 12 27 10
4 -3 10 1 12 7 4 10 8 10 15 -1 7 -9 12 -10 16 -2 4 6 2 11 -3 11 -15 0 -14
37 1 46 7 4 8 3 4 -4 -4 -7 -2 -12 4 -12 6 0 9 -4 6 -8 -3 -5 2 -9 10 -9 10 0
11 4 4 11 -22 22 -11 36 25 31 20 -2 33 0 31 4 -3 5 15 7 39 5 35 -3 49 1 64
17 11 12 24 18 30 14 6 -3 11 -1 11 5 0 6 4 8 10 5 6 -3 7 1 4 10 -4 9 -3 15
2 14 34 -6 90 32 81 55 -3 7 3 13 14 13 12 1 16 -3 12 -13 -3 -8 0 -14 6 -14
10 0 15 13 13 32 -1 3 5 9 13 12 10 3 15 -1 15 -11 0 -13 3 -14 12 -5 7 7 17
12 23 12 5 0 3 -5 -5 -10 -11 -7 -12 -10 -2 -10 7 0 20 7 28 15 14 13 14 15 0
15 -8 0 -18 6 -22 13 -4 6 -4 9 1 5 4 -4 14 0 22 10 14 16 14 16 9 -2 -5 -13
-2 -17 9 -13 21 9 28 -9 9 -27 -8 -9 -11 -16 -6 -16 5 0 15 7 22 15 10 12 10
18 1 29 -8 10 -9 16 -1 21 15 9 12 25 -4 19 -8 -3 -17 0 -21 6 -3 6 -3 10 2 9
20 -3 33 2 30 14 -1 7 9 12 23 13 36 1 49 -6 43 -22 -3 -8 0 -14 6 -14 7 0 9
-9 5 -25 -4 -16 -2 -25 6 -25 6 0 8 5 5 10 -3 6 -1 10 6 10 7 0 9 8 6 21 -5
19 -4 20 12 5 10 -9 22 -16 27 -16 5 0 3 4 -4 9 -11 7 -11 9 2 14 9 4 16 3 16
-1 0 -4 35 -6 78 -6 50 1 102 -6 147 -18 116 -33 627 -32 700 1 11 5 47 12 80
15 96 10 267 48 300 68 40 24 147 24 137 0z m158 -6 c0 -2 -6 -9 -14 -15 -11
-9 -16 -9 -22 0 -4 7 -3 9 4 5 6 -3 13 -2 17 4 6 10 15 14 15 6z m-95 -16 c3
-5 -2 -10 -12 -10 -15 0 -16 -2 -3 -10 13 -8 12 -10 -2 -10 -20 0 -21 1 -12
24 7 18 20 21 29 6z m80 -101 c-7 -10 -35 -1 -35 11 0 5 9 6 20 3 11 -3 17 -9
15 -14z m315 -149 c0 -5 -5 -10 -11 -10 -5 0 -7 5 -4 10 3 6 8 10 11 10 2 0 4
-4 4 -10z m134 -86 c3 -8 2 -12 -4 -9 -6 3 -10 10 -10 16 0 14 7 11 14 -7z"/>
<path d="M6530 4609 c0 -5 -4 -8 -9 -5 -5 3 -11 -1 -14 -9 -5 -11 -1 -12 15
-6 23 8 37 31 19 31 -6 0 -11 -5 -11 -11z"/>
<path d="M3233 1678 c-16 -20 -73 -136 -73 -149 0 -26 27 2 55 57 25 48 35 60
60 64 40 7 40 34 -1 38 -17 2 -35 -3 -41 -10z"/>
<path d="M4284 1672 c-11 -8 -74 -138 -74 -154 0 -24 24 2 53 57 l32 60 153
-1 c136 -1 153 0 150 15 -2 9 -17 19 -33 22 -42 9 -268 10 -281 1z"/>
<path d="M4407 1590 c-35 -6 -67 -25 -56 -33 2 -2 41 -1 87 1 72 4 82 6 82 23
0 15 -7 19 -37 18 -21 -1 -55 -5 -76 -9z"/>
<path d="M3234 1549 c-12 -20 20 -29 107 -29 79 0 109 9 109 32 0 13 -208 10
-216 -3z"/>
<path d="M3180 1020 c0 -5 5 -10 11 -10 5 0 7 5 4 10 -3 6 -8 10 -11 10 -2 0
-4 -4 -4 -10z"/>
<path d="M4690 995 c0 -5 5 -17 10 -25 5 -8 10 -10 10 -5 0 6 -5 17 -10 25 -5
8 -10 11 -10 5z"/>
<path d="M3187 973 c11 -31 15 -35 24 -22 4 8 3 19 -3 26 -15 19 -28 16 -21
-4z"/>
<path d="M3277 966 c-4 -10 -1 -13 8 -9 8 3 12 9 9 14 -7 12 -11 11 -17 -5z"/>
<path d="M2650 660 c0 -5 5 -10 10 -10 6 0 10 5 10 10 0 6 -4 10 -10 10 -5 0
-10 -4 -10 -10z"/>
</g>
</svg>
