<?xml version="1.0" standalone="no"?>
<!DOCTYPE svg PUBLIC "-//W3C//DTD SVG 20010904//EN"
 "http://www.w3.org/TR/2001/REC-SVG-20010904/DTD/svg10.dtd">
<svg version="1.0" xmlns="http://www.w3.org/2000/svg"
 width="704.000000pt" height="893.000000pt" viewBox="0 0 704.000000 893.000000"
 preserveAspectRatio="xMidYMid meet">

<g transform="translate(0.000000,893.000000) scale(0.100000,-0.100000)"
fill="#000000" stroke="none">
<path d="M4825 8830 c-115 -13 -170 -37 -305 -131 -70 -49 -106 -87 -179 -189
-101 -140 -106 -153 -176 -425 -46 -184 -75 -357 -75 -459 0 -125 10 -120
-210 -102 -102 9 -239 16 -305 17 -176 2 -179 3 -215 60 -35 53 -177 192 -267
261 -112 85 -360 223 -533 296 -128 54 -250 94 -432 141 -220 58 -353 74 -603
74 -531 0 -862 -105 -1102 -349 -96 -97 -140 -180 -196 -364 -39 -127 -58
-273 -77 -585 -26 -421 38 -871 149 -1042 32 -50 47 -63 92 -81 107 -43 283
-48 378 -10 14 6 53 17 86 25 55 13 61 12 72 -3 7 -10 13 -27 13 -38 0 -80
137 -416 251 -616 98 -173 272 -401 413 -543 104 -104 244 -228 306 -270 25
-17 47 -33 50 -36 7 -9 183 -121 255 -164 66 -39 251 -132 330 -167 28 -12 64
-28 82 -36 17 -8 34 -14 38 -14 4 0 21 -6 38 -14 18 -8 76 -29 130 -46 102
-34 119 -53 51 -58 -122 -9 -490 -91 -661 -147 -395 -131 -710 -319 -995 -594
-247 -237 -376 -424 -578 -833 -106 -214 -143 -328 -176 -533 -53 -342 70
-690 317 -890 178 -144 326 -217 666 -329 94 -31 177 -63 183 -71 10 -12 3
-12 -41 1 -51 15 -321 104 -364 120 -11 4 -17 4 -14 0 12 -13 222 -95 231 -90
4 3 8 1 8 -5 0 -10 11 -14 140 -51 41 -12 91 -27 110 -35 67 -25 610 -140 800
-170 52 -8 158 -26 235 -39 77 -14 190 -32 250 -41 61 -8 139 -22 175 -30 36
-8 92 -19 125 -25 33 -5 83 -14 110 -20 28 -6 66 -13 85 -16 19 -3 38 -8 41
-10 6 -4 38 -8 153 -19 33 -3 62 -8 66 -10 9 -5 194 -24 309 -31 53 -3 112 -8
131 -10 19 -3 132 -7 250 -9 306 -4 475 17 683 86 233 77 451 189 632 324 62
46 160 138 157 147 -1 5 9 13 24 18 14 6 23 14 20 19 -3 4 4 17 17 27 21 19
21 19 7 -1 -14 -18 -14 -19 2 -7 10 8 17 17 16 20 -2 19 3 32 13 32 5 0 7 -5
3 -12 -4 -6 -3 -8 4 -5 5 4 8 15 5 26 -2 10 3 25 11 34 9 8 16 19 16 24 1 4
14 24 30 43 17 19 30 42 30 52 0 10 7 21 15 24 8 4 13 10 10 14 -3 4 2 10 10
14 9 3 12 12 8 22 -3 9 -2 19 3 23 5 3 20 19 34 36 14 16 17 24 8 17 -14 -11
-16 -11 -11 6 3 14 11 18 26 14 12 -3 19 -1 15 3 -4 4 -1 22 7 40 7 19 10 37
7 41 -4 4 -2 4 5 0 13 -7 47 47 36 58 -4 3 -2 6 4 6 5 0 22 26 37 58 15 31 53
108 84 171 31 62 58 121 59 130 4 35 13 64 25 78 7 8 13 27 15 42 l2 26 -11
-25 c-41 -93 -99 -200 -132 -245 -12 -16 -26 -39 -29 -49 -4 -10 -10 -16 -13
-13 -4 3 9 31 27 62 80 134 97 166 143 269 149 335 199 600 167 882 -23 192
-101 400 -202 530 -63 82 -217 225 -304 283 -102 68 -376 202 -480 236 -44 14
-87 28 -95 31 -27 10 20 34 66 34 82 0 376 73 514 127 322 127 529 307 662
575 10 20 18 42 18 47 0 10 22 65 41 103 4 9 19 72 33 139 58 277 14 614 -126
976 -47 122 -172 369 -184 366 -5 -1 -12 -44 -16 -95 -28 -358 -57 -568 -109
-773 -32 -126 -74 -268 -87 -292 -13 -22 -6 151 6 174 6 11 8 23 5 27 -3 3 -1
7 5 7 7 1 17 2 24 3 6 0 13 8 15 16 4 12 3 12 -5 1 -8 -11 -11 -11 -18 0 -12
20 -14 39 -4 39 5 0 12 17 16 38 8 47 14 57 24 42 6 -9 10 -6 15 9 8 27 -2 41
-15 21 -6 -8 -10 -10 -10 -4 0 6 3 14 8 18 4 4 7 12 7 16 0 5 9 16 20 23 16
12 17 19 9 38 -13 28 -9 70 8 80 6 4 12 17 13 30 2 13 6 38 9 54 4 17 9 67 11
113 2 46 7 87 10 92 3 5 1 11 -5 15 -6 4 -7 13 -1 23 9 18 24 151 24 212 0 19
-3 73 -7 120 -4 47 -9 118 -9 157 -1 40 -4 73 -7 73 -3 0 -5 24 -6 52 -8 517
-17 834 -25 923 -6 61 -12 140 -14 176 -2 37 -10 92 -18 122 -8 31 -12 58 -9
61 2 3 -1 12 -7 20 -7 8 -13 36 -15 63 -1 26 -10 64 -20 83 -47 91 -242 319
-341 400 -17 14 -82 68 -145 121 -229 192 -481 357 -630 413 -144 53 -349 82
-485 66z m-42 -291 c-104 -51 -163 -185 -182 -414 l-8 -100 -1 120 c-1 95 2
133 19 185 20 66 52 128 86 166 25 29 84 64 108 64 13 0 5 -8 -22 -21z m-310
-65 c-4 -40 -14 -90 -23 -119 -55 -178 -65 -244 -65 -430 0 -148 2 -166 28
-239 15 -43 24 -82 21 -87 -3 -5 0 -9 6 -9 7 0 10 -6 7 -14 -3 -8 1 -20 9 -26
8 -7 14 -18 14 -24 0 -6 11 -28 25 -49 14 -20 23 -37 20 -37 -6 0 9 -20 38
-49 17 -17 48 -19 87 -4 59 23 161 23 198 0 16 -11 15 -63 -2 -90 -17 -26 -10
-77 11 -77 8 0 27 9 42 20 40 28 212 110 230 110 9 0 -11 -12 -44 -27 -228
-102 -356 -245 -441 -493 -18 -52 -33 -89 -33 -81 -1 11 -5 10 -16 -5 -8 -10
-15 -14 -15 -8 0 7 -15 10 -41 8 -28 -3 -39 0 -36 9 2 6 -5 21 -15 31 -10 11
-16 26 -14 33 3 7 2 13 -3 13 -12 0 -55 91 -54 115 0 11 -7 27 -17 35 -10 9
-21 34 -23 57 -3 22 -16 58 -30 79 -13 22 -27 57 -30 79 -6 47 -14 88 -27 130
-5 17 -12 55 -16 85 -8 56 -10 68 -13 73 -7 8 -16 172 -16 277 0 108 4 160 19
300 18 159 73 315 144 405 28 36 79 42 75 9z m469 -48 c181 -87 319 -208 481
-423 26 -33 47 -66 47 -72 0 -6 5 -11 10 -11 6 0 10 -6 10 -12 0 -7 14 -33 31
-58 16 -25 35 -54 40 -65 5 -11 18 -33 28 -50 11 -16 20 -39 20 -51 1 -18 -8
-22 -76 -32 -43 -6 -118 -21 -168 -32 -138 -34 -173 -39 -265 -39 -159 -2
-264 39 -367 142 -63 62 -73 76 -73 107 0 26 -3 31 -10 20 -8 -13 -10 -13 -11
3 -1 9 -3 29 -6 45 -12 74 -13 282 -3 337 25 125 75 218 123 229 47 10 118 -4
189 -38z m576 -79 c18 -11 31 -22 28 -24 -3 -3 -18 4 -34 16 -17 12 -35 21
-40 21 -6 0 -14 4 -17 10 -8 12 19 3 63 -23z m-3613 -67 c194 -43 235 -53 275
-74 18 -9 41 -16 51 -16 10 0 39 -11 65 -25 26 -14 55 -25 65 -25 11 0 19 -4
19 -10 0 -5 19 -15 43 -22 23 -6 44 -15 47 -18 3 -3 19 -12 35 -20 17 -8 38
-21 48 -29 9 -8 17 -10 17 -5 0 5 4 5 8 -1 8 -12 69 -55 77 -55 9 0 89 -54 97
-65 4 -5 8 -6 8 -2 0 4 17 -9 38 -30 21 -21 57 -55 80 -75 24 -20 43 -41 44
-45 0 -4 9 -14 19 -21 11 -7 19 -19 19 -26 0 -8 6 -16 14 -19 9 -4 14 -17 12
-34 -2 -15 1 -31 7 -34 5 -4 6 -13 1 -20 -5 -8 -7 -24 -5 -36 1 -16 -3 -23
-13 -23 -10 0 -16 -9 -16 -22 0 -22 0 -22 -19 -2 -88 88 -184 179 -190 179 -3
0 -20 13 -36 28 -17 16 -43 35 -60 44 -16 9 -35 22 -43 29 -7 8 -18 12 -22 9
-5 -3 -15 3 -22 15 -7 11 -17 20 -22 20 -5 0 -17 6 -25 14 -9 8 -42 28 -74 44
-31 16 -63 34 -70 40 -6 5 -34 17 -62 27 -27 10 -55 23 -62 28 -7 5 -16 6 -21
3 -6 -3 -15 1 -22 9 -7 8 -17 15 -22 15 -6 0 -24 6 -41 14 -36 16 -67 28 -82
32 -5 1 -39 12 -75 24 -127 42 -286 86 -388 106 -124 24 -321 29 -428 10 -152
-26 -355 -111 -371 -154 -4 -9 -23 -33 -42 -52 -64 -63 -108 -123 -149 -205
-70 -138 -92 -192 -103 -252 -6 -32 -20 -86 -30 -121 -10 -34 -19 -70 -19 -80
0 -10 -6 -24 -12 -31 -9 -8 -13 -53 -12 -154 1 -120 4 -151 22 -197 12 -30 24
-74 27 -97 3 -23 9 -53 14 -67 6 -13 13 -100 16 -193 4 -92 11 -186 15 -208 5
-22 8 -47 6 -55 -6 -35 -18 -60 -30 -60 -20 0 -61 87 -90 190 -15 52 -34 118
-42 145 -35 116 -51 388 -31 510 3 17 8 66 12 110 3 44 11 98 17 120 6 22 11
49 10 59 -1 11 6 47 14 80 8 34 17 72 20 86 14 72 88 234 147 323 52 77 142
166 222 218 80 52 95 59 202 98 192 71 268 81 578 76 199 -3 257 -7 340 -25z
m-397 -289 c92 -28 348 -140 362 -159 3 -4 32 -25 65 -46 60 -39 238 -212 263
-254 19 -33 7 -42 -56 -42 -51 0 -151 -26 -169 -43 -3 -4 -14 -7 -24 -7 -19 0
-35 -30 -16 -31 27 -1 -37 -21 -198 -60 -93 -22 -214 -59 -268 -81 -54 -22
-122 -44 -152 -49 -30 -5 -81 -13 -112 -19 -32 -5 -106 -11 -164 -12 -105 -3
-106 -3 -180 35 -113 57 -123 77 -127 249 -3 103 0 157 13 214 16 73 47 145
73 173 7 8 20 24 29 37 19 29 105 87 169 114 44 18 66 20 219 16 156 -3 178
-6 273 -35z m4577 -565 c32 -74 48 -151 48 -231 -1 -74 -31 -221 -56 -268 -26
-51 -26 -14 1 63 20 58 27 100 30 186 4 105 2 115 -31 212 -36 105 -32 128 8
38z m-500 13 c-33 -11 -85 -27 -115 -35 -30 -9 -71 -22 -90 -29 -20 -7 -53
-16 -73 -19 -52 -8 -99 -34 -90 -49 5 -9 4 -9 -8 0 -20 16 -57 6 -64 -18 -4
-11 -11 -17 -16 -14 -5 4 -9 1 -9 -5 0 -6 -4 -9 -9 -6 -12 8 -42 -4 -36 -14 3
-4 -9 -7 -26 -6 -17 1 -41 -5 -53 -14 -26 -20 -59 -33 -51 -21 21 34 262 136
450 190 39 11 99 29 135 40 36 11 76 20 90 20 15 0 1 -8 -35 -20z m-2138 -251
c-3 -8 -6 -5 -6 6 -1 11 2 17 5 13 3 -3 4 -12 1 -19z m1473 -2 c0 -2 -8 -10
-17 -17 -16 -13 -17 -12 -4 4 13 16 21 21 21 13z m-40 -29 c0 -2 -12 -14 -27
-28 l-28 -24 24 28 c23 25 31 32 31 24z m-1402 -77 c0 -9 -3 -7 -8 5 -5 11 -8
29 -8 40 0 16 2 15 8 -5 4 -14 8 -32 8 -40z m-2820 20 c13 -16 18 -30 13 -30
-6 0 -17 14 -26 30 -9 17 -14 30 -12 30 2 0 13 -13 25 -30z m1189 -182 c-3 -8
-6 -5 -6 6 -1 11 2 17 5 13 3 -3 4 -12 1 -19z m1347 -58 c-3 -14 -7 -32 -10
-40 -3 -8 -2 -11 2 -8 3 4 13 1 20 -7 18 -18 18 -31 0 -16 -20 17 -32 -6 -14
-27 18 -23 15 -86 -6 -107 -15 -15 -15 -18 4 -43 l21 -26 -21 -8 c-12 -4 -18
-12 -15 -18 3 -5 -1 -20 -10 -32 l-17 -23 6 28 c4 17 2 35 -5 43 -8 10 -9 18
0 27 6 8 8 17 4 21 -10 10 -11 69 -2 87 4 9 4 20 0 25 -11 12 -2 76 10 68 5
-3 6 2 3 10 -3 9 -10 14 -14 11 -12 -8 -4 53 9 69 18 21 40 -1 35 -34z m-1329
-102 c-4 -37 -13 -87 -20 -110 -8 -24 -12 -32 -9 -18 3 14 8 79 12 145 4 95 7
113 14 85 5 -19 6 -65 3 -102z m4226 -46 c1 -34 5 -65 10 -68 5 -3 8 -15 8
-27 -1 -12 1 -69 4 -127 5 -105 -4 -248 -22 -350 -12 -66 -22 -148 -26 -210
-1 -25 -6 -72 -11 -105 -4 -33 -8 -64 -9 -70 -1 -5 3 -16 8 -22 6 -8 6 -13 -1
-13 -14 0 -22 -39 -28 -143 -3 -50 -6 -92 -7 -93 -1 -1 -10 3 -19 10 -13 9
-19 33 -24 87 -3 41 -10 84 -16 95 -7 16 -4 51 11 130 63 337 89 552 98 818 4
138 9 201 15 181 4 -16 8 -58 9 -93z m-212 62 c-34 -36 -150 -124 -163 -124
-4 0 1 11 11 24 10 13 21 22 26 19 4 -2 7 0 7 4 0 5 20 22 44 37 24 15 54 39
67 52 12 13 27 24 33 24 5 0 -6 -16 -25 -36z m-2672 -139 c0 -8 -4 -12 -9 -9
-4 3 -8 9 -8 15 0 5 4 9 8 9 5 0 9 -7 9 -15z m-9 -100 c-12 -36 -40 -59 -31
-24 3 10 9 19 14 19 5 0 9 9 9 20 0 11 4 20 9 20 5 0 5 -15 -1 -35z m-2302
-62 c19 -26 17 -57 -5 -77 -31 -28 -71 2 -71 53 0 39 52 55 76 24z m2284 -71
c0 -15 -2 -15 -10 -2 -13 20 -13 33 0 25 6 -3 10 -14 10 -23z m-2450 -3 c24
-44 -10 -96 -47 -73 -22 14 -38 56 -30 78 9 24 64 21 77 -5z m40 -319 c11 -8
7 -9 -15 -4 -37 8 -45 14 -19 14 10 0 26 -5 34 -10z m2550 -650 c-6 -23 -13
-40 -16 -37 -3 2 1 25 8 51 7 26 14 43 16 37 2 -5 -2 -28 -8 -51z m-2109 -72
c10 -21 17 -38 15 -38 -6 0 -56 87 -56 97 0 10 15 -12 41 -59z m2083 -12 c-3
-15 -8 -25 -11 -23 -2 3 -1 17 3 31 3 15 8 25 11 23 2 -3 1 -17 -3 -31z m3190
-1 c-4 -8 -11 -15 -16 -15 -6 0 -5 6 2 15 7 8 14 15 16 15 2 0 1 -7 -2 -15z
m-3213 -62 c-12 -20 -14 -14 -5 12 4 9 9 14 11 11 3 -2 0 -13 -6 -23z m-2001
-28 c14 -19 14 -19 -2 -6 -10 7 -18 18 -18 24 0 6 1 8 3 6 1 -2 9 -13 17 -24z
m81 -122 c13 -16 12 -17 -3 -4 -17 13 -22 21 -14 21 2 0 10 -8 17 -17z m4883
-137 c9 -30 16 -58 15 -63 -1 -11 -37 88 -38 105 -2 27 8 9 23 -42z m241 -542
c15 -21 7 -74 -12 -74 -8 0 -17 -8 -20 -17 -4 -18 -134 -123 -150 -123 -5 0
-34 -12 -64 -27 -30 -15 -56 -27 -59 -28 -3 -1 -18 -7 -33 -13 -16 -7 -32 -12
-37 -12 -5 0 -24 -9 -43 -20 -46 -27 -127 -20 -127 11 0 6 4 8 9 4 19 -11 23
17 5 36 -10 11 -12 19 -6 19 7 0 12 6 12 14 0 15 21 26 50 26 10 0 20 7 24 15
3 8 12 15 21 15 8 0 15 4 15 8 0 5 16 14 35 22 19 8 35 17 35 22 0 4 8 8 19 8
10 0 24 6 30 14 13 15 55 30 83 29 11 0 14 5 10 15 -3 10 -1 13 6 8 6 -4 28 1
49 10 21 10 42 16 47 15 5 -1 16 5 26 14 9 8 20 12 23 8 4 -3 7 -1 7 5 0 18
31 15 45 -4z m-4500 -889 c-5 -2 -50 -15 -99 -30 -122 -37 -201 -74 -266 -125
-30 -24 -56 -47 -58 -50 -1 -4 -18 -25 -37 -46 -19 -21 -35 -43 -35 -48 0 -5
-10 -23 -23 -40 -26 -34 -57 -94 -57 -108 0 -6 -14 -40 -31 -76 -17 -37 -44
-100 -61 -140 -16 -40 -44 -103 -62 -140 -209 -421 -273 -567 -299 -687 -38
-168 -42 -206 -42 -367 0 -92 -3 -161 -6 -155 -4 7 -15 77 -25 157 -15 127
-16 162 -5 289 38 445 182 889 368 1136 172 228 350 344 643 418 47 12 124 22
95 12z m2252 -375 c41 -28 87 -53 101 -56 15 -3 45 -11 67 -17 22 -6 42 -11
45 -12 15 -3 59 -19 85 -30 54 -22 129 -53 170 -69 22 -8 112 -39 199 -67 159
-51 331 -129 385 -175 16 -13 32 -24 36 -24 4 0 29 -22 56 -50 73 -74 148
-229 169 -347 6 -37 15 -84 18 -103 4 -19 6 -117 5 -218 -2 -187 -21 -339 -50
-395 -7 -15 -23 -57 -34 -93 -25 -81 -35 -79 -14 2 56 211 34 492 -54 714 -65
161 -133 264 -256 386 -91 91 -167 139 -335 215 -63 28 -152 69 -198 90 -46
21 -88 39 -94 39 -5 0 -22 9 -38 20 -15 10 -49 24 -76 31 -208 48 -284 93
-284 168 0 23 5 41 11 41 6 0 45 -23 86 -50z m2163 -140 c6 -11 8 -20 6 -20
-3 0 -10 9 -16 20 -6 11 -8 20 -6 20 3 0 10 -9 16 -20z m30 -65 c0 -5 -5 -3
-10 5 -5 8 -10 20 -10 25 0 6 5 3 10 -5 5 -8 10 -19 10 -25z m-3356 -21 c43
-38 24 -50 -60 -38 -66 9 -94 28 -57 40 10 3 25 9 33 14 26 15 54 10 84 -16z
m103 -51 c-3 -16 -8 -35 -12 -44 -5 -13 2 -18 29 -23 55 -10 45 -28 -11 -21
-76 10 -75 10 -56 52 10 21 21 44 26 51 16 22 30 13 24 -15z m-107 -42 c-1
-27 -20 -32 -89 -25 -69 6 -84 17 -61 40 11 11 150 -3 150 -15z m478 3 c44 -9
11 -25 -36 -18 -53 7 -64 12 -58 23 5 7 45 5 94 -5z m-208 -6 c0 -22 -46 -72
-58 -64 -17 10 -15 19 9 50 21 27 49 35 49 14z m100 -25 c0 -23 -20 -53 -35
-53 -17 0 -19 18 -5 54 10 27 40 27 40 -1z m385 -14 c5 -5 -10 -9 -37 -9 -51
0 -78 7 -78 21 0 12 101 0 115 -12z m-225 5 c0 -11 -23 -49 -34 -56 -16 -11
-36 -10 -36 2 0 6 11 22 25 35 22 23 45 33 45 19z m2657 -6 c6 -7 21 -41 33
-76 20 -55 22 -75 18 -180 -11 -247 -99 -463 -347 -847 -67 -104 -188 -251
-198 -241 -6 5 10 37 79 165 42 77 128 316 128 357 0 12 4 25 8 28 5 3 14 31
21 63 14 65 45 186 71 283 10 36 28 135 39 220 27 194 26 191 49 216 22 23 84
31 99 12z m-2562 -18 c7 -24 -10 -60 -30 -60 -21 0 -26 15 -14 49 12 35 35 41
44 11z m315 7 c26 -13 33 -38 13 -44 -6 -2 -14 5 -18 16 -8 25 -65 31 -65 6 0
-25 -23 -65 -37 -65 -15 0 -16 11 -4 42 5 13 12 31 15 41 6 21 58 23 96 4z
m194 -2 c3 -8 12 -15 21 -15 9 0 15 -9 15 -21 0 -21 -3 -22 -63 -16 -75 7 -97
15 -97 33 0 9 11 14 30 14 17 0 30 5 30 10 0 16 57 12 64 -5z m-1201 -5 c30 0
37 -4 37 -19 0 -18 -6 -19 -57 -15 -90 8 -103 12 -96 30 5 12 14 15 42 10 20
-3 53 -6 74 -6z m851 -18 c6 -10 -40 -62 -54 -62 -19 0 -10 39 12 54 25 18 35
20 42 8z m139 -19 c2 -5 7 -20 11 -35 9 -40 -18 -37 -38 4 -9 17 -16 33 -16
35 0 6 39 3 43 -4z m-723 -19 c0 -24 -19 -54 -35 -54 -19 0 -19 20 1 48 18 26
34 29 34 6z m3245 -112 c46 -214 -30 -592 -177 -887 -57 -113 -119 -218 -125
-211 -3 3 0 12 7 21 7 8 10 15 6 15 -4 0 1 11 10 25 9 14 12 25 8 25 -5 0 -1
5 8 11 11 6 15 16 11 26 -4 10 -2 14 5 9 7 -4 11 5 10 26 -1 47 5 88 13 88 9
0 31 62 24 68 -2 2 2 17 10 33 8 15 15 40 15 55 0 15 14 70 31 123 39 121 75
266 89 355 12 79 16 288 6 305 -4 6 -4 16 0 22 11 18 33 -32 49 -109z m-3537
98 c25 0 32 -4 32 -20 0 -22 -21 -25 -104 -14 -37 5 -46 11 -46 26 0 18 5 19
43 14 23 -4 57 -6 75 -6z m412 -3 c0 -16 -55 -59 -64 -50 -10 11 -7 22 14 43
23 23 50 26 50 7z m140 -11 c0 -20 -25 -66 -36 -66 -17 0 -19 41 -2 58 11 11
38 17 38 8z m110 -25 c0 -10 -7 -24 -15 -31 -25 -20 -18 -27 37 -33 48 -6 78
-20 67 -31 -3 -3 -30 -2 -62 1 -38 4 -57 10 -57 19 0 8 -4 14 -10 14 -15 0
-12 27 5 61 17 31 35 31 35 0z m534 23 c25 -4 46 -9 46 -13 -1 -23 -20 -27
-88 -21 -76 7 -88 12 -77 29 7 12 50 14 119 5z m-384 -38 c0 -25 -19 -66 -30
-66 -19 0 -22 28 -5 54 19 29 35 34 35 12z m-331 -31 c15 -15 11 -16 -44 -10
-71 9 -86 15 -59 26 27 12 85 3 103 -16z m729 -9 c9 -10 -13 -36 -26 -31 -8 3
-42 8 -74 12 -42 4 -58 10 -58 21 0 12 12 14 77 8 43 -4 79 -9 81 -10z m-29
-72 c2 -2 1 -10 -3 -19 -5 -14 -16 -16 -73 -10 -71 8 -90 16 -79 34 6 10 143
5 155 -5z m-2174 -17 c-8 -13 -12 -26 -9 -30 4 -4 -12 -30 -34 -60 -23 -29
-49 -71 -59 -93 -25 -59 -21 -170 11 -278 14 -49 24 -91 22 -94 -7 -6 -65 92
-116 194 -57 115 -50 242 18 307 42 40 114 77 150 77 32 0 32 -1 17 -23z
m-458 -109 c-3 -7 -5 -2 -5 12 0 14 2 19 5 13 2 -7 2 -19 0 -25z m2656 -152
c74 -30 123 -135 111 -236 -7 -61 -68 -223 -111 -298 -68 -117 -195 -316 -245
-383 -64 -86 -149 -182 -156 -175 -2 3 19 31 47 63 29 32 69 83 88 113 20 30
54 78 74 105 21 28 44 61 51 75 7 14 46 80 87 148 97 162 141 278 141 371 0
83 -11 115 -53 159 -39 40 -81 52 -141 41 -75 -14 -143 -57 -239 -151 -21 -21
-41 -38 -43 -38 -13 0 22 44 79 97 114 106 225 145 310 109z m-14 -48 c23 -14
61 -86 54 -103 -6 -17 -59 -24 -75 -11 -7 7 -7 4 1 -6 11 -15 11 -18 -3 -18
-9 0 -16 -7 -16 -15 0 -8 -6 -15 -14 -15 -9 0 -12 -7 -9 -19 3 -13 -5 -29 -24
-48 -16 -16 -33 -37 -37 -48 -5 -12 -10 -15 -13 -8 -5 12 -33 7 -33 -7 0 -18
-92 -104 -136 -127 l-47 -25 6 65 c4 38 2 77 -5 94 -10 26 -6 39 36 121 51 98
101 146 183 177 41 15 102 12 132 -7z m-3585 -138 c-41 -198 -29 -416 31 -569
50 -130 136 -255 224 -329 56 -47 194 -138 269 -177 28 -15 52 -31 52 -36 0
-5 3 -8 8 -7 8 3 116 -67 146 -94 11 -10 28 -18 38 -18 10 0 18 -5 18 -11 0
-5 4 -8 9 -4 5 3 17 -3 27 -12 10 -10 20 -18 23 -19 3 0 15 -4 26 -9 11 -4 51
-19 89 -34 124 -47 45 -33 -124 22 -335 109 -516 218 -663 400 -182 223 -251
498 -203 812 13 85 44 210 51 203 2 -2 -8 -55 -21 -118z m4112 14 c18 -43 13
-78 -23 -156 -25 -54 -28 -57 -88 -77 -78 -27 -91 -26 -110 3 -33 50 -23 138
20 192 56 67 62 70 143 73 40 1 44 -1 58 -35z m-506 -14 c0 -5 -5 -10 -11 -10
-5 0 -7 5 -4 10 3 6 8 10 11 10 2 0 4 -4 4 -10z m-2240 -195 c0 -5 -5 -3 -10
5 -5 8 -10 20 -10 25 0 6 5 3 10 -5 5 -8 10 -19 10 -25z m1750 -205 c-6 -11
-12 -20 -14 -20 -2 0 -2 9 1 20 3 11 9 20 15 20 5 0 4 -9 -2 -20z m-23 -52
c-3 -8 -6 -5 -6 6 -1 11 2 17 5 13 3 -3 4 -12 1 -19z m-28 -134 c-19 -23 -21
-10 -7 42 l13 49 3 -38 c2 -21 -2 -45 -9 -53z m-1605 -107 c-1 -12 -3 -30 -3
-41 -1 -26 -109 -128 -156 -147 -39 -16 -128 -40 -132 -35 -1 1 22 21 52 44
31 24 82 81 116 130 78 109 89 118 110 91 8 -12 14 -31 13 -42z m2231 -347
c40 -80 45 -120 16 -120 -29 0 -64 56 -69 111 -4 46 1 79 13 79 2 0 21 -31 40
-70z m855 -143 c0 -2 -10 -12 -22 -23 l-23 -19 19 23 c18 21 26 27 26 19z
m-120 -121 c0 -2 -17 -14 -37 -25 l-38 -21 30 25 c28 23 45 31 45 21z m-710
-156 c24 -8 24 -8 -5 -8 -16 0 -39 3 -50 8 -18 8 -18 9 5 8 14 0 36 -4 50 -8z
m-2513 -66 c-3 -3 -12 -4 -19 -1 -8 3 -5 6 6 6 11 1 17 -2 13 -5z m1823 -330
c0 -8 -9 -14 -20 -14 -17 0 -20 7 -20 38 l1 37 19 -24 c11 -13 20 -29 20 -37z"/>
<path d="M2965 7680 c-3 -5 -1 -10 4 -10 6 0 11 5 11 10 0 6 -2 10 -4 10 -3 0
-8 -4 -11 -10z"/>
<path d="M3170 6715 c0 -8 7 -15 15 -15 9 0 12 6 9 15 -4 8 -10 15 -15 15 -5
0 -9 -7 -9 -15z"/>
<path d="M3165 6599 c-4 -6 -5 -12 -2 -15 2 -3 7 2 10 11 7 17 1 20 -8 4z"/>
<path d="M685 6390 c1 -13 7 -26 13 -28 16 -5 15 10 -1 33 -13 17 -14 16 -12
-5z"/>
<path d="M5955 4200 c3 -5 8 -10 11 -10 2 0 4 5 4 10 0 6 -5 10 -11 10 -5 0
-7 -4 -4 -10z"/>
<path d="M6501 5404 c0 -11 3 -14 6 -6 3 7 2 16 -1 19 -3 4 -6 -2 -5 -13z"/>
<path d="M6362 1255 c-17 -37 -14 -45 4 -12 9 16 14 31 11 33 -2 2 -9 -7 -15
-21z"/>
</g>
</svg>
