<?xml version="1.0" standalone="no"?>
<!DOCTYPE svg PUBLIC "-//W3C//DTD SVG 20010904//EN"
 "http://www.w3.org/TR/2001/REC-SVG-20010904/DTD/svg10.dtd">
<svg version="1.0" xmlns="http://www.w3.org/2000/svg"
 width="580.000000pt" height="676.000000pt" viewBox="0 0 580.000000 676.000000"
 preserveAspectRatio="xMidYMid meet">

<g transform="translate(0.000000,676.000000) scale(0.100000,-0.100000)"
fill="#000000" stroke="none">
<path d="M548 6743 c-9 -3 -20 -13 -23 -24 -5 -15 -10 -17 -26 -9 -26 14 -36
7 -44 -33 -17 -78 -38 -119 -79 -157 -65 -60 -116 -191 -116 -298 0 -38 -10
-77 -39 -145 -23 -51 -65 -191 -97 -317 -54 -212 -57 -232 -57 -345 -1 -103 4
-138 31 -244 18 -69 51 -166 73 -215 41 -91 58 -130 316 -721 77 -176 149
-340 161 -365 11 -25 32 -74 47 -110 15 -36 38 -75 51 -87 13 -12 24 -27 24
-33 0 -5 23 -10 53 -11 41 0 47 -2 30 -9 -23 -9 -32 -30 -14 -30 20 0 41 13
41 25 0 7 9 15 20 18 13 3 20 14 20 30 0 14 5 29 11 33 7 4 10 -5 8 -27 -1
-19 1 -44 5 -56 7 -21 8 -21 44 -7 45 18 76 32 164 73 37 17 74 31 82 31 9 0
28 18 42 40 34 51 34 127 1 225 -26 77 -200 478 -279 645 -73 154 -187 415
-214 490 -13 36 -24 86 -24 111 0 59 32 131 67 155 47 30 95 93 74 95 -25 3
-30 4 -36 10 -7 7 106 29 150 29 88 0 179 70 234 179 29 56 43 69 47 40 4 -24
7 -20 25 26 l19 50 -5 -55 c-8 -69 -39 -195 -64 -253 -11 -25 -33 -56 -50 -68
-41 -30 -26 -39 72 -39 111 0 224 33 377 110 251 127 314 192 346 357 30 158
7 337 -54 428 -68 99 -284 198 -526 240 -96 16 -216 20 -216 7 0 -5 13 -33 29
-63 50 -93 102 -361 100 -507 -1 -48 -4 -73 -5 -57 -23 199 -72 409 -121 513
-67 143 -250 264 -481 317 -75 18 -72 18 -72 5 0 -5 9 -10 20 -10 41 0 19
-104 -37 -169 -31 -37 -37 -41 -46 -26 -5 10 -6 34 -3 55 4 28 2 39 -9 44 -8
3 -15 11 -15 17 0 7 -7 21 -17 31 -15 17 -15 19 1 37 18 20 12 30 -16 24z
m-48 -562 c0 -10 -46 -97 -70 -131 -9 -14 -23 -42 -31 -62 -7 -21 -17 -38 -21
-38 -12 0 -10 11 12 76 30 87 110 200 110 155z m-110 -394 c0 -22 -33 -97 -43
-97 -11 0 -5 50 12 93 10 27 31 29 31 4z m-110 -561 c0 -14 5 -28 11 -32 6 -3
8 -16 5 -29 -6 -22 19 -98 50 -157 8 -14 14 -32 14 -39 0 -6 12 -37 26 -68 39
-83 61 -132 77 -171 8 -19 25 -57 37 -85 34 -76 44 -100 100 -230 29 -66 60
-138 71 -161 10 -22 19 -46 19 -52 0 -11 13 -16 33 -13 17 3 19 -31 2 -43 -13
-9 -16 -20 -12 -38 9 -35 47 -80 62 -74 21 8 37 -19 29 -48 -4 -17 1 -46 14
-79 20 -49 38 -147 29 -147 -3 0 -14 18 -25 39 -12 22 -25 48 -30 58 -6 10
-20 41 -33 68 -12 28 -26 58 -31 67 -4 10 -8 26 -8 36 0 11 -12 41 -27 68 -54
101 -143 285 -143 297 0 7 -5 18 -12 25 -7 7 -9 12 -5 12 4 0 -11 35 -32 78
-42 84 -91 204 -91 222 0 6 -5 8 -10 5 -6 -4 -10 -3 -8 2 3 13 -22 92 -31 97
-5 3 -12 17 -15 31 -4 14 -19 53 -36 87 -58 126 -86 235 -68 273 14 32 38 33
38 1z m-108 -95 c16 -53 59 -157 197 -471 23 -52 76 -174 118 -270 42 -96 100
-229 131 -295 67 -149 142 -333 142 -352 0 -24 -17 -5 -23 25 -7 33 -64 165
-416 960 -108 245 -181 427 -181 453 0 5 3 9 8 9 4 0 15 -27 24 -59z"/>
<path d="M594 6734 c3 -9 6 -18 6 -20 0 -2 7 -4 15 -4 8 0 15 9 15 20 0 14 -7
20 -21 20 -15 0 -19 -4 -15 -16z"/>
<path d="M3670 6483 c-57 -6 -86 -22 -104 -56 -9 -18 -23 -43 -31 -57 -8 -14
-12 -38 -9 -56 3 -23 0 -33 -11 -37 -8 -4 -15 -18 -15 -32 0 -17 -7 -28 -20
-33 -19 -7 -19 -8 6 -45 14 -21 23 -41 21 -44 -9 -8 -75 89 -88 127 -17 52
-32 63 -24 18 5 -25 3 -38 -3 -38 -15 0 -61 -81 -82 -143 -9 -29 -30 -79 -46
-112 -27 -56 -29 -67 -26 -165 4 -161 38 -270 114 -358 36 -42 193 -182 204
-182 5 0 36 -14 69 -30 59 -30 137 -40 149 -21 4 5 25 12 48 16 23 4 71 19
107 33 36 13 79 26 95 27 35 2 142 -64 204 -126 42 -43 63 -93 90 -219 5 -25
24 -99 41 -165 18 -66 79 -305 135 -530 57 -226 113 -429 124 -452 26 -51 73
-90 115 -98 32 -6 258 18 292 31 8 4 23 20 32 37 l16 31 33 -39 c28 -33 36
-38 51 -29 9 6 20 24 25 40 4 16 17 46 29 67 20 37 20 41 6 75 -9 21 -48 170
-87 332 -40 162 -106 428 -147 590 -79 309 -133 535 -133 560 0 8 -5 31 -10
50 -9 32 -13 35 -50 35 -33 1 -39 -2 -34 -15 15 -33 10 -65 -10 -65 -13 0 -33
23 -63 75 -59 100 -128 168 -245 243 -93 59 -96 62 -91 93 4 25 1 33 -13 38
-11 4 -30 16 -44 27 -29 25 143 -65 180 -93 35 -27 35 -9 1 58 -16 33 -32 77
-35 99 -5 34 -5 37 5 19 6 -12 24 -24 39 -28 17 -3 31 -14 35 -25 14 -45 187
-241 212 -241 7 0 13 8 13 18 0 25 -53 129 -58 114 -7 -21 -42 -14 -42 9 0 11
-4 17 -10 14 -5 -3 -19 -1 -30 5 -17 9 -20 21 -20 90 l0 80 -30 0 c-24 0 -35
7 -48 30 -9 16 -20 30 -24 30 -17 0 -6 28 15 37 21 10 18 15 -68 100 -148 146
-295 239 -425 269 -72 16 -256 26 -330 17z m314 -608 c11 -8 16 -15 10 -15 -5
0 -18 7 -28 15 -11 8 -16 15 -10 15 5 0 18 -7 28 -15z m179 -151 c34 -18 119
-86 113 -91 -6 -7 -101 39 -134 63 -18 14 -30 30 -27 35 8 12 11 12 48 -7z
m435 -421 c47 -122 99 -317 303 -1135 32 -130 68 -260 79 -288 23 -59 23 -60
10 -60 -19 0 -47 84 -98 296 -81 335 -240 962 -267 1050 -20 66 -45 129 -83
207 -2 4 3 7 11 7 10 0 26 -28 45 -77z m142 -292 c28 -110 50 -208 49 -218 0
-10 -24 74 -53 187 -68 267 -69 269 -56 248 6 -10 33 -107 60 -217z m77 -333
c-3 -8 -6 -5 -6 6 -1 11 2 17 5 13 3 -3 4 -12 1 -19z"/>
<path d="M3440 6359 c0 -5 5 -7 10 -4 6 3 10 8 10 11 0 2 -4 4 -10 4 -5 0 -10
-5 -10 -11z"/>
<path d="M3084 5871 c-61 -43 -142 -139 -175 -206 -43 -89 -59 -158 -59 -266
0 -146 35 -240 123 -337 85 -91 199 -132 371 -132 60 0 125 4 145 9 163 42
248 68 307 96 l69 33 -53 1 c-112 2 -258 78 -390 205 -98 94 -147 156 -192
247 -53 104 -81 196 -87 292 -3 48 -9 87 -13 87 -4 0 -25 -13 -46 -29z"/>
<path d="M3550 4759 c0 -19 55 -30 122 -23 90 9 97 24 11 25 -37 1 -83 2 -100
4 -18 1 -33 -1 -33 -6z"/>
<path d="M3815 4741 c-8 -13 3 -18 63 -26 36 -5 52 -3 52 4 0 24 -101 43 -115
22z"/>
<path d="M3473 4667 c-3 -6 -31 -7 -68 -3 -79 8 -316 -30 -425 -67 -8 -3 -27
-8 -42 -11 -34 -8 -58 -50 -59 -108 -2 -65 -12 -90 -44 -108 -31 -17 -132 -24
-150 -11 -5 4 -26 14 -45 21 -19 7 -44 20 -55 29 -20 16 -20 16 -2 -6 10 -12
17 -30 15 -40 -4 -15 -13 -10 -50 29 -49 52 -67 54 -123 13 -16 -12 -95 -53
-175 -92 -80 -39 -202 -107 -271 -152 -70 -45 -135 -81 -145 -81 -35 -1 -98
-53 -105 -87 -3 -17 -34 -81 -69 -143 l-63 -111 13 -77 c41 -248 -27 -464
-226 -727 -54 -71 -128 -170 -165 -219 -158 -208 -162 -252 -60 -552 28 -81
51 -150 51 -152 0 -15 -30 26 -50 67 -13 28 -27 48 -31 46 -12 -8 9 -72 57
-172 58 -125 69 -164 55 -192 -7 -12 -8 -20 -4 -19 10 4 12 -12 5 -31 -3 -7 7
-48 21 -90 23 -67 168 -487 200 -580 14 -40 44 -58 32 -20 -12 42 -86 253 -95
274 -5 11 -23 65 -41 120 -18 55 -36 105 -41 112 -6 7 -8 18 -5 25 6 16 45
-66 95 -199 26 -70 42 -99 53 -98 9 2 16 -6 17 -23 1 -14 8 -32 15 -40 6 -8
11 -17 10 -19 -2 -1 -3 -13 -3 -25 0 -19 2 -20 10 -8 8 12 10 11 10 -8 0 -12
5 -30 10 -40 6 -9 28 -69 49 -132 21 -63 48 -140 60 -170 29 -76 28 -86 -9
-60 -17 12 -30 26 -30 32 0 5 -8 22 -19 36 -10 15 -21 45 -24 66 -8 48 -24 67
-38 46 -5 -8 -7 -23 -5 -33 6 -26 -14 -9 -25 21 -44 121 -113 291 -116 288 -5
-4 17 -75 59 -196 16 -47 32 -103 34 -125 5 -37 4 -39 -11 -21 -12 16 -15 17
-15 4 0 -8 -6 -21 -14 -27 -11 -9 -18 -6 -35 15 -12 15 -21 22 -21 15 0 -21
-18 -11 -38 22 -11 17 -25 57 -31 87 -11 60 -65 197 -57 145 21 -133 83 -300
121 -327 20 -15 63 -8 68 10 2 11 13 21 25 24 17 5 24 -4 46 -61 16 -40 41
-81 62 -102 l35 -34 -11 30 c-6 16 -19 38 -28 48 -23 26 -43 107 -26 107 7 0
21 -11 32 -25 30 -38 122 -118 128 -112 3 3 0 15 -6 27 -10 19 -10 20 7 12 51
-28 137 -148 147 -207 6 -31 22 -53 70 -101 35 -33 77 -66 93 -73 17 -7 36
-23 43 -36 14 -26 69 -42 81 -23 6 9 12 8 24 -2 60 -50 226 -117 355 -145 125
-26 236 -35 437 -35 287 0 476 24 643 80 43 14 66 18 73 11 13 -13 -20 -26
-136 -53 -48 -11 -86 -23 -84 -25 6 -5 138 23 212 45 51 16 60 21 60 42 0 15
7 26 18 28 20 4 23 -18 5 -37 -11 -10 -10 -11 2 -7 8 2 60 19 115 36 55 18
123 41 150 52 28 11 68 27 90 36 22 8 81 35 132 59 50 23 96 43 101 43 5 0 15
6 21 14 9 11 9 15 -1 19 -20 7 7 29 97 77 207 110 310 181 499 343 201 173
363 367 460 550 36 70 44 92 36 107 -24 44 9 149 44 142 23 -4 44 51 66 168
10 52 26 117 34 144 18 55 24 323 6 296 -11 -17 -11 -18 -35 90 -9 41 -48 167
-87 280 -38 113 -80 239 -93 280 -25 81 -45 140 -80 235 -12 33 -59 174 -104
313 -94 290 -70 263 -221 237 -110 -20 -238 -22 -270 -6 -47 25 -100 85 -119
136 -10 27 -35 118 -55 200 -60 245 -56 236 -138 286 -82 51 -226 157 -281
208 -50 46 -75 60 -110 61 -16 0 -38 5 -49 11 -12 6 -91 29 -176 50 -154 39
-287 55 -299 36z m180 -92 c31 -64 35 -84 11 -64 -16 13 -29 40 -44 92 -14 46
4 30 33 -28z m-1163 -225 c0 -11 -6 -9 -21 7 -12 11 -18 26 -14 33 8 13 34
-16 35 -40z m1120 -49 c-10 -39 -30 -65 -30 -39 0 21 34 102 38 90 2 -6 -2
-29 -8 -51z m-904 9 c43 -24 59 -28 74 -20 29 16 25 -5 -6 -29 -38 -30 -85
-36 -142 -17 -52 17 -90 50 -89 77 0 12 13 16 54 17 42 1 65 -5 109 -28z m82
12 c3 -9 -2 -13 -14 -10 -9 1 -19 9 -22 16 -3 9 2 13 14 10 9 -1 19 -9 22 -16z
m-408 -777 c0 -3 -31 -50 -70 -103 -86 -119 -189 -320 -230 -449 -55 -173 -73
-311 -67 -528 2 -104 10 -215 17 -245 6 -30 14 -66 16 -78 4 -17 8 -21 17 -14
7 5 39 10 73 11 l61 2 17 -81 c18 -82 17 -110 -6 -110 -7 0 -30 -5 -50 -11
-30 -8 -38 -15 -38 -33 0 -24 61 -202 104 -303 14 -34 26 -73 26 -86 0 -31 49
-107 114 -176 59 -62 86 -100 86 -117 0 -17 -77 -15 -119 3 -59 25 -92 33 -85
21 8 -13 -13 -2 -39 20 -16 14 -21 14 -46 -1 -16 -9 -31 -14 -35 -10 -3 3 -6
-1 -6 -11 0 -9 5 -14 10 -11 12 8 13 3 1 -28 -6 -14 -7 -28 -4 -31 4 -3 7 -18
8 -33 2 -16 6 -39 9 -53 10 -37 -52 116 -71 178 -16 49 -19 53 -46 50 -38 -4
-47 19 -13 32 23 8 25 12 16 35 -16 43 -12 50 40 70 27 11 64 34 81 52 l30 33
-87 127 c-48 71 -97 143 -108 161 -17 25 -26 31 -46 28 -14 -3 -34 -6 -44 -8
-15 -2 -24 9 -42 52 -20 49 -25 55 -48 52 -30 -3 -36 21 -9 37 27 15 18 86
-17 130 -62 78 -95 275 -95 564 l0 218 -33 -38 c-41 -46 -32 -24 13 32 24 30
37 64 54 137 l22 96 67 43 c86 54 145 94 372 251 175 120 200 136 200 123z
m2527 -125 c9 -30 36 -116 61 -190 24 -74 61 -189 82 -255 21 -66 74 -223 118
-350 78 -227 99 -296 87 -284 -3 4 -31 73 -61 155 -252 675 -324 877 -324 911
0 12 -5 33 -11 47 -7 14 -8 33 -5 43 7 17 8 17 22 -2 8 -10 22 -44 31 -75z
m-2477 -85 c0 -14 -38 -46 -44 -37 -3 6 1 18 10 26 15 16 34 21 34 11z m1477
-53 c15 -9 73 -122 73 -142 0 -8 -9 -21 -20 -28 -24 -15 -27 -4 -3 13 15 11
15 15 -5 47 -12 20 -22 42 -22 50 0 21 -35 50 -56 46 -26 -5 -28 -25 -3 -31
17 -5 20 -11 15 -31 -5 -20 0 -29 25 -47 40 -28 25 -48 -19 -25 -45 23 -52 20
-39 -15 11 -27 16 -30 44 -27 18 2 33 3 33 1 0 -4 -71 -36 -73 -32 -1 2 -9 15
-17 29 -8 14 -27 49 -42 78 -21 40 -28 48 -32 34 -8 -24 16 -81 50 -121 15
-18 24 -34 21 -37 -9 -9 -67 70 -84 114 -16 43 -16 44 8 67 13 13 33 25 44 27
10 2 27 11 37 21 19 18 45 22 65 9z m732 -112 c0 -10 -3 -8 -9 5 -12 27 -12
43 0 25 5 -8 9 -22 9 -30z m-960 -91 c44 -77 47 -89 29 -107 -25 -25 -44 -10
-85 63 -45 78 -51 100 -30 108 33 14 46 4 86 -64z m-133 -74 c24 -39 43 -78
43 -87 1 -16 -26 -38 -47 -38 -11 0 -92 141 -92 161 0 20 21 40 39 37 9 -2 34
-35 57 -73z m1184 50 c0 -8 -7 -15 -15 -15 -16 0 -20 12 -8 23 11 12 23 8 23
-8z m-1313 -134 c45 -77 48 -93 15 -110 -25 -13 -37 1 -87 92 -29 56 -34 71
-24 83 24 29 51 11 96 -65z m-127 -84 c34 -65 35 -92 4 -104 -19 -7 -40 17
-84 98 -36 68 -36 73 -7 86 29 14 44 1 87 -80z m-166 -20 c37 -60 66 -120 66
-133 0 -12 -29 -34 -44 -34 -8 0 -96 150 -96 165 0 14 26 34 45 35 6 0 19 -15
29 -33z m-122 -94 c14 -27 34 -62 44 -79 15 -27 16 -34 5 -48 -27 -32 -49 -19
-91 57 -42 75 -48 102 -27 110 30 13 45 4 69 -40z m-118 -99 c25 -42 46 -82
46 -89 0 -17 -48 -41 -59 -29 -5 5 -22 34 -38 64 -16 30 -36 65 -44 78 -13 21
-12 25 5 38 11 8 25 14 32 14 7 0 33 -34 58 -76z m1226 -10 c0 -3 -11 -44 -26
-90 l-25 -83 -100 -57 c-54 -31 -101 -60 -104 -64 -5 -8 -164 36 -177 48 -6 6
406 250 425 251 4 1 7 -2 7 -5z m-1393 -26 c29 -32 74 -124 68 -140 -7 -19
-143 -90 -156 -82 -19 11 -89 126 -89 145 0 10 11 26 25 35 24 15 27 15 44 0
10 -9 26 -34 36 -56 17 -39 37 -51 50 -30 9 15 35 12 35 -4 0 -7 -10 -21 -22
-29 -16 -11 -18 -16 -8 -16 8 -1 28 10 45 23 l30 24 -18 37 c-10 21 -29 53
-43 71 l-26 33 -41 -20 -42 -20 30 26 c37 31 56 31 82 3z m2221 -160 c-6 -18
-28 -21 -28 -4 0 9 7 16 16 16 9 0 14 -5 12 -12z m-3629 -150 c11 -34 19 -63
17 -65 -4 -4 -46 104 -46 118 0 22 10 5 29 -53z m2442 41 c35 -12 71 -29 80
-38 9 -9 30 -49 48 -89 l32 -73 -18 -55 c-17 -55 -29 -63 -68 -48 -12 5 -165
301 -165 321 0 8 30 2 91 -18z m-268 -139 l-28 -84 -107 -63 -108 -64 -85 26
c-47 15 -85 28 -85 30 0 5 86 57 209 126 156 88 163 92 191 111 13 10 28 14
32 10 5 -5 -4 -46 -19 -92z m-1423 53 c-1 -31 -3 -35 -11 -20 -6 9 -7 26 -4
37 10 30 15 24 15 -17z m1496 20 c6 -20 45 -110 93 -216 34 -74 38 -104 18
-131 -13 -18 -16 -18 -66 -1 -42 14 -55 23 -63 47 -6 16 -21 51 -34 76 -30 58
-30 58 2 159 25 82 39 100 50 66z m696 -69 c-12 -62 -29 -79 -148 -147 l-119
-68 -42 13 c-47 13 -49 21 -29 78 11 30 30 45 137 106 l123 71 41 -17 c29 -13
39 -22 37 -36z m-2893 -54 c0 -8 -7 1 -14 20 -18 46 -17 64 0 25 8 -16 14 -37
14 -45z m2973 49 c11 -6 30 -35 43 -64 13 -29 42 -92 64 -140 42 -90 50 -120
29 -113 -7 3 -44 16 -81 29 l-68 24 -39 83 -39 83 17 55 c18 57 32 65 74 43z
m1122 -104 c-36 -27 -132 -75 -150 -75 -11 0 12 16 50 35 38 20 78 42 89 50
27 19 37 10 11 -10z m-564 -45 c0 -11 -7 -20 -15 -20 -8 0 -15 9 -15 20 0 11
7 20 15 20 8 0 15 -9 15 -20z m-1735 -59 l80 -28 37 -84 36 -84 -16 -52 c-32
-104 -74 -76 -155 103 -54 118 -75 174 -66 174 2 0 40 -13 84 -29z m455 -93
c45 -14 47 -21 24 -77 -16 -40 -48 -64 -189 -141 -57 -30 -63 -31 -104 -20
-43 11 -43 11 -36 48 11 59 20 68 117 121 51 27 102 57 113 65 25 19 26 19 75
4z m780 -12 c41 -13 76 -28 78 -34 2 -6 -10 -16 -25 -24 -15 -8 -108 -60 -205
-116 -163 -94 -198 -111 -198 -97 0 3 12 42 27 86 29 89 44 105 150 158 34 17
64 35 68 41 9 14 21 13 105 -14z m-2920 -51 c0 -5 -5 -3 -10 5 -5 8 -10 20
-10 25 0 6 5 3 10 -5 5 -8 10 -19 10 -25z m2246 25 c25 -9 39 -31 101 -165 60
-130 68 -155 53 -155 -25 0 -131 40 -151 57 -16 13 -79 151 -79 172 0 12 38
101 43 101 2 0 17 -5 33 -10z m1073 -39 c-6 -18 -13 -30 -15 -28 -2 2 1 18 7
36 6 18 13 30 15 28 2 -2 -1 -18 -7 -36z m-3484 -83 c5 4 5 2 2 -5 -4 -6 -2
-13 4 -15 6 -2 9 -14 7 -26 -3 -19 -6 -16 -25 19 -12 23 -17 36 -9 30 7 -6 17
-7 21 -3z m3436 -31 c-10 -9 -11 -8 -5 6 3 10 9 15 12 12 3 -3 0 -11 -7 -18z
m423 2 c-3 -6 3 -13 15 -16 29 -7 26 -27 -11 -80 -89 -131 -279 -328 -420
-438 -103 -80 -138 -99 -138 -75 0 6 5 10 11 10 13 0 206 197 313 320 104 119
216 269 216 287 0 8 5 11 10 8 6 -4 8 -11 4 -16z m-2746 -148 c24 -43 75 -120
113 -171 38 -50 69 -93 69 -95 0 -2 -15 9 -32 26 -37 33 -50 37 -42 12 5 -17
5 -17 -6 0 -6 9 -15 17 -20 17 -5 0 -7 -8 -3 -17 9 -26 -72 53 -119 117 -23
30 -55 72 -71 93 -28 37 -28 39 -11 52 11 7 28 20 39 29 11 8 25 15 30 15 6 0
29 -35 53 -78z m1381 -25 c58 -20 92 -46 61 -46 -7 0 -102 -52 -211 -115 -110
-63 -204 -115 -210 -115 -7 0 -8 7 -3 18 4 9 19 51 33 92 l27 75 94 56 c52 32
106 57 120 58 14 0 54 -10 89 -23z m-1593 -258 c4 -7 4 -10 0 -6 -5 4 -20 2
-34 -3 -22 -8 -23 -8 -12 6 15 18 36 20 46 3z m-44 -50 c-7 -7 -12 -8 -12 -2
0 14 12 26 19 19 2 -3 -1 -11 -7 -17z m166 -140 c17 -17 15 -65 -3 -72 -11 -4
-15 2 -15 27 l-1 32 -18 -22 c-37 -44 -55 -24 -20 21 22 28 39 32 57 14z
m1931 -155 c14 -49 14 -53 -3 -53 -7 0 -19 -7 -26 -15 -16 -19 -23 -12 -40 43
-15 48 -7 62 37 62 17 0 24 -9 32 -37z m11 -98 c-14 -17 -50 -21 -50 -5 0 6 9
10 19 10 11 0 23 5 26 11 4 6 9 8 12 5 3 -3 0 -12 -7 -21z m-658 -175 c22 -65
20 -95 -6 -95 -14 0 -22 15 -36 70 -10 39 -16 74 -13 78 13 21 38 -3 55 -53z
m-76 8 c0 -24 3 -60 7 -80 5 -25 4 -38 -3 -38 -5 0 -10 7 -10 15 0 8 -9 29
-20 47 -27 44 -26 76 3 88 12 5 23 9 23 9 1 1 1 -18 0 -41z m-1378 -300 c-3
-7 -11 -13 -18 -13 -7 0 -15 6 -17 13 -3 7 4 12 17 12 13 0 20 -5 18 -12z
m-32 -41 c9 -29 -2 -31 -36 -7 -24 17 -28 25 -20 36 14 16 47 -1 56 -29z"/>
<path d="M2071 2024 c0 -11 3 -14 6 -6 3 7 2 16 -1 19 -3 4 -6 -2 -5 -13z"/>
<path d="M2086 1975 c6 -31 11 -41 18 -34 2 2 -2 18 -10 34 l-14 30 6 -30z"/>
<path d="M3827 3223 c-10 -9 -9 -43 1 -43 15 0 30 22 25 36 -6 15 -16 18 -26
7z"/>
<path d="M2563 2523 c-8 -19 44 -121 69 -134 18 -10 48 -2 48 12 0 5 -6 9 -13
9 -13 0 -77 97 -77 118 0 18 -20 15 -27 -5z"/>
<path d="M1578 4101 c-15 -23 -22 -41 -15 -41 17 1 49 48 45 66 -2 11 -12 3
-30 -25z"/>
<path d="M1612 3960 c-13 -23 -32 -62 -43 -88 l-20 -47 32 38 c27 32 36 37 59
32 26 -6 29 -3 48 47 11 29 19 54 17 56 -2 2 -14 -2 -26 -9 -17 -9 -24 -9 -27
0 -6 19 -16 12 -40 -29z"/>
<path d="M1451 3973 c-16 -17 -11 -25 8 -14 7 5 12 13 10 19 -2 6 -10 4 -18
-5z"/>
<path d="M1458 3898 c-7 -7 -38 -32 -69 -56 -37 -28 -62 -56 -74 -85 -11 -23
-30 -52 -44 -63 -17 -15 -30 -42 -41 -87 -15 -62 -15 -65 1 -56 10 5 29 9 42
9 30 0 40 12 56 70 13 48 79 175 115 225 29 39 38 55 32 55 -2 0 -11 -6 -18
-12z"/>
<path d="M1538 3757 c-10 -22 0 -67 19 -85 11 -11 13 -10 13 5 0 11 -4 23 -9
29 -5 5 -11 23 -13 39 -2 24 -4 26 -10 12z"/>
<path d="M1530 3611 c0 -4 7 -17 16 -30 13 -18 18 -20 25 -10 15 24 10 36 -16
41 -14 3 -25 2 -25 -1z"/>
<path d="M1526 3553 c-3 -3 -6 -18 -6 -33 0 -18 5 -26 18 -26 9 -1 25 -4 35
-9 13 -5 17 -2 17 11 0 11 -4 24 -8 30 -10 16 -48 34 -56 27z"/>
<path d="M1185 3457 c-29 -82 -29 -83 -18 -72 12 12 47 114 41 120 -2 3 -13
-19 -23 -48z"/>
<path d="M1097 3225 c-8 -16 -36 -68 -62 -115 -87 -161 -144 -285 -174 -380
-16 -53 -33 -105 -36 -115 -5 -14 2 -10 24 13 l31 32 0 -30 c0 -16 -4 -30 -10
-30 -17 0 -11 -36 10 -55 25 -22 36 -14 20 15 -7 13 -8 26 -2 33 4 7 14 32 21
57 24 81 61 171 99 238 27 48 48 106 71 204 34 140 37 187 8 133z m-167 -405
c0 -5 -2 -10 -4 -10 -3 0 -8 5 -11 10 -3 6 -1 10 4 10 6 0 11 -4 11 -10z"/>
<path d="M1366 3083 c-14 -30 -14 -33 0 -33 21 0 74 29 74 40 0 6 0 13 0 18 0
4 -13 7 -29 7 -24 0 -33 -7 -45 -32z"/>
<path d="M1192 2789 c-64 -60 -121 -137 -148 -198 -13 -29 -24 -57 -24 -62 0
-20 28 5 48 44 12 23 55 90 97 150 42 59 74 107 73 107 -2 0 -22 -19 -46 -41z"/>
<path d="M843 2479 c-7 -34 -13 -45 -30 -47 -12 -2 -25 -12 -28 -23 -8 -25 3
-116 20 -154 12 -29 12 -28 7 18 -4 37 -2 47 10 47 24 0 43 30 43 69 0 42 29
52 32 11 2 -23 2 -23 -7 -5 -9 19 -10 19 -7 1 1 -11 8 -21 15 -24 9 -3 12 12
12 53 0 51 -1 55 -16 41 -22 -23 -37 -20 -31 7 4 12 2 28 -3 36 -6 10 -11 1
-17 -30z"/>
<path d="M1005 2494 c-4 -11 -9 -68 -11 -128 -4 -92 -2 -113 13 -135 10 -14
23 -48 31 -75 7 -28 15 -52 17 -55 13 -13 12 11 -4 69 -10 36 -21 82 -24 103
-5 34 -3 39 19 47 17 7 24 17 24 35 0 31 -14 32 -34 3 -9 -12 -16 -20 -17 -18
-7 35 -6 91 2 112 7 17 7 33 1 43 -8 16 -10 16 -17 -1z"/>
<path d="M820 2280 c0 -13 5 -20 13 -17 6 2 12 10 12 17 0 7 -6 15 -12 18 -8
2 -13 -5 -13 -18z"/>
<path d="M5490 1602 c0 -10 -6 -24 -12 -31 -11 -10 -9 -15 6 -27 11 -8 26 -14
33 -14 22 0 14 27 -9 34 -22 6 -22 7 -5 20 21 16 21 22 2 30 -10 3 -15 -1 -15
-12z"/>
<path d="M1133 1423 c18 -61 77 -215 77 -203 0 20 -38 157 -53 193 -13 30 -33
38 -24 10z"/>
<path d="M1482 718 c5 -15 28 -23 28 -10 0 5 -7 13 -16 16 -10 4 -14 1 -12 -6z"/>
<path d="M4655 589 c-33 -21 -98 -59 -145 -84 -89 -47 -151 -85 -137 -85 22 0
347 192 347 205 0 7 2 8 -65 -36z"/>
<path d="M2130 180 c0 -5 5 -10 10 -10 6 0 10 5 10 10 0 6 -4 10 -10 10 -5 0
-10 -4 -10 -10z"/>
<path d="M3278 63 c7 -3 16 -2 19 1 4 3 -2 6 -13 5 -11 0 -14 -3 -6 -6z"/>
</g>
</svg>
