<?xml version="1.0" standalone="no"?>
<!DOCTYPE svg PUBLIC "-//W3C//DTD SVG 20010904//EN"
 "http://www.w3.org/TR/2001/REC-SVG-20010904/DTD/svg10.dtd">
<svg version="1.0" xmlns="http://www.w3.org/2000/svg"
 width="239.000000pt" height="239.000000pt" viewBox="0 0 239.000000 239.000000"
 preserveAspectRatio="xMidYMid meet">

<g transform="translate(0.000000,239.000000) scale(0.100000,-0.100000)"
fill="#000000" stroke="none">
<path d="M1050 2370 c-155 -34 -192 -44 -252 -65 -263 -95 -474 -267 -625
-510 -32 -51 -83 -157 -83 -172 0 -4 -7 -21 -16 -38 -9 -16 -27 -79 -41 -140
-35 -151 -37 -345 -4 -490 83 -374 319 -674 656 -833 490 -232 1108 -87 1433
337 91 119 118 167 179 316 104 257 104 574 1 835 -79 201 -201 368 -362 495
-168 134 -323 205 -543 250 -124 25 -267 32 -343 15z m266 -171 c297 -41 573
-253 689 -528 69 -163 68 -161 73 -654 4 -513 4 -510 -78 -598 -78 -83 -114
-93 -332 -97 l-188 -4 0 401 0 401 200 0 200 0 0 93 c0 272 -60 438 -215 593
-56 56 -92 81 -166 118 -208 102 -411 102 -619 0 -163 -81 -288 -228 -346
-409 -22 -67 -27 -105 -31 -237 l-6 -158 202 0 201 0 0 -401 0 -401 -192 4
c-186 3 -195 4 -244 30 -64 34 -128 105 -148 165 -23 69 -24 867 0 981 31 156
109 303 226 427 205 218 480 315 774 274z"/>
</g>
</svg>
