<?xml version="1.0" standalone="no"?>
<!DOCTYPE svg PUBLIC "-//W3C//DTD SVG 20010904//EN"
 "http://www.w3.org/TR/2001/REC-SVG-20010904/DTD/svg10.dtd">
<svg version="1.0" xmlns="http://www.w3.org/2000/svg"
 width="24.000000pt" height="24.000000pt" viewBox="0 0 24.000000 24.000000"
 preserveAspectRatio="xMidYMid meet">

<g transform="translate(0.000000,24.000000) scale(0.100000,-0.100000)"
fill="#000000" stroke="none">
<path d="M105 213 c59 -6 77 -27 74 -85 -2 -30 2 -53 11 -61 10 -10 11 -9 5 3
-5 8 -8 34 -6 58 4 61 -26 93 -83 90 l-41 -1 40 -4z"/>
<path d="M37 192 c-26 -29 -22 -94 7 -121 19 -18 33 -22 75 -20 28 2 48 5 46
8 -3 3 -26 4 -51 2 -60 -3 -84 17 -84 72 0 24 7 48 17 59 9 10 14 18 11 18 -3
0 -12 -8 -21 -18z"/>
<path d="M70 170 c-11 -11 -20 -27 -20 -35 0 -19 36 -55 55 -55 19 0 55 36 55
55 0 8 -9 24 -20 35 -11 11 -27 20 -35 20 -8 0 -24 -9 -35 -20z"/>
<path d="M210 44 c0 -10 -5 -14 -16 -10 -8 3 -12 2 -9 -4 11 -18 35 -11 35 10
0 11 -2 20 -5 20 -3 0 -5 -7 -5 -16z"/>
</g>
</svg>
