<?xml version="1.0" standalone="no"?>
<!DOCTYPE svg PUBLIC "-//W3C//DTD SVG 20010904//EN"
 "http://www.w3.org/TR/2001/REC-SVG-20010904/DTD/svg10.dtd">
<svg version="1.0" xmlns="http://www.w3.org/2000/svg"
 width="198.000000pt" height="77.000000pt" viewBox="0 0 198.000000 77.000000"
 preserveAspectRatio="xMidYMid meet">

<g transform="translate(0.000000,77.000000) scale(0.100000,-0.100000)"
fill="#000000" stroke="none">
<path d="M1595 538 c-33 -18 -66 -51 -82 -82 -18 -34 -21 -134 -5 -162 9 -16
11 -8 12 41 0 85 15 129 55 164 65 57 160 50 214 -17 30 -35 31 -41 32 -132
l1 -95 19 40 c10 22 19 57 19 78 0 67 -52 143 -113 166 -37 14 -126 14 -152
-1z"/>
<path d="M1635 491 c-33 -14 -56 -47 -62 -90 -6 -40 -5 -41 26 -41 l31 0 0
-70 0 -70 -32 -1 -33 -1 30 -13 c37 -17 115 -19 152 -3 l28 12 -27 4 c-27 3
-28 5 -28 73 l0 69 30 0 c25 0 30 4 30 25 0 76 -78 133 -145 106z"/>
</g>
</svg>
