<?xml version="1.0" standalone="no"?>
<!DOCTYPE svg PUBLIC "-//W3C//DTD SVG 20010904//EN"
 "http://www.w3.org/TR/2001/REC-SVG-20010904/DTD/svg10.dtd">
<svg version="1.0" xmlns="http://www.w3.org/2000/svg"
 width="500.000000pt" height="500.000000pt" viewBox="0 0 500.000000 500.000000"
 preserveAspectRatio="xMidYMid meet">

<g transform="translate(0.000000,500.000000) scale(0.100000,-0.100000)"
fill="#000000" stroke="none">
<path d="M0 2500 l0 -2500 2500 0 2500 0 0 2500 0 2500 -2500 0 -2500 0 0
-2500z m3226 29 c60 -29 84 -81 84 -182 0 -88 -17 -117 -70 -117 l-30 0 0 70
0 70 30 0 c25 0 30 4 30 25 0 58 -55 115 -110 115 -55 0 -110 -60 -110 -120 0
-16 6 -20 35 -20 l36 0 -3 -67 -3 -68 -32 -3 c-54 -5 -73 24 -73 112 0 108 26
161 95 192 42 19 72 17 121 -7z m-1279 -134 c34 -172 34 -169 -6 -173 -38 -4
-51 9 -51 51 0 27 -1 28 -47 25 -44 -3 -49 -6 -66 -40 -16 -33 -23 -38 -53
-38 -19 0 -34 3 -34 6 0 8 130 255 143 272 6 8 26 12 51 10 l41 -3 22 -110z
m173 98 c0 -10 -7 -56 -15 -102 -17 -96 -10 -121 34 -121 41 0 58 26 72 115
17 114 23 125 59 125 36 0 36 -4 14 -121 -19 -100 -35 -134 -74 -154 -34 -18
-109 -20 -143 -4 -47 21 -52 47 -33 160 9 56 19 106 22 110 3 5 18 9 35 9 21
0 29 -5 29 -17z m407 6 c34 -13 43 -26 43 -62 0 -19 -10 -38 -29 -56 -19 -18
-26 -32 -21 -42 4 -8 11 -38 15 -67 l7 -53 -38 3 c-39 3 -39 3 -44 53 -5 48
-7 50 -37 53 -31 3 -31 2 -40 -50 -7 -45 -12 -54 -31 -56 -50 -7 -51 -3 -26
137 12 72 26 136 29 141 8 13 136 13 172 -1z m277 -16 c3 -16 12 -71 21 -123
8 -52 18 -105 20 -117 5 -21 2 -23 -35 -23 -39 0 -40 1 -46 40 -6 40 -7 40
-50 40 -41 0 -45 -3 -64 -40 -18 -35 -25 -40 -55 -40 -19 0 -35 3 -35 6 0 8
130 255 143 272 5 6 29 12 52 12 39 0 44 -3 49 -27z"/>
<path d="M1847 2403 c-22 -42 -21 -53 3 -53 26 0 32 17 22 55 l-9 30 -16 -32z"/>
<path d="M2408 2420 c-6 -37 11 -48 51 -34 19 7 26 17 26 34 0 21 -5 25 -36
28 -34 3 -37 1 -41 -28z"/>
<path d="M2717 2403 c-23 -43 -21 -53 8 -53 19 0 25 5 24 23 0 12 -4 31 -8 42
-7 18 -9 17 -24 -12z"/>
</g>
</svg>
