<?xml version="1.0" standalone="no"?>
<!DOCTYPE svg PUBLIC "-//W3C//DTD SVG 20010904//EN"
 "http://www.w3.org/TR/2001/REC-SVG-20010904/DTD/svg10.dtd">
<svg version="1.0" xmlns="http://www.w3.org/2000/svg"
 width="242.000000pt" height="80.000000pt" viewBox="0 0 242.000000 80.000000"
 preserveAspectRatio="xMidYMid meet">

<g transform="translate(0.000000,80.000000) scale(0.100000,-0.100000)"
fill="#000000" stroke="none">
<path d="M1598 545 c-55 -38 -83 -89 -82 -155 0 -30 7 -66 15 -80 13 -23 14
-19 19 65 4 72 10 96 27 121 58 81 170 83 236 5 25 -30 27 -39 27 -129 0 -91
1 -95 17 -79 12 12 19 38 21 87 4 61 1 75 -19 105 -40 60 -89 85 -161 85 -51
0 -71 -5 -100 -25z"/>
<path d="M1642 500 c-34 -21 -52 -54 -52 -96 0 -20 5 -24 30 -24 l30 0 0 -70
c0 -70 0 -70 -27 -70 -27 -1 -27 -1 -9 -15 26 -19 132 -19 166 0 l25 14 -32 1
-33 0 0 70 0 70 35 0 c29 0 35 4 35 21 0 36 -31 89 -61 104 -38 20 -68 19
-107 -5z"/>
</g>
</svg>
