<?xml version="1.0" standalone="no"?>
<!DOCTYPE svg PUBLIC "-//W3C//DTD SVG 20010904//EN"
 "http://www.w3.org/TR/2001/REC-SVG-20010904/DTD/svg10.dtd">
<svg version="1.0" xmlns="http://www.w3.org/2000/svg"
 width="500.000000pt" height="500.000000pt" viewBox="0 0 500.000000 500.000000"
 preserveAspectRatio="xMidYMid meet">

<g transform="translate(0.000000,500.000000) scale(0.100000,-0.100000)"
fill="#000000" stroke="none">
<path d="M3068 2540 c-73 -39 -111 -156 -76 -237 11 -25 13 -20 18 59 4 66 10
94 26 114 52 70 117 89 188 55 63 -31 86 -81 86 -187 l1 -79 19 35 c12 21 19
55 20 87 0 43 -5 58 -33 95 -18 24 -48 51 -67 60 -47 24 -134 23 -182 -2z"/>
<path d="M3104 2491 c-30 -18 -54 -64 -54 -102 0 -15 8 -19 35 -19 l36 0 -3
-67 c-3 -66 -4 -68 -32 -73 l-30 -5 28 -13 c35 -16 123 -15 161 3 l30 13 -32
1 -33 1 0 70 0 70 30 0 c25 0 30 4 30 25 0 59 -55 115 -112 115 -13 0 -37 -9
-54 -19z"/>
</g>
</svg>
